<svg xmlns="http://www.w3.org/2000/svg" viewBox="0 0 580 566.19"><defs><style>.cls-1,.cls-4{opacity:0.28;}.cls-2,.cls-3,.cls-8{fill:#fff;}.cls-2{opacity:0.44;}.cls-2,.cls-3,.cls-4,.cls-5,.cls-6,.cls-7,.cls-8{isolation:isolate;}.cls-3,.cls-6{opacity:0.34;}.cls-5{opacity:0.16;}.cls-7,.cls-8{opacity:0.56;}</style></defs><title>BG_element</title><g id="Слой_2" data-name="Слой 2"><g id="Слой_1-2" data-name="Слой 1"><g id="Group_928" data-name="Group 928"><g id="Group_634" data-name="Group 634" class="cls-1"><circle id="Ellipse_12" data-name="Ellipse 12" class="cls-2" cx="219.62" cy="137.16" r="137.16"/><circle id="Ellipse_13" data-name="Ellipse 13" class="cls-3" cx="219.62" cy="137.16" r="83.94"/><circle id="Ellipse_14" data-name="Ellipse 14" class="cls-3" cx="219.62" cy="137.16" r="46.37"/></g><g id="Group_642" data-name="Group 642"><circle id="Ellipse_12-2" data-name="Ellipse 12-2" class="cls-4" cx="367.23" cy="465.77" r="100.42"/><circle id="Ellipse_13-2" data-name="Ellipse 13-2" class="cls-5" cx="367.23" cy="465.77" r="61.45"/><circle id="Ellipse_14-2" data-name="Ellipse 14-2" class="cls-6" cx="367.23" cy="465.77" r="33.95"/></g><g id="Group_635" data-name="Group 635"><path id="Rectangle_304" data-name="Rectangle 304" class="cls-7" d="M50.64,113.6h150.9a6.46,6.46,0,0,1,6.46,6.46h0a6.46,6.46,0,0,1-6.46,6.46H50.64a6.46,6.46,0,0,1-6.46-6.46h0A6.46,6.46,0,0,1,50.64,113.6Z"/><path id="Rectangle_316" data-name="Rectangle 316" class="cls-7" d="M50.64,375.3h150.9a6.46,6.46,0,0,1,6.46,6.46h0a6.46,6.46,0,0,1-6.46,6.46H50.64a6.46,6.46,0,0,1-6.46-6.46h0A6.46,6.46,0,0,1,50.64,375.3Z"/><path id="Rectangle_313" data-name="Rectangle 313" class="cls-7" d="M50.64,274h150.9a6.46,6.46,0,0,1,6.46,6.46h0a6.46,6.46,0,0,1-6.46,6.46H50.64a6.46,6.46,0,0,1-6.46-6.46h0A6.46,6.46,0,0,1,50.64,274Z"/><path id="Rectangle_314" data-name="Rectangle 314" class="cls-7" d="M115.22,293.73H199.5a6.46,6.46,0,0,1,6.46,6.46h0a6.46,6.46,0,0,1-6.46,6.46H115.22a6.46,6.46,0,0,1-6.46-6.46h0A6.46,6.46,0,0,1,115.22,293.73Z"/><path id="Rectangle_309" data-name="Rectangle 309" class="cls-7" d="M6.46,190.41h150.9a6.46,6.46,0,0,1,6.46,6.46h0a6.46,6.46,0,0,1-6.46,6.46H6.46A6.46,6.46,0,0,1,0,196.87H0A6.46,6.46,0,0,1,6.46,190.41Z"/><path id="Rectangle_315" data-name="Rectangle 315" class="cls-7" d="M6.46,337.92H109.1a6.46,6.46,0,0,1,6.46,6.45h0a6.46,6.46,0,0,1-6.46,6.46H6.46A6.46,6.46,0,0,1,0,344.37H0A6.46,6.46,0,0,1,6.46,337.92Z"/><path id="Rectangle_305" data-name="Rectangle 305" class="cls-7" d="M50.64,133.32h150.9a6.46,6.46,0,0,1,6.46,6.45h0a6.46,6.46,0,0,1-6.46,6.46H50.64a6.46,6.46,0,0,1-6.46-6.46h0A6.46,6.46,0,0,1,50.64,133.32Z"/><path id="Rectangle_317" data-name="Rectangle 317" class="cls-7" d="M50.64,395h150.9a6.46,6.46,0,0,1,6.46,6.45h0a6.46,6.46,0,0,1-6.46,6.46H50.64a6.46,6.46,0,0,1-6.46-6.46h0A6.46,6.46,0,0,1,50.64,395Z"/><path id="Rectangle_308" data-name="Rectangle 308" class="cls-7" d="M6.46,210.13h150.9a6.46,6.46,0,0,1,6.46,6.45h0a6.46,6.46,0,0,1-6.46,6.46H6.46A6.46,6.46,0,0,1,0,216.58H0A6.46,6.46,0,0,1,6.46,210.13Z"/><path id="Rectangle_306" data-name="Rectangle 306" class="cls-7" d="M50.64,153.37h91.08a6.46,6.46,0,0,1,6.46,6.46h0a6.46,6.46,0,0,1-6.46,6.45H50.64a6.46,6.46,0,0,1-6.46-6.45h0A6.46,6.46,0,0,1,50.64,153.37Z"/><path id="Rectangle_318" data-name="Rectangle 318" class="cls-7" d="M50.64,415.07h91.08a6.46,6.46,0,0,1,6.46,6.45h0a6.46,6.46,0,0,1-6.46,6.46H50.64a6.46,6.46,0,0,1-6.46-6.46h0A6.46,6.46,0,0,1,50.64,415.07Z"/><path id="Rectangle_307" data-name="Rectangle 307" class="cls-7" d="M6.46,230.18H97.54a6.46,6.46,0,0,1,6.46,6.46h0a6.46,6.46,0,0,1-6.46,6.45H6.46A6.46,6.46,0,0,1,0,236.64H0A6.46,6.46,0,0,1,6.46,230.18Z"/></g><g id="Group_637" data-name="Group 637"><path id="Rectangle_304-2" data-name="Rectangle 304-2" class="cls-8" d="M366.83,300.38H526.44a6.83,6.83,0,0,1,6.83,6.83h0a6.83,6.83,0,0,1-6.83,6.83H366.83a6.83,6.83,0,0,1-6.83-6.83h0A6.83,6.83,0,0,1,366.83,300.38Z"/><path id="Rectangle_313-2" data-name="Rectangle 313-2" class="cls-8" d="M413.56,380.9H573.17a6.83,6.83,0,0,1,6.83,6.83h0a6.83,6.83,0,0,1-6.83,6.83H413.56a6.83,6.83,0,0,1-6.83-6.83h0A6.83,6.83,0,0,1,413.56,380.9Z"/><path id="Rectangle_314-2" data-name="Rectangle 314-2" class="cls-8" d="M481.86,401.75H571a6.83,6.83,0,0,1,6.83,6.83h0a6.83,6.83,0,0,1-6.83,6.83H481.86a6.83,6.83,0,0,1-6.83-6.83h0A6.83,6.83,0,0,1,481.86,401.75Z"/><path id="Rectangle_315-2" data-name="Rectangle 315-2" class="cls-8" d="M366.83,448.48H475.39a6.83,6.83,0,0,1,6.83,6.83h0a6.83,6.83,0,0,1-6.83,6.83H366.83a6.83,6.83,0,0,1-6.83-6.83h0A6.83,6.83,0,0,1,366.83,448.48Z"/><path id="Rectangle_319" data-name="Rectangle 319" class="cls-8" d="M366.83,470.05h61.11a6.83,6.83,0,0,1,6.83,6.83h0a6.83,6.83,0,0,1-6.83,6.83H366.83a6.83,6.83,0,0,1-6.83-6.83h0A6.83,6.83,0,0,1,366.83,470.05Z"/><path id="Rectangle_305-2" data-name="Rectangle 305-2" class="cls-8" d="M366.83,321.23H526.44a6.83,6.83,0,0,1,6.83,6.83h0a6.83,6.83,0,0,1-6.83,6.83H366.83a6.83,6.83,0,0,1-6.83-6.83h0A6.83,6.83,0,0,1,366.83,321.23Z"/><path id="Rectangle_306-2" data-name="Rectangle 306-2" class="cls-8" d="M366.83,342.43h96.34a6.83,6.83,0,0,1,6.83,6.83h0a6.83,6.83,0,0,1-6.83,6.83H366.83a6.83,6.83,0,0,1-6.83-6.83h0A6.83,6.83,0,0,1,366.83,342.43Z"/></g></g></g></g></svg>