<svg xmlns="http://www.w3.org/2000/svg" viewBox="0 0 279.29 242.83"><defs><style>.cls-1{fill:#f8d300;}.cls-2{fill:#fff;}</style></defs><title>Brand_m</title><g id="Слой_2" data-name="Слой 2"><g id="Слой_1-2" data-name="Слой 1"><path id="Path_6" data-name="Path 6" class="cls-1" d="M199.29,242.83a3.41,3.41,0,0,0,1.7-.45,3.79,3.79,0,0,0,1.88-3.3V185.72c31.31-17.06,48.52-46.91,48.52-84.32,0-57.81-50.75-101.4-118-101.4s-118,43.59-118,101.4,50.74,101.39,118,101.39c2.22,0,4.38-.13,6.56-.25H140l57.28,39.68A3.39,3.39,0,0,0,199.29,242.83Z"/><path id="Path_2235-3" data-name="Path 2235-3" class="cls-2" d="M272.07,136.47c-4.4,0-7-2.25-7.22-5.5h4.21c0,1.08.6,2.52,3.2,2.61,1.8,0,2.8-1.08,2.8-1.89-.2-1.26-1.8-1.35-3.4-1.63a16.59,16.59,0,0,1-4.21-1.07,4.34,4.34,0,0,1-2.2-3.88c0-2.89,2.41-5.14,6.62-5.14,4,0,6.61,2.07,6.8,5.23h-4c0-.81-.2-2.17-2.6-2.17-1.6,0-2.6.27-2.8,1.44,0,1.63,3.4,1.54,6,2.17,2.4.63,4,2.16,4,4.33,0,4-3.2,5.5-7.22,5.5"/><path id="Path_2236-3" data-name="Path 2236-3" class="cls-2" d="M195.37,109.85l13.82-8,7.41,12.72H198"/><path id="Path_2239-3" data-name="Path 2239-3" class="cls-2" d="M246.84,114.54,227.61,81l13.82-8.12,24,41.66"/><path id="Path_2241-3" data-name="Path 2241-3" class="cls-2" d="M211.59,95.52l14-7.93,15.42,27H226.41v4h-4v-4"/><path id="Path_2242-3" data-name="Path 2242-3" class="cls-2" d="M276.69,118.63a2,2,0,1,1,0-4,1.94,1.94,0,0,1,2,1.89v.09a2,2,0,0,1-1.91,2h-.09m0-3.69a1.61,1.61,0,0,0-1.61,1.61v.1a1.61,1.61,0,0,0,1.51,1.71h.1a1.62,1.62,0,0,0,1.6-1.63v-.09a1.6,1.6,0,0,0-1.51-1.7h-.09"/><path id="Path_2243-3" data-name="Path 2243-3" class="cls-2" d="M277.1,117.73l-.4-.9h-.4v.9H276v-2.16h.9a.71.71,0,0,1,.6.63.65.65,0,0,1-.4.63l.4.9m-.8-1.89h-.4v.72h.4c.4,0,.4-.09.4-.35s0-.36-.4-.36"/><path id="Path_2244-3" data-name="Path 2244-3" class="cls-2" d="M250.23,128.21a4.57,4.57,0,0,0,4.56,4.59h.05a4.68,4.68,0,0,0,4.6-4.59,4.76,4.76,0,0,0-4.6-4.6,4.64,4.64,0,0,0-4.61,4.6m4.4,8.29a8.2,8.2,0,0,1-8.2-8.2v-.09a8.12,8.12,0,0,1,8-8.2h.16a8.08,8.08,0,0,1,4.81,1.44v-1.26h3.81v15.95h-3.81v-1a8.66,8.66,0,0,1-4.8,1.35"/><path id="Path_2245-3" data-name="Path 2245-3" class="cls-2" d="M231.81,128.21a4.7,4.7,0,0,0,4.61,4.59,4.57,4.57,0,0,0,4.61-4.54v0a4.64,4.64,0,0,0-4.61-4.6,4.78,4.78,0,0,0-4.61,4.6M241,114.68h4v21.45h-4v-1a7.59,7.59,0,0,1-4.61,1.36,8.25,8.25,0,1,1,0-16.49h0a7.19,7.19,0,0,1,4.61,1.43Z"/><g id="Path_2559" data-name="Path 2559"><rect class="cls-2" x="222.43" y="119.95" width="4" height="16.06"/></g><path id="Path_2560-2" data-name="Path 2560-2" class="cls-2" d="M207.38,128.21a4.58,4.58,0,0,0,4.56,4.59H212a4.71,4.71,0,0,0,4.61-4.59,4.77,4.77,0,0,0-4.61-4.6,4.64,4.64,0,0,0-4.61,4.6m4.41,8.29a8.2,8.2,0,0,1-8.21-8.19v-.1a8.12,8.12,0,0,1,8-8.2h.17a8.14,8.14,0,0,1,4.81,1.43v-6.76h4v21.45h-4v-1a8.64,8.64,0,0,1-4.81,1.36"/><path id="Path_2561-2" data-name="Path 2561-2" class="cls-2" d="M189,128.21a4.7,4.7,0,0,0,4.6,4.59,4.56,4.56,0,0,0,4.61-4.53v-.06a4.62,4.62,0,0,0-4.61-4.6,4.78,4.78,0,0,0-4.6,4.6m4.4,8.29a8.25,8.25,0,0,1,0-16.49,8.08,8.08,0,0,1,4.81,1.44v-1.26h4v15.95h-4v-1a8.18,8.18,0,0,1-4.8,1.35"/><path id="path18-3" class="cls-2" d="M174.58,40.19h11.13V51.55H174.58Z"/><path id="path20-3" class="cls-2" d="M199.47,19.07h1.19c7.7,0,11.29,4.43,12.79,16.24l2.39-.11-.32-18.74H176.34L176,35.2l2.29.11c.4-4.43.88-6.81,1.91-9.2a10.88,10.88,0,0,1,10.34-7h1.67V59.84c0,4.32-.24,5.68-1.2,6.7-.79.8-2.38,1.14-4.21,1.14h-1.83v2.73H206.7V67.68h-1.84c-1.81,0-3.41-.34-4.2-1.14-.95-1-1.19-2.38-1.19-6.7V19.07"/><path id="path22-3" class="cls-2" d="M206.06,40.19h11.13V51.55H206.06Z"/><path id="path2235-3" class="cls-2" d="M75.83,130.24H72.62l-2.83,3.15.45-3.15H67.83l-1.68,8.93h2.53l.67-3.34,2.26,3.34h3.32l-3.24-4.68Zm-12.11,0L63,135.85l-3.42-5.6H57.14L56,139.2h2.4l.61-5.57,3.42,5.55H65l1.07-8.9Zm-10.58.05H50.7l-4.62,8.85h2.59l.79-1.56h2.93l.44,1.58h2.39Zm-2.84,5.42,1.1-2.34.52,2.34Zm-5.18-1.41c1.76-1.63.86-4.08-1-4.1l-3.75,0-1.51,8.89h4.27C46,139.17,47.18,135.57,45.12,134.34Zm-2.56-2H43c1.09,0,.56,1.26-.35,1.2h-.3Zm.19,4.66h-1l.3-1.47h1C43.75,135.58,43.88,137.1,42.75,137.05Zm50.29-16v-.45H90.87v6h2.27V123c.06-.91,1.86-1.07,1.87,0v3.66H97.3v-3.75C97.25,120.76,95,119.74,93,121.07Zm-11.62,1.79c-1.4-.2-1.26-.48-1.28-.64s.84-.3,1.74,0l.71-1.46a6.58,6.58,0,0,0-2.41-.34c-2.21,0-3,2.6-1.63,3.44.75.57,2,.33,1.9,1s-1.13.23-2.23-.32l-.78,1.57a5.3,5.3,0,0,0,2.39.7C83.34,127.08,83.51,123.19,81.42,122.86Zm4.68,2.21a1.22,1.22,0,0,1-.59-1.07H90c0-2.44-1.28-3.59-3.36-3.59a3.18,3.18,0,0,0-3.35,3,1.93,1.93,0,0,0,0,.24,3.24,3.24,0,0,0,3.31,3.15h0c2.09,0,2.86-.88,3.31-2.13H87.78A1.22,1.22,0,0,1,86.1,125.07Zm1.43-2.49H85.81C85.84,121.85,87.42,121.85,87.53,122.58Zm-17.91,2.49A1.22,1.22,0,0,1,69,124h4.44c0-2.44-1.3-3.59-3.36-3.59a3.18,3.18,0,0,0-3.35,3,1.93,1.93,0,0,0,0,.24,3.24,3.24,0,0,0,3.31,3.15h0c2.08,0,2.84-.88,3.29-2.13H71.3A1.22,1.22,0,0,1,69.62,125.07Zm1.43-2.49H69.33C69.35,121.85,70.94,121.85,71.05,122.58Zm-6-1.93v-1.34c0-.49,1.11-.69,1.51-.29v-2c-2.22-.7-4,.55-4,2.5v1.05H60.52v-1.31c0-.49,1-.69,1.56-.29v-2c-1.93-.58-4,.36-4,2.48v1.06h-.73v1.91h.83v4.08h2.34v-4.08h2.2v4.08h2.42V122.5h1.51v-1.85Zm10.2-3.45A1.27,1.27,0,0,0,74,118.48h0a1.28,1.28,0,1,0,1.27-1.29Zm-1.2,3.42v6H76.5v-6ZM55.7,117.2A1.28,1.28,0,1,0,57,118.48,1.28,1.28,0,0,0,55.7,117.2Zm-1.22,3.42v6h2.43v-6Zm-1.2,6v-6H51V121a2.94,2.94,0,0,0-1.72-.55,3.2,3.2,0,0,0,0,6.39,2.94,2.94,0,0,0,1.72-.55v.37Zm-3.6-1.71a1.38,1.38,0,0,1-1.29-1.3,1.33,1.33,0,0,1,1.37-1.3,1.35,1.35,0,0,1,1.39,1.3A1.39,1.39,0,0,1,49.68,124.9Zm-6.07-1.73a2.7,2.7,0,0,0-1.2-5.18H39v8.62h2.33v-2.8l2,2.8h2.75Zm-1.47-1.38h-.82v-1.91h.82A1,1,0,0,1,42.14,121.79Z"/><path id="Subtraction_1-3" data-name="Subtraction 1-3" class="cls-2" d="M33.06,144.53H0V111.47H33.06ZM1,112.43v31.14H32.1V112.43Z"/><path id="path2233-3" class="cls-2" d="M2.61,137.28l4.06,4.14,9.52-9.65L26,141.62l4.13-4.08-9.74-9.74L22.28,126v-3.86l1.17-1v3L25,125.39l4.52-4.52L30.94,122c.86-3.17-4.1-10.36-8.2-6.37L18,120.36l1,1.17-2.43,2.37-2.35-2.31,1.23-1.11-5.24-5.06c-3.94-3.25-8,1.69-8.12,6.51l1.43-1.19,4.4,4.74,1.57-1.32v-2.91l1,.74v3.8l1.91,1.91Z"/><path id="Path_2246-3" data-name="Path 2246-3" class="cls-2" d="M128.25,86.52l-3.9-6.84a5,5,0,0,0-2.17-9.47h-8.33V86.52h3.71V80.19h3l3.61,6.33ZM117.5,77V73.36h4a1.84,1.84,0,0,1,2,1.71.49.49,0,0,1,0,.12,1.9,1.9,0,0,1-2,1.84h-4ZM98.72,86.52V70.21H110.9v3.11h-8.38v3.26h7.35v3.18h-7.35v3.48h8.8v3.28Zm-17.38,0-3.9-6.84a5,5,0,0,0-2.17-9.47H66.94V86.52h3.71V80.19H73.6l3.61,6.33ZM70.59,77V73.36h4a1.84,1.84,0,0,1,2,1.71.49.49,0,0,1,0,.12,1.91,1.91,0,0,1-2,1.84h-4ZM57.07,86.92c4.46,0,7.12-2.57,7.12-6.86V70.22H60.38V79.8c0,2.33-1.21,3.66-3.31,3.66h0c-2.11,0-3.32-1.33-3.32-3.66V70.22H49.94v9.84c0,4.29,2.67,6.86,7.13,6.86ZM45,77.48a4.62,4.62,0,0,1-1.33,9h-9V70.21h8.29a3.93,3.93,0,0,1,2,7.27h0Zm-6.6,6h4.16a1.91,1.91,0,1,0,.15-3.81H38.37Zm3-6.85A1.68,1.68,0,0,0,43.12,75s0,0,0,0a1.7,1.7,0,0,0-1.71-1.68h-3v3.37Z"/><path id="Path_2247-3" data-name="Path 2247-3" class="cls-2" d="M93.4,77.48a4.62,4.62,0,0,1-1.33,9h-9V70.2h8.29a3.94,3.94,0,0,1,2,7.28Zm-6.6,6H91a1.91,1.91,0,1,0,.15-3.81H86.8Zm3-6.85A1.69,1.69,0,0,0,91.56,75v0a1.72,1.72,0,0,0-1.72-1.68h-3v3.37Z"/><path id="Path_2248-3" data-name="Path 2248-3" class="cls-2" d="M144.38,86.52l-3.9-6.84a5,5,0,0,0-2.17-9.47H130V86.52h3.71V80.19h2.95l3.6,6.33h4.14ZM133.63,77V73.36h4a1.86,1.86,0,0,1,2,1.71v.12a1.9,1.9,0,0,1-2,1.84h-4Zm16.16,9.48V79.87l-6.47-9.66h4.76l3.72,5.61,3.74-5.61h4.75l-6.48,9.66v6.65Z"/><path id="path10-3" class="cls-2" d="M118.63.17a18.88,18.88,0,0,0-15.1,6.65A8.58,8.58,0,0,0,102,4.49C99.3,1.47,95,.05,89.21.05a20.79,20.79,0,0,0-13.6,4.53C73.92,1.83,69.85,0,65,0c-6.35,0-13.3.91-17.43,7.54-.08-2.39-.32-3.66-1.65-5.08C44.27.75,41.62.28,39.06.28A11.85,11.85,0,0,0,28.3,6.51c-3.69,5.86-12.62,25.22-12.41,34.6C16,47.17,20.08,51.53,27.35,51.7c5.67.15,10.14-1.37,13-4.23a14.72,14.72,0,0,0,11.06,4.38c5.18,0,10.37-1.57,13.44-5,2.61,3.17,6.68,5,11.9,5a21.5,21.5,0,0,0,16.8-8.26c2.16,5.86,7.63,8.2,13.6,8.2,13.09,0,18.85-9,23.64-23.24a54.89,54.89,0,0,0,2.75-13C133.9,8.1,130.75.18,118.63.18ZM31.56,36c6.78-1.19,8.47,1.27,8.26,3.51-.63,6.78-6.86,8.3-12.28,8.18-3.9-.09-7.44-1.89-7.54-6.44-.17-8,8-26.39,11.77-32.49,1.78-2.9,3.92-4.34,7.35-4.34,3.26,0,4.07,1.69,4,3.68C43,13.39,34.4,29.61,31.56,36ZM53.61,29.7q-1.14,3.16-2,6.44a21.92,21.92,0,0,1,6.73-.87c3.24.08,5.34,1.42,5.34,4.11,0,6.52-7.2,8.43-12.22,8.45-5.48,0-10.31-3.14-10.31-9.13,0-7.05,3.81-17.73,7.41-24.82C53,5.13,57.49,4,65.22,4c3.39,0,7.3,1.44,7.3,4.66,0,4.44-3.77,6.14-7.5,6.35a50.84,50.84,0,0,1-5.52.09,31.31,31.31,0,0,0-2.57,5.27c6.93-1,9.85.59,8.69,4.6-1.59,5.4-6.27,5.76-12,4.74ZM87.67,12.86a5,5,0,0,0-4,2.46c-2,2.84-6.35,14.12-7,18.76-.45,3.18.91,3.81,2.41,3.81,2.42,0,5.1-2.54,6-6.73,0,0-4.6-.11-3.33-4.17s3.56-4.79,7.42-5c7.6-.32,6.84,5.3,6.25,8.3-2,9.72-8.9,17.52-18.68,17.52-6.7,0-10.87-3.71-10.87-10.53,0-4.87,2.41-12.5,4.34-17C74.26,10.8,78.54,4.17,89.4,4.17c6.55,0,11.69,2.33,10.93,8.48-.55,4.47-2.8,7.11-6.88,7.41-1.15.11-5.8,0-4.26-4.45.55-1.54.76-2.75-1.52-2.75Zm41.08,8.05a64.58,64.58,0,0,1-6.54,17.53c-4.58,8.26-10.15,9.4-15,9.34s-10.33-1.84-10.37-9.34c0-5.38,2.3-13,4.27-18,3.43-9,7-16.39,18-16.26,12.92.15,10.63,11.65,9.61,16.67Zm-9.23-5.66c-.13,3.46-5.19,17.29-7,20.34-.78,1.31-1.65,2.41-3.24,2.41a2,2,0,0,1-2.06-1.93,1.21,1.21,0,0,1,0-.19c-.09-3.11,5.63-18.74,7.6-21.28a3,3,0,0,1,2.94-1.55c1.64,0,1.78,1.19,1.74,2.2Z"/><path id="Subtraction_2-3" data-name="Subtraction 2-3" class="cls-2" d="M129.4,156.55h0l-4.32-16.13v0a7.46,7.46,0,0,0,2.21-3.41,7.57,7.57,0,0,0-2.08-7.76,7.69,7.69,0,0,0-3.62-1.85h0l-4.32-16.13,45.3-12.14,4.32,16.13a7.53,7.53,0,0,0,3.5,13l4.32,16.12-45.3,12.14Zm17.87-50.71L120.5,113l3.32,12.37a10,10,0,0,1,6.43,9.15,9.68,9.68,0,0,1-.23,2.34,10,10,0,0,1-.77,2.19,10.39,10.39,0,0,1-1.24,2l3.26,12.14,13.38-3.58-2.7-10L155.34,136l-2.69-10-13.38,3.58-2.7-10L150,115.88Z"/><path id="лого-3" class="cls-2" d="M138.65,196.2a2.41,2.41,0,0,1-1.51.58c-.83,0-2.16-.75-2.16-2.77a2.54,2.54,0,0,1,1.69-2.44c.72-.4,1.33-.79,2-1.11v5.74Zm6.83.08a3.73,3.73,0,0,1-1.23.28c-.57,0-1.15-.46-1.15-2.12v-5.92c0-2-.32-3.56-1.86-4.75a5.64,5.64,0,0,0-3.53-1,17.81,17.81,0,0,0-6,2.55c-.83.61-1.26,1.08-1.26,1.73,0,.93,1.3,1.8,2.23,1.8a1.41,1.41,0,0,0,1.51-1.22,6.4,6.4,0,0,1,1-2.48,1.45,1.45,0,0,1,1.19-.65c1.33,0,2.19,1.26,2.19,3.52v1.08c-.83.72-3.59,1.58-5.71,2.37-1.87.68-2.73,1.58-2.73,3.45a4.67,4.67,0,0,0,4.76,4.6h.09c.68,0,2.37-1.19,3.73-2.08a3.27,3.27,0,0,0,.94,1.32,3.19,3.19,0,0,0,2.19.76l3.91-2-.35-1.15Zm-23.79-.11a3.22,3.22,0,0,1-2,.57c-1.66,0-4.2-1.68-4.24-6.1,0-5.46,2.76-6.4,3.63-6.4a2.83,2.83,0,0,1,2.58,1.86v10.06Zm4.6-1.65V173.78a50.44,50.44,0,0,1-7,1.3v1.11c2.19.25,2.4.43,2.4,2.37v4.35a14.11,14.11,0,0,0-1.47-.18c-5.6,0-9.84,4-9.84,8.87a7.56,7.56,0,0,0,7.27,7.87h0a3.49,3.49,0,0,0,1.84-.64l2.15-1.4v2.08a58.69,58.69,0,0,1,7.08-1.4V197l-.79-.07c-1.51-.18-1.69-.32-1.69-2.37ZM100,198.07c-2.27,0-3.67-3.48-3.67-7.9,0-4.13,1.44-6,2.95-6,2.26,0,3.52,2.76,3.52,7.76,0,5.28-1.44,6.18-2.8,6.18Zm-.25-15.34a8.48,8.48,0,0,0-8.56,8.4c0,.11,0,.22,0,.33,0,3.92,2.76,8,8.4,8,4.2,0,8.34-2.87,8.34-8.65a7.92,7.92,0,0,0-7.75-8.09Zm-12,12.72v-6.93c0-3.67-1.69-5.79-4.82-5.79a5.15,5.15,0,0,0-2.84,1c-.86.61-1.72,1.15-2.58,1.83a4.32,4.32,0,0,0-4.1-2.84,5.81,5.81,0,0,0-3.13,1.15c-.79.47-1.47,1-2.26,1.55v-2.77A59.45,59.45,0,0,1,61.65,184v1c1.66.25,1.84.61,1.84,2.66v7.54c0,2.27-.22,2.37-2.27,2.63v1.15h8.45V197.9c-1.37-.22-1.62-.4-1.62-2.45v-8.76a4.65,4.65,0,0,1,2.77-1.15c1.32,0,2.47.79,2.47,3.37v6.54c0,2.12-.14,2.19-1.83,2.45v1.15h8.3V197.9c-1.61-.22-1.87-.4-1.87-2.45v-7.26c0-.53-.07-1-.1-1.43a4.29,4.29,0,0,1,2.8-1.19c1.15,0,2.55.58,2.55,3.52v6.18c0,2.27-.29,2.41-1.87,2.63v1.15h8.48V197.9c-1.9-.29-2-.4-2-2.45Zm-33.13-5.32c-1.22,2.48-5.28,7.05-6.68,7.05-.5,0-1-.76-1-2.38,0-3.55,1.43-7.8,3.88-9.59a4.43,4.43,0,0,1,2.55-.75,6,6,0,0,1,2.41.5c-.26,1.15-.79,3.73-1.19,5.17Zm1.65,6.61c-.21,0-.32-.28-.07-1.54.83-4.57,1.9-9.45,2.48-11.68l-.11-.14a6.89,6.89,0,0,1-1.36-.22,12,12,0,0,0-2.23-.25,11.31,11.31,0,0,0-6.68,2.77,13.23,13.23,0,0,0-4.32,9.73c0,2.88,1.15,4.06,2.09,4.06a5.94,5.94,0,0,0,3.34-1.61,25.92,25.92,0,0,0,4.63-5h.08l-.72,3.41c-.5,2.62,0,3.16.65,3.16.9,0,3.3-1.33,5.24-3.73l-.43-.87a7.74,7.74,0,0,1-2.59,1.87ZM42.69,173.46a40.32,40.32,0,0,1-5.32,1.26l-.14.86,1,0c1.65,0,1.86.25,1.5,1.8-1.22,5.93-2.47,11.82-3.73,17.71-.76,3.52-.18,4.35.5,4.35,1.11,0,3.66-1.62,5.53-3.85l-.54-.79a7.52,7.52,0,0,1-2.87,2c-.22,0-.36-.22-.15-1.26,1.51-7.11,3-14.08,4.46-21,.14-.75.11-1.07-.22-1.07Z"/></g></g></svg>