<svg xmlns="http://www.w3.org/2000/svg" viewBox="0 0 33.77 32.19"><defs><style>.cls-1{fill:#fff;}.cls-2{fill:#f8d300;}</style></defs><title>Ch_1</title><g id="Слой_2" data-name="Слой 2"><g id="Слой_1-2" data-name="Слой 1"><g id="Group_951" data-name="Group 951"><g id="Group_779" data-name="Group 779"><path id="Path_1577-8" data-name="Path 1577-8" class="cls-1" d="M13.71,32.19a.38.38,0,0,1-.39-.39V26.25A9.48,9.48,0,0,1,8,17.47c0-6,5.53-10.56,12.87-10.56s12.87,4.54,12.87,10.56S28.24,28,20.9,28l-.71,0h0l-6.24,4.13A.43.43,0,0,1,13.71,32.19Z"/><path id="Path_1578-8" data-name="Path 1578-8" class="cls-2" d="M16.48,21.75a.26.26,0,0,0,.15,0,.33.33,0,0,0,.17-.3V16.64a8.22,8.22,0,0,0,4.35-7.56C21.15,3.91,16.6,0,10.57,0S0,3.91,0,9.08s4.55,9.08,10.57,9.08l.59,0h0L16.3,21.7A.37.37,0,0,0,16.48,21.75Z"/></g></g></g></g></svg>