<svg xmlns="http://www.w3.org/2000/svg" viewBox="0 0 28.33 20.77"><defs><style>.cls-1{fill:#fff;}.cls-2{fill:#f8d300;}</style></defs><title>Ch_2</title><g id="Слой_2" data-name="Слой 2"><g id="Слой_1-2" data-name="Слой 1"><g id="Group_952" data-name="Group 952"><path id="play-button_1_3" data-name="play-button 1 3" class="cls-1" d="M15.11,10,.78.09A.49.49,0,0,0,.09.22.44.44,0,0,0,0,.49V20.27a.5.5,0,0,0,.49.5.52.52,0,0,0,.29-.09l14.33-9.89a.49.49,0,0,0,.13-.69A.37.37,0,0,0,15.11,10Z"/><path id="play-button_1_4" data-name="play-button 1 4" class="cls-2" d="M28.11,10,13.78.09a.49.49,0,0,0-.69.13A.44.44,0,0,0,13,.49V20.27a.5.5,0,0,0,.49.5.52.52,0,0,0,.29-.09l14.33-9.89a.49.49,0,0,0,.13-.69A.37.37,0,0,0,28.11,10Z"/></g></g></g></svg>