<svg xmlns="http://www.w3.org/2000/svg" viewBox="0 0 61.11 14.8"><defs><style>.cls-1{fill:#ccc;}.cls-2{fill:#fff;}.cls-3{fill:#f8d300;}</style></defs><title>Ch_3</title><g id="Слой_2" data-name="Слой 2"><g id="Слой_1-2" data-name="Слой 1"><g id="Group_949" data-name="Group 949"><path id="Path_2377-2" data-name="Path 2377-2" class="cls-1" d="M42.13,7a1,1,0,0,0-.44-.44L35.82,3.65a1,1,0,0,0-1.32.44,1,1,0,0,0-.1.43v2H26.58v-2a1,1,0,0,0-1-1,1,1,0,0,0-.44.11L19.29,6.58a1,1,0,0,0,0,1.75l5.87,2.94a1,1,0,0,0,1.42-.88v-2H34.4v2a1,1,0,0,0,1.42.87l5.87-2.93A1,1,0,0,0,42.13,7ZM24.62,8.81l-2.7-1.35,2.7-1.36Zm11.74,0V6.11l2.7,1.35Z"/><rect id="Rectangle_350-2" data-name="Rectangle 350-2" class="cls-2" width="14.68" height="14.68" rx="2" ry="2"/><circle id="Ellipse_30-2" data-name="Ellipse 30-2" class="cls-3" cx="53.71" cy="7.4" r="7.4"/></g></g></g></svg>