<svg xmlns="http://www.w3.org/2000/svg" viewBox="0 0 46.46 30"><defs><style>.cls-1{fill:#fff;}.cls-2{fill:#f8d300;}</style></defs><title>Ch_4</title><g id="Слой_2" data-name="Слой 2"><g id="Слой_1-2" data-name="Слой 1"><g id="Group_950" data-name="Group 950"><path id="like-2" class="cls-1" d="M11.66,12.23a6.15,6.15,0,0,1,5.62-3.81c3.39,0,5.83,2.9,6.14,6.36a6.49,6.49,0,0,1-.2,2.4A10.7,10.7,0,0,1,20,22.58L11.66,30,3.47,22.57a10.53,10.53,0,0,1-3.23-5.4,6.27,6.27,0,0,1-.2-2.4c.3-3.45,2.74-6.35,6.13-6.35A6,6,0,0,1,11.66,12.23Z"/><path id="star_2_2" data-name="star 2 2" class="cls-2" d="M38.12.55,40.2,4.77a1,1,0,0,0,.75.55L45.6,6a1,1,0,0,1,.85,1.13,1,1,0,0,1-.3.57L42.79,11a1,1,0,0,0-.29.88l.8,4.63a1,1,0,0,1-.81,1.15,1,1,0,0,1-.63-.1l-4.17-2.19a.94.94,0,0,0-.92,0L32.6,17.53a1,1,0,0,1-1.44-1l.8-4.64a1,1,0,0,0-.29-.88L28.3,7.69a1,1,0,0,1,0-1.41A1,1,0,0,1,28.85,6l4.66-.68a1,1,0,0,0,.74-.54L36.34.55A1,1,0,0,1,37.67.1,1,1,0,0,1,38.12.55Z"/></g></g></g></svg>