<svg xmlns="http://www.w3.org/2000/svg" viewBox="0 0 101.93 97.18"><defs><style>.cls-1{fill:#fff;}.cls-2{fill:#f8d300;}</style></defs><title>Chat_small</title><g id="Слой_2" data-name="Слой 2"><g id="Слой_1-2" data-name="Слой 1"><g id="Group_935" data-name="Group 935"><path id="Path_1577-6" data-name="Path 1577-6" class="cls-1" d="M41.38,97.18A1.18,1.18,0,0,1,40.21,96V79.23c-10.31-5.36-16-14.74-16-26.5,0-18.16,16.7-31.86,38.85-31.86s38.84,13.7,38.84,31.86S85.23,84.59,63.09,84.59c-.73,0-1.45,0-2.16-.07h0L42,97A1.16,1.16,0,0,1,41.38,97.18Z"/><path id="Path_1578-6" data-name="Path 1578-6" class="cls-2" d="M49.74,65.65a.93.93,0,0,0,.46-.12,1.06,1.06,0,0,0,.51-.89V50.21c8.46-4.61,13.11-12.69,13.11-22.8C63.82,11.78,50.1,0,31.91,0S0,11.78,0,27.41,13.72,54.82,31.91,54.82c.6,0,1.19,0,1.77-.06h0L49.21,65.48A.9.9,0,0,0,49.74,65.65Z"/></g></g></g></svg>