<svg xmlns="http://www.w3.org/2000/svg" viewBox="0 0 71.25 93.26"><defs><style>.cls-1{fill:#bbd4da;}.cls-2{fill:#e5eff2;}.cls-3{fill:#9f9ead;}.cls-4{fill:#d6e5e9;}.cls-5{fill:#f8d300;}.cls-6{fill:#fff;}.cls-7{fill:#3e3e3e;}</style></defs><title>Chat_simple</title><g id="Слой_2" data-name="Слой 2"><g id="Слой_1-2" data-name="Слой 1"><g id="Group_775" data-name="Group 775"><path id="Path_2370" data-name="Path 2370" class="cls-1" d="M0,39.53,68.69,0l2.56,1.54V53.6L2.55,93.26,0,91.72Z"/><path id="Path_2372" data-name="Path 2372" class="cls-2" d="M71.25,53.6V1.54L2.58,41.13l0,52.13Z"/><path id="Path_2373" data-name="Path 2373" class="cls-3" d="M2.55,64l17-9.7L25.6,30.16l45.65-26V49.84L2.55,89.5Z"/><path id="Path_2371" data-name="Path 2371" class="cls-4" d="M71.25,1.54,68.69,0,0,39.53l2.59,1.6Z"/><path id="Path_2374" data-name="Path 2374" class="cls-5" d="M8.08,51.57c0,3.2,1.95,4.67,4.35,3.28s4.34-5.1,4.34-8.3-1.94-4.67-4.34-3.28S8.08,48.37,8.08,51.57Z"/><g id="Group_772" data-name="Group 772"><path id="Path_1601-3" data-name="Path 1601-3" class="cls-6" d="M66.07,10.23,42.2,23.8V64.3L66.07,50.39Z"/><path id="Path_1617-3" data-name="Path 1617-3" class="cls-7" d="M45.37,28.46l17.3-9.6V16.47l-17.3,9.6Z"/><path id="Path_1621-3" data-name="Path 1621-3" class="cls-7" d="M45.37,53.16l17.3-9.6V41.17l-17.3,9.6Z"/><path id="Path_1619-3" data-name="Path 1619-3" class="cls-5" d="M45.37,40.67l17.3-9.6V28.68l-17.3,9.6Z"/><path id="Path_1618-3" data-name="Path 1618-3" class="cls-7" d="M45.37,33.68,58.71,26V23.63L45.37,31.29Z"/><path id="Path_1622-3" data-name="Path 1622-3" class="cls-7" d="M45.37,58.37l13.34-7.66V48.33L45.37,56Z"/><path id="Path_1620-3" data-name="Path 1620-3" class="cls-5" d="M49.3,43.58l13.35-7.66V33.54L49.3,41.2Z"/></g></g></g></g></svg>