<svg xmlns="http://www.w3.org/2000/svg" viewBox="0 0 222.02 211.67"><defs><style>.cls-1{fill:#fff;}.cls-2{fill:#f8d300;}</style></defs><title>Chat_big</title><g id="Слой_2" data-name="Слой 2"><g id="Слой_1-2" data-name="Слой 1"><g id="Group_926" data-name="Group 926"><path id="Path_1577-5" data-name="Path 1577-5" class="cls-1" d="M90.13,211.67a2.56,2.56,0,0,1-2.56-2.56V172.58c-22.45-11.67-34.78-32.11-34.78-57.71,0-39.57,36.37-69.41,84.62-69.41S222,75.3,222,114.87s-36.37,69.4-84.61,69.4c-1.59,0-3.14-.09-4.7-.17h-.1L91.54,211.25A2.49,2.49,0,0,1,90.13,211.67Z"/><path id="Path_1578-5" data-name="Path 1578-5" class="cls-2" d="M108.34,143a2,2,0,0,0,1-.26,2.24,2.24,0,0,0,1.11-2V109.36C128.89,99.32,139,81.74,139,59.71,139,25.67,109.14,0,69.51,0S0,25.67,0,59.71s29.88,59.71,69.51,59.71c1.3,0,2.58-.08,3.86-.15h.08l33.73,23.37A2.09,2.09,0,0,0,108.34,143Z"/></g></g></g></svg>