<svg xmlns="http://www.w3.org/2000/svg" viewBox="0 0 131.58 125.45"><defs><style>.cls-1{fill:#fff;}.cls-2{fill:#f8d300;}</style></defs><title>Chat_medium</title><g id="Слой_2" data-name="Слой 2"><g id="Слой_1-2" data-name="Слой 1"><g id="Group_937" data-name="Group 937"><path id="Path_1577-7" data-name="Path 1577-7" class="cls-1" d="M53.42,125.45a1.53,1.53,0,0,1-1.52-1.52V102.28c-13.3-6.92-20.61-19-20.61-34.21,0-23.45,21.56-41.13,50.15-41.13s50.14,17.68,50.14,41.13S110,109.2,81.44,109.2c-.94,0-1.86,0-2.79-.1h-.06L54.26,125.2A1.56,1.56,0,0,1,53.42,125.45Z"/><path id="Path_1578-7" data-name="Path 1578-7" class="cls-2" d="M64.21,84.75a1.21,1.21,0,0,0,.59-.16,1.33,1.33,0,0,0,.66-1.15V64.81c10.93-6,16.93-16.37,16.93-29.42C82.39,15.21,64.68,0,41.19,0S0,15.21,0,35.39,17.71,70.77,41.19,70.77c.78,0,1.53,0,2.29-.08h.05l20,13.84A1.2,1.2,0,0,0,64.21,84.75Z"/></g></g></g></svg>