<svg xmlns="http://www.w3.org/2000/svg" viewBox="0 0 140 143.94"><defs><style>.cls-1{fill:#155c92;}.cls-2{fill:#1a6fb0;}.cls-3{fill:#1d81cd;}.cls-4{fill:#3d99e2;}.cls-5{fill:#5aaae7;}.cls-6{fill:#3d5a98;}.cls-26,.cls-27,.cls-7{fill:#fff;}.cls-8{fill:#7f33ad;}.cls-9{fill:#943ec7;}.cls-10{fill:#a258cb;}.cls-11{fill:#b77fda;}.cls-12{fill:#d5b4e9;}.cls-13{fill:#6f75e3;}.cls-14{fill:#7c84e7;}.cls-15{fill:#989fed;}.cls-16{fill:#a8adef;}.cls-17{fill:#c5c8f5;}.cls-18{fill:#78baec;}.cls-19{fill:#97c7ef;}.cls-20{fill:#b3d8f5;}.cls-21{fill:#9f9ead;}.cls-22{fill:#e3e3e3;}.cls-23{fill:#d1d1d1;}.cls-24{fill:#3e3e3e;}.cls-25{fill:#f8d300;}.cls-26{opacity:0.26;}.cls-26,.cls-27{isolation:isolate;}.cls-27{opacity:0.49;}</style></defs><title>Chat_social_m</title><g id="Слой_2" data-name="Слой 2"><g id="Слой_1-2" data-name="Слой 1"><g id="Group_938" data-name="Group 938"><g id="_001-facebook-2" data-name=" 001-facebook-2"><path id="Path_2198-2" data-name="Path 2198-2" class="cls-1" d="M107.21,32.66l-12.9-7.45a2,2,0,0,0-2.08-.2l-3.64,2.11h0A2.09,2.09,0,0,0,87.73,29l0,14.82a6.48,6.48,0,0,0,2.92,5.06l12.9,7.44a2,2,0,0,0,2.13.18l0,0,3.64-2.12a2,2,0,0,0,.85-1.88l0-14.82A6.44,6.44,0,0,0,107.21,32.66Z"/><g id="Group_698-2" data-name="Group 698-2"><path id="Path_2199-2" data-name="Path 2199-2" class="cls-2" d="M109.24,54.42l-3.64,2.12a2,2,0,0,0,.85-1.88l3.64-2.12A2.07,2.07,0,0,1,109.24,54.42Z"/><g id="Group_697-2" data-name="Group 697-2"><path id="Path_2200-2" data-name="Path 2200-2" class="cls-3" d="M88.59,27.12,92.23,25a2,2,0,0,1,2.08.2l-3.63,2.12A2.07,2.07,0,0,0,88.59,27.12Z"/><path id="Path_2201-2" data-name="Path 2201-2" class="cls-3" d="M106.49,39.83l3.64-2.11,0,14.82-3.64,2.11Z"/></g><path id="Path_2202-2" data-name="Path 2202-2" class="cls-4" d="M90.67,27.33l3.64-2.12,12.9,7.45-3.64,2.12Z"/><path id="Path_2203-2" data-name="Path 2203-2" class="cls-5" d="M103.57,34.78l3.64-2.12a6.4,6.4,0,0,1,2.92,5.06l-3.64,2.12A6.4,6.4,0,0,0,103.57,34.78Z"/></g><g id="Group_699-2" data-name="Group 699-2"><path id="Path_2204-2" data-name="Path 2204-2" class="cls-6" d="M95.27,43.25V40l2.43,1.4V39c0-2.77,1.48-3.43,3.64-2.19,1,.6,1.91,1.2,2.17,1.38v2.9L102,40.26c-1.17-.67-1.4-.16-1.4.77V43.1l2.79,1.61-.37,3-2.43-1.4,0,8.31L97.68,53l0-8.31-2.44-1.4"/><path id="Path_2205-2" data-name="Path 2205-2" class="cls-7" d="M97.72,39.1v2.39l-2.43-1.4v3.23l2.43,1.4,0,8.24,2.91,1.68,0-8.24L103,47.8l.37-3-2.79-1.61V41.1c0-.94.23-1.45,1.4-.77l1.49.86v-2.9c-.26-.19-1.15-.79-2.18-1.38C99.2,35.67,97.73,36.33,97.72,39.1Z"/></g></g><g id="_002-viber-2" data-name=" 002-viber-2"><path id="Path_2206-2" data-name="Path 2206-2" class="cls-8" d="M137.08,32.66l-12.9-7.45a2.05,2.05,0,0,0-2.08-.2l-3.64,2.11h0A2.06,2.06,0,0,0,117.6,29l0,14.82a6.46,6.46,0,0,0,2.92,5.06l12.9,7.44a2,2,0,0,0,2.13.18l0,0,3.64-2.12a2.05,2.05,0,0,0,.85-1.88l0-14.82A6.43,6.43,0,0,0,137.08,32.66Z"/><g id="Group_701-2" data-name="Group 701-2"><path id="Path_2207-2" data-name="Path 2207-2" class="cls-9" d="M139.1,54.42l-3.64,2.12a2.06,2.06,0,0,0,.86-1.88L140,52.54A2.06,2.06,0,0,1,139.1,54.42Z"/><g id="Group_700-2" data-name="Group 700-2"><path id="Path_2208-2" data-name="Path 2208-2" class="cls-10" d="M118.46,27.12,122.1,25a2.05,2.05,0,0,1,2.08.2l-3.64,2.12A2,2,0,0,0,118.46,27.12Z"/><path id="Path_2209-2" data-name="Path 2209-2" class="cls-10" d="M136.36,39.83,140,37.72l0,14.82-3.64,2.11Z"/></g><path id="Path_2210-2" data-name="Path 2210-2" class="cls-11" d="M120.54,27.33l3.64-2.12,12.9,7.45-3.64,2.12Z"/><path id="Path_2211-2" data-name="Path 2211-2" class="cls-12" d="M133.44,34.78l3.64-2.12A6.43,6.43,0,0,1,140,37.72l-3.64,2.12A6.43,6.43,0,0,0,133.44,34.78Z"/></g><g id="Group_702-2" data-name="Group 702-2"><path id="Path_2212-2" data-name="Path 2212-2" class="cls-7" d="M123.35,34.08A.89.89,0,0,0,123,34c-1.29-.25-1.82.65-1.32,2.38a30.94,30.94,0,0,0,7.57,13.1,3.78,3.78,0,0,0,.9.74,1.13,1.13,0,0,0,1.59-.15,1.15,1.15,0,0,0,.24-.51,1.3,1.3,0,0,0,0-.78,13.81,13.81,0,0,0-2.67-3.8l0,0a.58.58,0,0,0-.8.15l0,0a.57.57,0,0,1-.79.09,2.74,2.74,0,0,1-.6-.52,10.22,10.22,0,0,1-2.32-4c-.24-.75-.23-1.3.32-1.42.3-.06.59-.16.57-.67a13.87,13.87,0,0,0-1.95-4.2,1.64,1.64,0,0,0-.33-.26"/><path id="Path_2213-2" data-name="Path 2213-2" class="cls-7" d="M127.69,36.49a5.59,5.59,0,0,0-.65-.32c-.2-.08-.34.06-.31.31a.79.79,0,0,0,.36.56l.06,0a3.82,3.82,0,0,1,.54.26l.31.2a8.09,8.09,0,0,1,2.36,2.64,7.82,7.82,0,0,1,1.07,3.22,4.41,4.41,0,0,1,0,1,.77.77,0,0,0,.3.66l.06,0c.18.1.33.05.36-.14a5.1,5.1,0,0,0,0-1.17,9.33,9.33,0,0,0-1.28-3.87,9.64,9.64,0,0,0-2.81-3.15l-.37-.23"/><path id="Path_2214-2" data-name="Path 2214-2" class="cls-7" d="M127.69,37.89l-.38-.19c-.2-.08-.34,0-.32.29a.82.82,0,0,0,.37.58l0,0a1.59,1.59,0,0,1,.29.15,2.12,2.12,0,0,1,.2.12,5.63,5.63,0,0,1,1.6,1.8,5.32,5.32,0,0,1,.72,2.15,2.9,2.9,0,0,1,0,.51.79.79,0,0,0,.31.65l.05,0c.18.1.34,0,.36-.16a3.84,3.84,0,0,0,0-.68,6.74,6.74,0,0,0-.93-2.79,7,7,0,0,0-2.06-2.3l-.26-.17"/><path id="Path_2215-2" data-name="Path 2215-2" class="cls-7" d="M127.68,39.29l-.07,0c-.2-.11-.36,0-.35.24a.8.8,0,0,0,.36.61h0l0,0,.1.07a3.1,3.1,0,0,1,1.22,2v.16a.8.8,0,0,0,.34.65h0c.19.11.35,0,.37-.18v-.29a4.74,4.74,0,0,0-1.88-3.19l-.17-.1"/></g></g><g id="_003-vk-2" data-name=" 003-vk-2"><path id="Path_2216-2" data-name="Path 2216-2" class="cls-13" d="M103.39,73.11l-12.9-7.45a2.07,2.07,0,0,0-2.09-.2l-3.64,2.11h0a2,2,0,0,0-.86,1.88l0,14.82a6.4,6.4,0,0,0,2.92,5.06l12.9,7.45a2,2,0,0,0,2.13.18l0,0,3.64-2.12a2,2,0,0,0,.86-1.88l0-14.82A6.43,6.43,0,0,0,103.39,73.11Z"/><g id="Group_703-2" data-name="Group 703-2"><path id="Path_2217-2" data-name="Path 2217-2" class="cls-7" d="M93.83,78.4l-2.16-1.25c-.29-.17-.43-.12-.59,0s-.11.13.07.28a1.62,1.62,0,0,1,.61,1.11,9.65,9.65,0,0,1,0,2,1.46,1.46,0,0,1-.12.5c-.06.14-.15.17-.26.11a.84.84,0,0,1-.23-.23A5.1,5.1,0,0,1,90.7,80a25.7,25.7,0,0,1-1.26-3.44,1.23,1.23,0,0,0-.52-.74L88,75.31c-.31-.18-.62-.36-.94-.53s-.49-.07-.33.41a51.46,51.46,0,0,0,2.41,6.37,14.56,14.56,0,0,0,1.84,3,8.29,8.29,0,0,0,2.41,2.08l.33.18c.45.24.59.18.61-.32a1.79,1.79,0,0,1,.2-.91.24.24,0,0,1,.32-.11l0,0a1,1,0,0,1,.29.28,3.87,3.87,0,0,1,.34.55c.26.47.5.94.76,1.4a3.17,3.17,0,0,0,1.1,1.2l.12.07,1.92,1.11c.31.15.47-.19.29-.69a7.89,7.89,0,0,0-.46-1c-.39-.76-.85-1.49-1.28-2.23s-.42-.94-.1-1.26.72-.68,1.07-1a3,3,0,0,0,.83-1.17c.11-.33,0-.56-.34-.83a.94.94,0,0,0-.18-.12l-2.09-1.21h0c-.25-.14-.39-.09-.48.11a6.21,6.21,0,0,1-.4.82A3.89,3.89,0,0,1,95,83c-.1.06-.2.15-.35.06L94.59,83a1.45,1.45,0,0,1-.3-.89V79.31a1.16,1.16,0,0,0-.46-.92"/></g><g id="Group_705-2" data-name="Group 705-2"><path id="Path_2218-2" data-name="Path 2218-2" class="cls-14" d="M105.41,94.87,101.77,97a2.06,2.06,0,0,0,.86-1.88L106.27,93A2.08,2.08,0,0,1,105.41,94.87Z"/><g id="Group_704-2" data-name="Group 704-2"><path id="Path_2219-2" data-name="Path 2219-2" class="cls-15" d="M84.76,67.57l3.64-2.11a2.07,2.07,0,0,1,2.09.2l-3.64,2.11A2.07,2.07,0,0,0,84.76,67.57Z"/><path id="Path_2220-2" data-name="Path 2220-2" class="cls-15" d="M102.67,80.28l3.64-2.11,0,14.82-3.64,2.11Z"/></g><path id="Path_2221-2" data-name="Path 2221-2" class="cls-16" d="M86.85,67.77l3.64-2.11,12.89,7.45-3.64,2.11Z"/><path id="Path_2222-2" data-name="Path 2222-2" class="cls-17" d="M99.75,75.22l3.64-2.11a6.45,6.45,0,0,1,2.92,5.06l-3.64,2.11A6.47,6.47,0,0,0,99.75,75.22Z"/></g></g><g id="_004-telegram-2" data-name=" 004-telegram-2"><path id="Path_2223-2" data-name="Path 2223-2" class="cls-4" d="M133.25,73.11l-12.89-7.45a2.07,2.07,0,0,0-2.09-.2l-3.64,2.11h0a2,2,0,0,0-.86,1.88l0,14.82a6.44,6.44,0,0,0,2.93,5.06l12.9,7.45a2,2,0,0,0,2.13.18l-.05,0,3.64-2.12a2.07,2.07,0,0,0,.86-1.88l0-14.82A6.44,6.44,0,0,0,133.25,73.11Z"/><g id="Group_707-2" data-name="Group 707-2"><path id="Path_2224-2" data-name="Path 2224-2" class="cls-5" d="M135.28,94.87,131.64,97a2,2,0,0,0,.85-1.88L136.13,93A2,2,0,0,1,135.28,94.87Z"/><g id="Group_706-2" data-name="Group 706-2"><path id="Path_2225-2" data-name="Path 2225-2" class="cls-18" d="M114.63,67.57l3.64-2.11a2.07,2.07,0,0,1,2.09.2l-3.64,2.11A2.07,2.07,0,0,0,114.63,67.57Z"/><path id="Path_2226-2" data-name="Path 2226-2" class="cls-18" d="M132.54,80.28l3.64-2.11L136.13,93l-3.64,2.11Z"/></g><path id="Path_2227-2" data-name="Path 2227-2" class="cls-19" d="M116.72,67.77l3.64-2.11,12.89,7.45-3.64,2.11Z"/><path id="Path_2228-2" data-name="Path 2228-2" class="cls-20" d="M129.61,75.22l3.64-2.11a6.44,6.44,0,0,1,2.93,5.06l-3.64,2.11A6.45,6.45,0,0,0,129.61,75.22Z"/></g><g id="Group_708-2" data-name="Group 708-2"><path id="Path_2229-2" data-name="Path 2229-2" class="cls-7" d="M121.21,85a.32.32,0,0,1-.14-.2l-.6-2.8c-.07-.32,0-.56.25-.59l5.62-.73h0c.08,0,.14.2.07.24l-4.65,2.26a.62.62,0,0,0-.3.49l-.16,1.26a.08.08,0,0,1-.14.06m7.63-5.47a.31.31,0,0,0-.12,0l-11.8-1.58c-.3,0-.29.44,0,.73l2.87,2.89,1.1,4.75a.69.69,0,0,0,.32.46.23.23,0,0,0,.21,0l1.61-.58a.4.4,0,0,1,.3.06.86.86,0,0,1,.28.26l2.88,4.08a.61.61,0,0,0,.2.19c.15.09.3,0,.33-.12l2.15-10.47a.74.74,0,0,0-.33-.66"/></g></g><g id="Group_904" data-name="Group 904"><g id="Group_647-2" data-name="Group 647-2"><path id="Path_1599-2" data-name="Path 1599-2" class="cls-21" d="M6.82,28.43,55.14.76a5.58,5.58,0,0,1,5.69,0h0l8,4.75h0a5.59,5.59,0,0,1,3.61,5.25v93a13.63,13.63,0,0,1-6.82,11.81l-48.32,27.6a5.57,5.57,0,0,1-5.26.19l0,.06-9.13-5.38h0A5.57,5.57,0,0,1,0,133.15V40.25A13.63,13.63,0,0,1,6.82,28.43Z"/><path id="Path_1600-2" data-name="Path 1600-2" class="cls-22" d="M72.41,103.77v-93A5.65,5.65,0,0,0,64,5.91L15.63,33.58A13.64,13.64,0,0,0,8.81,45.39v92.9a5.63,5.63,0,0,0,8.46,4.88l48.32-27.6A13.62,13.62,0,0,0,72.41,103.77Z"/><path id="Path_1601-2" data-name="Path 1601-2" class="cls-7" d="M66.36,13.88,16.9,42v83.9L66.36,97.08Z"/><path id="Path_1614-2" data-name="Path 1614-2" class="cls-23" d="M39.16,122.22c0,3.09,1.88,4.5,4.19,3.17s4.19-4.92,4.19-8-1.88-4.5-4.19-3.17S39.16,119.14,39.16,122.22Z"/><path id="Path_1617-2" data-name="Path 1617-2" class="cls-24" d="M23.48,51.65l35.84-19.9V26.81L23.48,46.71Z"/><path id="Path_1621-2" data-name="Path 1621-2" class="cls-24" d="M23.48,102.82l35.84-19.9V78L23.48,97.88Z"/><path id="Path_1619-2" data-name="Path 1619-2" class="cls-25" d="M23.48,77l35.84-19.9V52.12L23.48,72Z"/><path id="Path_1618-2" data-name="Path 1618-2" class="cls-24" d="M23.48,62.47,51.12,46.6v-5L23.48,57.53Z"/><path id="Path_1622-2" data-name="Path 1622-2" class="cls-24" d="M23.48,113.63,51.12,97.76V92.82L23.48,108.69Z"/><path id="Path_1620-2" data-name="Path 1620-2" class="cls-25" d="M31.63,83,59.28,67.12V62.18L31.63,78.05Z"/></g><path id="Path_1623-2" data-name="Path 1623-2" class="cls-26" d="M66.36,87.31,16.9,49.92V42.55L52.37,22.39,66.36,33Z"/><path id="Path_1624-2" data-name="Path 1624-2" class="cls-27" d="M16.9,106.12V68.51l42,31.77-28.1,16.37Z"/></g></g></g></g></svg>