<svg xmlns="http://www.w3.org/2000/svg" viewBox="0 0 411.91 423.48"><defs><style>.cls-1{fill:#155c92;}.cls-2{fill:#1a6fb0;}.cls-3{fill:#1d81cd;}.cls-4{fill:#3d99e2;}.cls-5{fill:#5aaae7;}.cls-6{fill:#3d5a98;}.cls-26,.cls-27,.cls-7{fill:#fff;}.cls-8{fill:#7f33ad;}.cls-9{fill:#943ec7;}.cls-10{fill:#a258cb;}.cls-11{fill:#b77fda;}.cls-12{fill:#d5b4e9;}.cls-13{fill:#6f75e3;}.cls-14{fill:#7c84e7;}.cls-15{fill:#989fed;}.cls-16{fill:#a8adef;}.cls-17{fill:#c5c8f5;}.cls-18{fill:#78baec;}.cls-19{fill:#97c7ef;}.cls-20{fill:#b3d8f5;}.cls-21{fill:#9f9ead;}.cls-22{fill:#e3e3e3;}.cls-23{fill:#d1d1d1;}.cls-24{fill:#3e3e3e;}.cls-25{fill:#f8d300;}.cls-26{opacity:0.26;}.cls-26,.cls-27{isolation:isolate;}.cls-27{opacity:0.49;}</style></defs><title>Chat_social</title><g id="Слой_2" data-name="Слой 2"><g id="Слой_1-2" data-name="Слой 1"><g id="_001-facebook" data-name=" 001-facebook"><path id="Path_2198" data-name="Path 2198" class="cls-1" d="M315.44,96.09,277.49,74.18c-2.4-1.38-4.57-1.51-6.14-.6l-10.71,6.23h0c-1.56.9-2.53,2.81-2.53,5.54l-.13,43.6c0,5.47,3.84,12.14,8.6,14.89l37.95,21.91c2.46,1.42,4.69,1.51,6.27.51l-.14.09,10.71-6.23c1.55-.9,2.51-2.81,2.52-5.53L324,111C324.05,105.51,320.2,98.84,315.44,96.09Z"/><g id="Group_698" data-name="Group 698"><path id="Path_2199" data-name="Path 2199" class="cls-2" d="M321.39,160.12l-10.71,6.22c1.55-.9,2.51-2.81,2.52-5.53l10.71-6.23C323.9,157.3,322.94,159.22,321.39,160.12Z"/><g id="Group_697" data-name="Group 697"><path id="Path_2200" data-name="Path 2200" class="cls-3" d="M260.64,79.8l10.71-6.22c1.57-.91,3.74-.78,6.14.6l-10.71,6.23C264.38,79,262.21,78.9,260.64,79.8Z"/><path id="Path_2201" data-name="Path 2201" class="cls-3" d="M313.32,117.2,324,111l-.12,43.6L313.2,160.8Z"/></g><path id="Path_2202" data-name="Path 2202" class="cls-4" d="M266.78,80.41l10.71-6.23,37.95,21.91-10.71,6.22Z"/><path id="Path_2203" data-name="Path 2203" class="cls-5" d="M304.72,102.31l10.71-6.22c4.77,2.75,8.62,9.42,8.6,14.89l-10.71,6.23C313.34,111.73,309.49,105.06,304.72,102.31Z"/></g><g id="Group_699" data-name="Group 699"><path id="Path_2204" data-name="Path 2204" class="cls-6" d="M280.3,127.27l0-9.53,7.15,4.14,0-7c0-8.15,4.37-10.09,10.7-6.44,3,1.75,5.64,3.52,6.4,4.07l0,8.52-4.39-2.53c-3.44-2-4.11-.49-4.12,2.27l0,6.08,8.21,4.74-1.1,8.91L296,136.35,296,160.79l-8.56-4.94.07-24.45-7.16-4.13"/><path id="Path_2205" data-name="Path 2205" class="cls-7" d="M287.5,115l0,7-7.15-4.14,0,9.53,7.16,4.13-.07,24.24,8.56,4.95.07-24.24,7.14,4.12,1.1-8.91L296.05,127l0-6.08c0-2.76.68-4.26,4.12-2.27l4.39,2.53,0-8.52c-.76-.55-3.36-2.32-6.4-4.07C291.87,105,287.53,106.89,287.5,115Z"/></g></g><g id="_002-viber" data-name=" 002-viber"><path id="Path_2206" data-name="Path 2206" class="cls-8" d="M403.31,96.09,365.36,74.18c-2.4-1.38-4.57-1.51-6.14-.6l-10.71,6.23h0c-1.56.9-2.52,2.81-2.53,5.54l-.13,43.6c0,5.47,3.84,12.14,8.6,14.89l37.95,21.91c2.47,1.42,4.69,1.51,6.27.51l-.13.09,10.71-6.23c1.55-.9,2.51-2.81,2.51-5.53l.13-43.6C411.92,105.51,408.07,98.84,403.31,96.09Z"/><g id="Group_701" data-name="Group 701"><path id="Path_2207" data-name="Path 2207" class="cls-9" d="M409.26,160.12l-10.71,6.22c1.55-.9,2.51-2.81,2.52-5.53l10.71-6.23C411.77,157.3,410.81,159.22,409.26,160.12Z"/><g id="Group_700" data-name="Group 700"><path id="Path_2208" data-name="Path 2208" class="cls-10" d="M348.51,79.8l10.71-6.22c1.57-.91,3.74-.78,6.14.6l-10.71,6.23C352.25,79,350.08,78.9,348.51,79.8Z"/><path id="Path_2209" data-name="Path 2209" class="cls-10" d="M401.19,117.2,411.9,111l-.12,43.6-10.71,6.22Z"/></g><path id="Path_2210" data-name="Path 2210" class="cls-11" d="M354.65,80.41l10.71-6.23,37.95,21.91-10.71,6.22Z"/><path id="Path_2211" data-name="Path 2211" class="cls-12" d="M392.6,102.31l10.71-6.22c4.76,2.75,8.61,9.42,8.6,14.89l-10.72,6.23C401.21,111.73,397.36,105.06,392.6,102.31Z"/></g><g id="Group_702" data-name="Group 702"><path id="Path_2212" data-name="Path 2212" class="cls-7" d="M362.92,100.25a3.4,3.4,0,0,0-1-.38c-3.77-.72-5.34,1.93-3.86,7a91,91,0,0,0,22.26,38.54A12,12,0,0,0,383,147.6c2.46,1.43,4.43.74,5.39-1.94a3.92,3.92,0,0,0,0-2.3c-.59-2.19-6.17-10.09-7.84-11.16l-.15-.09a1.69,1.69,0,0,0-2.36.42l-.07.1a1.68,1.68,0,0,1-2.32.26,7.87,7.87,0,0,1-1.77-1.53A30.19,30.19,0,0,1,367,119.53c-.7-2.21-.68-3.83,1-4.16.86-.17,1.74-.47,1.67-2-.08-2-4.13-10.75-5.73-12.36a6,6,0,0,0-1-.77"/><path id="Path_2213" data-name="Path 2213" class="cls-7" d="M375.69,107.37a14.32,14.32,0,0,0-1.93-.94c-.59-.24-1,.17-.9.9a2.37,2.37,0,0,0,1.06,1.65l.17.08a12.43,12.43,0,0,1,1.6.78q.45.27.9.57a23.79,23.79,0,0,1,6.93,7.77,22.7,22.7,0,0,1,3.15,9.49,12.1,12.1,0,0,1-.11,2.82,2.29,2.29,0,0,0,.87,1.94l.19.13c.51.3,1,.13,1.06-.42a14.76,14.76,0,0,0,.14-3.45,27.43,27.43,0,0,0-3.77-11.38,28.35,28.35,0,0,0-8.27-9.26c-.36-.24-.72-.47-1.09-.68"/><path id="Path_2214" data-name="Path 2214" class="cls-7" d="M375.68,111.5a11.61,11.61,0,0,0-1.11-.57c-.59-.25-1,.13-.94.85a2.44,2.44,0,0,0,1.06,1.7l.14.07c.29.12.57.27.85.42s.39.24.59.38a16.15,16.15,0,0,1,4.71,5.29,15.23,15.23,0,0,1,2.11,6.32,7.52,7.52,0,0,1,0,1.5,2.33,2.33,0,0,0,.93,1.92l.14.09c.53.31,1,.12,1.07-.47a10.39,10.39,0,0,0,0-2,19.69,19.69,0,0,0-2.74-8.22,20.68,20.68,0,0,0-6-6.78c-.26-.18-.52-.34-.78-.49"/><path id="Path_2215" data-name="Path 2215" class="cls-7" d="M375.65,115.6l-.21-.11c-.59-.31-1.05,0-1,.69a2.37,2.37,0,0,0,1.07,1.81l0,0,.13.08a2.29,2.29,0,0,1,.29.18,9.18,9.18,0,0,1,3.57,6,3.84,3.84,0,0,1,0,.48,2.35,2.35,0,0,0,1,1.9l.07.05c.56.32,1,.1,1.08-.53a6.32,6.32,0,0,0,0-.87,13.84,13.84,0,0,0-5.52-9.36,5.6,5.6,0,0,0-.49-.31"/></g></g><g id="_003-vk" data-name=" 003-vk"><path id="Path_2216" data-name="Path 2216" class="cls-13" d="M304.18,215.09l-37.95-21.91c-2.4-1.38-4.56-1.51-6.13-.6l-10.71,6.23h0c-1.55.9-2.52,2.81-2.53,5.54l-.12,43.6c0,5.47,3.83,12.14,8.6,14.89l37.94,21.91c2.47,1.42,4.7,1.51,6.27.51l-.13.09,10.71-6.23c1.55-.9,2.51-2.81,2.52-5.53l.12-43.6C312.79,224.51,308.94,217.84,304.18,215.09Z"/><g id="Group_703" data-name="Group 703"><path id="Path_2217" data-name="Path 2217" class="cls-7" d="M276.08,230.67,269.71,227c-.85-.49-1.28-.36-1.73,0-.27.2-.35.39.19.82a4.76,4.76,0,0,1,1.8,3.27,29.18,29.18,0,0,1,.08,5.91,4.68,4.68,0,0,1-.33,1.48c-.2.41-.46.52-.79.33a2.29,2.29,0,0,1-.67-.68,14.2,14.2,0,0,1-1.41-2.6,75.69,75.69,0,0,1-3.72-10.12,3.62,3.62,0,0,0-1.52-2.2l-2.76-1.62L256.09,220c-1.11-.62-1.44-.19-1,1.22A154.66,154.66,0,0,0,262.2,240a43.07,43.07,0,0,0,5.41,9,25.23,25.23,0,0,0,7.09,6.12c.32.18.64.36,1,.53,1.33.7,1.73.53,1.8-1a5.32,5.32,0,0,1,.6-2.68.69.69,0,0,1,.93-.32.41.41,0,0,1,.11.07,2.91,2.91,0,0,1,.83.81,13,13,0,0,1,1,1.62c.74,1.38,1.46,2.77,2.24,4.13a9.22,9.22,0,0,0,3.21,3.55l.37.2,5.64,3.26c.91.45,1.38-.55.86-2a24.11,24.11,0,0,0-1.35-3c-1.14-2.25-2.5-4.39-3.77-6.57-1.16-2-1.23-2.76-.29-3.71s2.11-2,3.14-3a8.77,8.77,0,0,0,2.45-3.45c.32-1,0-1.65-1-2.45a3.84,3.84,0,0,0-.54-.35l-6.13-3.55-.05,0c-.73-.41-1.13-.27-1.4.34a22.14,22.14,0,0,1-1.17,2.4,11.79,11.79,0,0,1-3.6,4.27c-.28.18-.59.42-1,.17a1,1,0,0,1-.26-.2,4.28,4.28,0,0,1-.89-2.6v-8.13a3.29,3.29,0,0,0-1.35-2.69"/></g><g id="Group_705" data-name="Group 705"><path id="Path_2218" data-name="Path 2218" class="cls-14" d="M310.14,279.12l-10.71,6.22c1.55-.9,2.51-2.81,2.51-5.53l10.71-6.23C312.65,276.3,311.69,278.22,310.14,279.12Z"/><g id="Group_704" data-name="Group 704"><path id="Path_2219" data-name="Path 2219" class="cls-15" d="M249.39,198.8l10.71-6.22c1.56-.91,3.74-.78,6.13.6l-10.71,6.23C253.13,198,251,197.9,249.39,198.8Z"/><path id="Path_2220" data-name="Path 2220" class="cls-15" d="M302.07,236.2,312.78,230l-.13,43.6-10.71,6.22Z"/></g><path id="Path_2221" data-name="Path 2221" class="cls-16" d="M255.52,199.41l10.71-6.23,37.95,21.91-10.71,6.22Z"/><path id="Path_2222" data-name="Path 2222" class="cls-17" d="M293.47,221.31l10.71-6.22c4.76,2.75,8.61,9.42,8.6,14.89l-10.71,6.23C302.08,230.73,298.23,224.06,293.47,221.31Z"/></g></g><g id="_004-telegram" data-name=" 004-telegram"><path id="Path_2223" data-name="Path 2223" class="cls-4" d="M392.05,215.09l-37.94-21.91c-2.4-1.38-4.57-1.51-6.14-.6l-10.71,6.23h0c-1.56.9-2.53,2.81-2.54,5.54l-.12,43.6c0,5.47,3.83,12.14,8.6,14.89l37.95,21.91c2.46,1.42,4.69,1.51,6.27.51l-.14.09L398,279.11c1.55-.9,2.51-2.81,2.52-5.53l.12-43.6C400.67,224.51,396.82,217.84,392.05,215.09Z"/><g id="Group_707" data-name="Group 707"><path id="Path_2224" data-name="Path 2224" class="cls-5" d="M398,279.12l-10.71,6.22c1.55-.9,2.51-2.81,2.52-5.53l10.71-6.23C400.52,276.3,399.56,278.22,398,279.12Z"/><g id="Group_706" data-name="Group 706"><path id="Path_2225" data-name="Path 2225" class="cls-18" d="M337.26,198.8,348,192.58c1.57-.91,3.74-.78,6.14.6l-10.71,6.23C341,198,338.83,197.9,337.26,198.8Z"/><path id="Path_2226" data-name="Path 2226" class="cls-18" d="M389.94,236.2,400.65,230l-.12,43.6-10.71,6.22Z"/></g><path id="Path_2227" data-name="Path 2227" class="cls-19" d="M343.4,199.41l10.71-6.23,37.94,21.91-10.71,6.22Z"/><path id="Path_2228" data-name="Path 2228" class="cls-20" d="M381.34,221.31l10.71-6.22c4.77,2.75,8.62,9.42,8.6,14.89l-10.71,6.23C390,230.73,386.11,224.06,381.34,221.31Z"/></g><g id="Group_708" data-name="Group 708"><path id="Path_2229" data-name="Path 2229" class="cls-7" d="M356.61,250.06a.9.9,0,0,1-.41-.59l-1.76-8.24c-.2-.94.1-1.65.73-1.73l16.55-2.15a.22.22,0,0,1,.16,0c.23.14.4.59.19.69l-13.68,6.69a1.76,1.76,0,0,0-.88,1.44l-.47,3.68c0,.27-.23.3-.43.19M379.07,234a1.2,1.2,0,0,0-.36-.13L344,229.19c-.86-.11-.86,1.28,0,2.15l8.44,8.5,3.24,14a2.15,2.15,0,0,0,.95,1.35.72.72,0,0,0,.62.1l4.73-1.69a1.08,1.08,0,0,1,.89.15,2.69,2.69,0,0,1,.82.79l8.48,12a1.9,1.9,0,0,0,.58.55c.45.26.88.16,1-.35L380,235.91a2.12,2.12,0,0,0-1-1.94"/></g></g><g id="Group_931" data-name="Group 931"><g id="Group_647" data-name="Group 647"><path id="Path_1599" data-name="Path 1599" class="cls-21" d="M20.05,83.65,162.22,2.24a16.45,16.45,0,0,1,16.75.1h0l23.45,14h0A16.48,16.48,0,0,1,213,31.77V305.32A40.11,40.11,0,0,1,193,340.06L50.81,421.25a16.33,16.33,0,0,1-15.46.56l-.07.16L8.4,406.15h0A16.45,16.45,0,0,1,0,391.73V118.39A40.12,40.12,0,0,1,20.05,83.65Z"/><path id="Path_1600" data-name="Path 1600" class="cls-22" d="M213,305.32V31.77a16.59,16.59,0,0,0-24.9-14.37L46,98.81a40.09,40.09,0,0,0-20,34.73V406.88a16.6,16.6,0,0,0,24.89,14.37L193,340.06A40.13,40.13,0,0,0,213,305.32Z"/><path id="Path_1601" data-name="Path 1601" class="cls-7" d="M195.24,40.84,49.73,123.54V370.4l145.51-84.77Z"/><path id="Path_1614" data-name="Path 1614" class="cls-23" d="M115.22,359.6c0,9.08,5.51,13.25,12.32,9.32s12.33-14.47,12.33-23.55-5.52-13.25-12.33-9.32S115.22,350.53,115.22,359.6Z"/><path id="Path_1617" data-name="Path 1617" class="cls-24" d="M69.07,152,174.51,93.43V78.89L69.07,137.44Z"/><path id="Path_1621" data-name="Path 1621" class="cls-24" d="M69.07,302.52,174.51,244V229.43L69.07,288Z"/><path id="Path_1619" data-name="Path 1619" class="cls-25" d="M69.07,226.42l105.44-58.54V153.33L69.07,211.88Z"/><path id="Path_1618" data-name="Path 1618" class="cls-24" d="M69.07,183.79l81.34-46.71V122.54l-81.34,46.7Z"/><path id="Path_1622" data-name="Path 1622" class="cls-24" d="M69.07,334.33l81.34-46.71V273.08l-81.34,46.7Z"/><path id="Path_1620" data-name="Path 1620" class="cls-25" d="M93.06,244.17l81.34-46.7V182.93l-81.34,46.7Z"/></g><path id="Path_1623" data-name="Path 1623" class="cls-26" d="M195.24,256.88l-145.51-110V125.2L154.07,65.89,195.24,97Z"/><path id="Path_1624" data-name="Path 1624" class="cls-27" d="M49.73,312.24V201.57l123.65,93.48L90.71,343.22Z"/></g></g></g></svg>