<svg xmlns="http://www.w3.org/2000/svg" viewBox="0 0 21.9 21.9"><defs><style>.cls-1{fill:#fff;}</style></defs><title>close_m</title><g id="Слой_2" data-name="Слой 2"><g id="Слой_1-2" data-name="Слой 1"><path id="cancel" class="cls-1" d="M14.1,11.3a.49.49,0,0,1,0-.68l0,0,7.5-7.5a1.09,1.09,0,0,0,.3-.7,1.09,1.09,0,0,0-.3-.7L20.2.3a1.09,1.09,0,0,0-.7-.3.89.89,0,0,0-.7.3L11.3,7.8a.49.49,0,0,1-.68,0l0,0L3.1.3A1.09,1.09,0,0,0,2.4,0a1.09,1.09,0,0,0-.7.3L.3,1.7a1.09,1.09,0,0,0-.3.7,1.09,1.09,0,0,0,.3.7l7.5,7.5a.49.49,0,0,1,0,.68l0,0L.3,18.8a1,1,0,0,0,0,1.37l0,0,1.4,1.4a1.09,1.09,0,0,0,.7.3,1.09,1.09,0,0,0,.7-.3l7.5-7.5a.49.49,0,0,1,.68,0l0,0,7.5,7.5a1,1,0,0,0,1.37,0l0,0,1.4-1.4a1,1,0,0,0,0-1.37l0,0Z"/></g></g></svg>