<svg xmlns="http://www.w3.org/2000/svg" viewBox="0 0 56 29.68"><defs><style>.cls-1{fill:#fff;}</style></defs><title>f_1</title><g id="Слой_2" data-name="Слой 2"><g id="Слой_1-2" data-name="Слой 1"><g id="Group_947" data-name="Group 947"><g id="question"><path id="Path_2384" data-name="Path 2384" class="cls-1" d="M10,23.68H8a1,1,0,0,0-1,.89v2.11a1,1,0,0,0,.89,1H10a.94.94,0,0,0,1-.89.2.2,0,0,0,0-.11v-2a.93.93,0,0,0-.88-1Z"/><path id="Path_2385" data-name="Path 2385" class="cls-1" d="M9,1.68a9,9,0,0,0-9,8.93v.07a8.34,8.34,0,0,0,.1,1.5A1.07,1.07,0,0,0,1.38,13h0l1.9-.6a.92.92,0,0,0,.7-1.1H4v-.6a5,5,0,0,1,10,0c0,1.7-1,2.5-2.8,4s-3.7,3-4.2,5.9a1,1,0,0,0,.84,1.09H10a1,1,0,0,0,1-.8c.3-1.2,1.2-2,2.7-3.1,1.9-1.5,4.3-3.4,4.3-7.1a9,9,0,0,0-8.92-9Z"/></g><g id="information-circular-button-symbol"><g id="Info"><g id="Group_793" data-name="Group 793"><path id="Path_2386" data-name="Path 2386" class="cls-1" d="M41.16,7.42A1.86,1.86,0,1,0,43,9.27a1.86,1.86,0,0,0-1.86-1.85Zm0,5.57a1.85,1.85,0,0,0-1.85,1.85v5.57a1.86,1.86,0,0,0,3.71,0V14.84A1.86,1.86,0,0,0,41.16,13Zm0-13A14.84,14.84,0,1,0,56,14.84,14.84,14.84,0,0,0,41.16,0Zm0,26.9A12.06,12.06,0,1,1,53.22,14.84,12.05,12.05,0,0,1,41.16,26.9Z"/></g></g></g></g></g></g></svg>