<svg xmlns="http://www.w3.org/2000/svg" viewBox="0 0 11.56 22.01"><defs><style>.cls-1{fill:#fff;}</style></defs><title>facebook</title><g id="Слой_2" data-name="Слой 2"><g id="Слой_1-2" data-name="Слой 1"><g id="facebook"><g id="Group_623" data-name="Group 623"><path id="Path_115" data-name="Path 115" class="cls-1" d="M8.77,4.78h2A.78.78,0,0,0,11.56,4V.78A.78.78,0,0,0,10.78,0H7.88A5.78,5.78,0,0,0,4.12,1.42,4.12,4.12,0,0,0,2.77,5v2.1h-2A.78.78,0,0,0,0,7.89v3.46a.78.78,0,0,0,.78.78H2.66v9.1a.77.77,0,0,0,.77.78H7.36a.78.78,0,0,0,.78-.78V12.17h2.22a.78.78,0,0,0,.78-.69L11.54,8a.81.81,0,0,0-.2-.61.77.77,0,0,0-.58-.26H8.13V5.34C8.15,5,8.25,4.78,8.77,4.78ZM7.71,8h3l-.39,3.31H7.71a.45.45,0,0,0-.44.44v9.39H3.54V11.69a.44.44,0,0,0-.44-.44H.88V8H3.21a.44.44,0,0,0,.44-.44V4.89A3.19,3.19,0,0,1,4.72,2.06,4.9,4.9,0,0,1,7.89.87h2.79v3H8.77a1.35,1.35,0,0,0-1.5,1.18,1.13,1.13,0,0,0,0,.26v2.2A.44.44,0,0,0,7.71,8Z"/></g></g></g></g></svg>