<svg xmlns="http://www.w3.org/2000/svg" viewBox="0 0 71.25 93.26"><defs><style>.cls-1{fill:#bbd4da;}.cls-2{fill:#e5eff2;}.cls-3{fill:#747373;}.cls-4{fill:#d6e5e9;}.cls-5{fill:#e3e3e3;}.cls-6{fill:#ff3400;}</style></defs><title>Form_simple</title><g id="Слой_2" data-name="Слой 2"><g id="Слой_1-2" data-name="Слой 1"><g id="Group_776" data-name="Group 776"><path id="Path_1628" data-name="Path 1628" class="cls-1" d="M0,39.53,68.69,0l2.56,1.54V53.6L2.55,93.26,0,91.72Z"/><path id="Path_1629" data-name="Path 1629" class="cls-2" d="M71.25,53.6V1.54L2.58,41.13l0,52.13Z"/><path id="Path_1630" data-name="Path 1630" class="cls-3" d="M2.55,67.8l17-9.7L25.6,33.92l45.65-26V53.6L2.55,93.26Z"/><path id="Path_1631" data-name="Path 1631" class="cls-4" d="M71.25,1.54,68.69,0,0,39.53l2.59,1.6Z"/><path id="Path_1632" data-name="Path 1632" class="cls-5" d="M30.37,46.49l28.41-16.4V22.77L30.37,39.17Z"/><path id="Path_1633" data-name="Path 1633" class="cls-5" d="M30.37,55.4,58.93,38.71V34L30.37,50.67Z"/><path id="Path_1634" data-name="Path 1634" class="cls-5" d="M30.37,63.79,58.83,47V42.27L30.37,59.07Z"/><path id="Path_2197" data-name="Path 2197" class="cls-6" d="M30.37,72.72,46.69,62.9V58.18L30.37,68Z"/><path id="Path_1636" data-name="Path 1636" class="cls-6" d="M8.08,51.57c0,3.2,1.95,4.67,4.35,3.28s4.34-5.1,4.34-8.3-1.94-4.67-4.34-3.28S8.08,48.37,8.08,51.57Z"/></g></g></g></svg>