<svg xmlns="http://www.w3.org/2000/svg" viewBox="0 0 18 18"><defs><style>.cls-1{fill:#fff;}</style></defs><title>instagram</title><g id="Слой_2" data-name="Слой 2"><g id="Слой_1-2" data-name="Слой 1"><g id="instagram"><g id="Group_625" data-name="Group 625"><g id="Group_624" data-name="Group 624"><path id="Path_116" data-name="Path 116" class="cls-1" d="M12.77,0H5.23A5.23,5.23,0,0,0,0,5.23v7.54A5.23,5.23,0,0,0,5.23,18h7.54A5.23,5.23,0,0,0,18,12.77V5.23A5.23,5.23,0,0,0,12.77,0Zm3.82,12.77a3.82,3.82,0,0,1-3.82,3.82H5.23a3.82,3.82,0,0,1-3.82-3.82V5.23A3.82,3.82,0,0,1,5.23,1.41h7.54a3.82,3.82,0,0,1,3.82,3.82Z"/></g></g><g id="Group_627" data-name="Group 627"><g id="Group_626" data-name="Group 626"><path id="Path_117" data-name="Path 117" class="cls-1" d="M9,4.15A4.85,4.85,0,1,0,13.85,9h0A4.85,4.85,0,0,0,9,4.15Zm0,8.3A3.45,3.45,0,1,1,12.44,9h0A3.45,3.45,0,0,1,9,12.45Z"/></g></g><g id="Group_629" data-name="Group 629"><g id="Group_628" data-name="Group 628"><circle id="Ellipse_10" data-name="Ellipse 10" class="cls-1" cx="13.92" cy="4.08" r="0.7"/></g></g></g></g></g></svg>