<svg xmlns="http://www.w3.org/2000/svg" viewBox="0 0 125.73 183.88"><defs><style>.cls-1{fill:#9f9ead;}.cls-2{fill:#fff;}.cls-3{fill:#e5e5e5;}.cls-4{fill:#8b7600;}.cls-5{fill:#f8d300;}.cls-6{fill:#b49904;}</style></defs><title>keyboard_m</title><g id="Слой_2" data-name="Слой 2"><g id="Слой_1-2" data-name="Слой 1"><g id="Group_940" data-name="Group 940"><g id="Group_903" data-name="Group 903"><path id="Path_2230-2" data-name="Path 2230-2" class="cls-1" d="M80.53,103.22a15.41,15.41,0,0,1,9.4,2l33.66,19.44a4.22,4.22,0,0,1,2.14,3.67h0v7.88h0a4.25,4.25,0,0,1-2.12,4.17l-72.2,41.46a15.47,15.47,0,0,1-15.45,0L2.11,162.32A4.14,4.14,0,0,1,0,159.09l0,0v-8.72H0A4.3,4.3,0,0,1,.22,149C-.09,149,81.84,101.76,80.53,103.22Z"/><path id="Path_2233-2" data-name="Path 2233-2" class="cls-2" d="M2.11,154l33.83,19.5a15.47,15.47,0,0,0,15.45,0L123.59,132a4.28,4.28,0,0,0,0-7.4L89.93,105.2a15.4,15.4,0,0,0-15.37,0L2.12,146.7a4.2,4.2,0,0,0,0,7.29Z"/><path id="Path_2234-2" data-name="Path 2234-2" class="cls-3" d="M114.18,124.07l-27-15.41L10.54,152.84l26.91,15.54Z"/><g id="Group_720-2" data-name="Group 720-2"><path id="Path_1795-2" data-name="Path 1795-2" class="cls-2" d="M84.43,130.63l-3.2-1.85L75.69,132l3.2,1.85Z"/><path id="Path_1796-2" data-name="Path 1796-2" class="cls-2" d="M76.13,135.42l-3.2-1.85-6.91,4,3.18,1.87Z"/><path id="Path_1797-2" data-name="Path 1797-2" class="cls-2" d="M93.51,125.39l-3.2-1.85L84,127.19l3.2,1.84Z"/><path id="Path_1798-2" data-name="Path 1798-2" class="cls-2" d="M102.53,120.18l-3.3-1.87,0,.06-6.19,3.57,3.2,1.85Z"/><path id="Path_1799-2" data-name="Path 1799-2" class="cls-2" d="M77.4,123.38l3.83,2.21,6.32-3.65-3.83-2.21Z"/><path id="Path_1800-2" data-name="Path 1800-2" class="cls-2" d="M66.45,141l-3.18-1.86-6.77,3.91,3.2,1.85Z"/><path id="Path_1801-2" data-name="Path 1801-2" class="cls-2" d="M86.48,118.14l3.83,2.21,6.21-3.59-3.86-2.2Z"/><path id="Path_1802-2" data-name="Path 1802-2" class="cls-2" d="M78.47,127.19,74.64,125l-5.54,3.2,3.83,2.22Z"/><path id="Path_1803-2" data-name="Path 1803-2" class="cls-2" d="M51,143.06l-3.83-2.22-7,4L44,147.1Z"/><path id="Path_1804-2" data-name="Path 1804-2" class="cls-2" d="M74.64,121.79,81,118.14l-2.75-1.59-6.32,3.65Z"/><path id="Path_1805-2" data-name="Path 1805-2" class="cls-2" d="M57,146.5l-3.2-1.85-7,4,3.2,1.85Z"/><path id="Path_1806-2" data-name="Path 1806-2" class="cls-2" d="M59.48,133.73l3.8,2.23,6.89-4-3.83-2.21Z"/><path id="Path_1807-2" data-name="Path 1807-2" class="cls-2" d="M49.91,139.25l3.83,2.21,6.79-3.92-3.8-2.23Z"/><path id="Path_1808-2" data-name="Path 1808-2" class="cls-2" d="M66.34,126.58l5.54-3.2-2.75-1.59L63.59,125Z"/><path id="Path_1809-2" data-name="Path 1809-2" class="cls-2" d="M29.59,151l3.83,2.21,7.8-4.5-3.83-2.21Z"/><path id="Path_1810-2" data-name="Path 1810-2" class="cls-2" d="M96.27,127,90,130.63,94,133l6.32-3.65Z"/><path id="Path_1811-2" data-name="Path 1811-2" class="cls-2" d="M105.3,121.76,99,125.39l4,2.32,6.29-3.64Z"/><path id="Path_1812-2" data-name="Path 1812-2" class="cls-2" d="M87.19,132.22,52.71,152.13l4.09,2.36,34.44-19.93Z"/><path id="Path_1813-2" data-name="Path 1813-2" class="cls-2" d="M83.72,116.55,89.88,113l-2.77-1.58L81,115Z"/><path id="Path_1814-2" data-name="Path 1814-2" class="cls-2" d="M54,156.09l-4.1-2.37-7.8,4.51,4.11,2.37Z"/><path id="Path_1815-2" data-name="Path 1815-2" class="cls-2" d="M39.39,159.82l-6,3.44,4.12,2.37,5.94-3.44Z"/><path id="Path_1816-2" data-name="Path 1816-2" class="cls-2" d="M24.07,151l-2.74-1.58-6,3.44,2.74,1.58Z"/><path id="Path_1817-2" data-name="Path 1817-2" class="cls-2" d="M37.4,143.29l7-4-2.75-1.58-7,4Z"/><path id="Path_1818-2" data-name="Path 1818-2" class="cls-2" d="M56.74,132.12l6.84-4-2.75-1.58L54,130.52Z"/><path id="Path_1819-2" data-name="Path 1819-2" class="cls-2" d="M26.83,149.39l7.8-4.51-2.74-1.58-7.8,4.51Z"/><path id="Path_1820-2" data-name="Path 1820-2" class="cls-2" d="M47.15,137.66,54,133.71l-2.72-1.6-6.86,4Z"/><path id="Path_1821-2" data-name="Path 1821-2" class="cls-2" d="M36.63,158.23l-3.2-1.85-6,3.44,3.21,1.84Z"/><path id="Path_1822-2" data-name="Path 1822-2" class="cls-2" d="M47.19,152.13,44,150.29l-7.8,4.5,3.2,1.85Z"/><path id="Path_1823-2" data-name="Path 1823-2" class="cls-2" d="M24.71,158.22l5.95-3.43-3.83-2.22-6,3.44Z"/></g></g><g id="_048-text-tool-2" data-name=" 048-text-tool-2"><path id="Path_1625-2" data-name="Path 1625-2" class="cls-4" d="M107.3,0l8,4.53V30l-11-6.3L93.3,30l0,37.94,10.94,6.33-32.86,19-7.68-4.67,12-16.26V40.2l-4.3,2.51-10.84,19L52.44,57V31.71Z"/><path id="Path_1626-2" data-name="Path 1626-2" class="cls-5" d="M71.36,93.26l10.87-19V36.39L71.4,42.71l-10.84,19V36.29l54.7-31.76V30l-11-6.3L93.29,30V68l10.94,6.32Z"/><path id="Path_1627-2" data-name="Path 1627-2" class="cls-6" d="M115.26,4.53,107.3,0,52.44,31.71l8.12,4.58Z"/></g></g></g></g></svg>