<svg xmlns="http://www.w3.org/2000/svg" viewBox="0 0 368.66 558.45"><defs><style>.cls-1{fill:#9f9ead;}.cls-2{fill:#fff;}.cls-3{fill:#e5e5e5;}.cls-4{fill:#8b7600;}.cls-5{fill:#f8d300;}.cls-6{fill:#b49904;}</style></defs><title>keyboard</title><g id="Слой_2" data-name="Слой 2"><g id="Слой_1-2" data-name="Слой 1"><g id="Group_936" data-name="Group 936"><path id="Path_2230" data-name="Path 2230" class="cls-1" d="M236.13,321.94a45.17,45.17,0,0,1,27.55,5.77l98.71,57a12.41,12.41,0,0,1,6.26,10.77h0v23.1l-.09,0a12.44,12.44,0,0,1-6.2,12.23L150.67,552.41a45.43,45.43,0,0,1-45.31,0L6.17,495.22a12.2,12.2,0,0,1-6.1-9.47L0,485.7V460.13H0a12.47,12.47,0,0,1,.64-3.88C-.28,456.07,240,317.64,236.13,321.94Z"/><path id="Path_2233" data-name="Path 2233" class="cls-2" d="M6.17,470.8,105.36,528a45.43,45.43,0,0,0,45.31,0l211.7-121.59a12.52,12.52,0,0,0,0-21.7l-98.72-57a45.22,45.22,0,0,0-45.08-.07L6.2,449.43a12.33,12.33,0,0,0,0,21.37Z"/><path id="Path_2234" data-name="Path 2234" class="cls-3" d="M334.79,383.06l-79.05-45.17L30.9,467.43,109.79,513Z"/><g id="Group_720" data-name="Group 720"><path id="Path_1795" data-name="Path 1795" class="cls-2" d="M247.56,402.3l-9.39-5.43-16.25,9.38,9.39,5.43Z"/><path id="Path_1796" data-name="Path 1796" class="cls-2" d="M223.22,416.35l-9.39-5.42-20.27,11.7,9.32,5.46Z"/><path id="Path_1797" data-name="Path 1797" class="cls-2" d="M274.19,386.92l-9.4-5.42-18.53,10.7,9.39,5.42Z"/><path id="Path_1798" data-name="Path 1798" class="cls-2" d="M300.61,371.66l-9.67-5.5.11.18-18.16,10.49,9.39,5.42Z"/><path id="Path_1799" data-name="Path 1799" class="cls-2" d="M226.93,381l11.24,6.49,18.53-10.7-11.23-6.49Z"/><path id="Path_1800" data-name="Path 1800" class="cls-2" d="M194.82,432.74l-9.32-5.46-19.84,11.45,9.39,5.43Z"/><path id="Path_1801" data-name="Path 1801" class="cls-2" d="M253.56,365.67l11.23,6.49L283,361.64l-11.32-6.44Z"/><path id="Path_1802" data-name="Path 1802" class="cls-2" d="M230.08,392.2l-11.24-6.48-16.25,9.38,11.24,6.49Z"/><path id="Path_1803" data-name="Path 1803" class="cls-2" d="M149.48,438.73l-11.24-6.48-20.51,11.84L129,450.58Z"/><path id="Path_1804" data-name="Path 1804" class="cls-2" d="M218.84,376.37l18.54-10.7L229.31,361l-18.53,10.7Z"/><path id="Path_1805" data-name="Path 1805" class="cls-2" d="M167,448.83l-9.39-5.43-20.52,11.85,9.39,5.42Z"/><path id="Path_1806" data-name="Path 1806" class="cls-2" d="M174.39,411.38l11.14,6.54,20.2-11.66-11.23-6.49Z"/><path id="Path_1807" data-name="Path 1807" class="cls-2" d="M146.34,427.58l11.23,6.48,19.91-11.49L166.33,416Z"/><path id="Path_1808" data-name="Path 1808" class="cls-2" d="M194.5,390.43,210.75,381l-8.06-4.65-16.25,9.38Z"/><path id="Path_1809" data-name="Path 1809" class="cls-2" d="M86.76,462,98,468.46l22.88-13.21-11.23-6.49Z"/><path id="Path_1810" data-name="Path 1810" class="cls-2" d="M282.28,391.59l-18.54,10.7,11.85,6.85,18.51-10.72Z"/><path id="Path_1811" data-name="Path 1811" class="cls-2" d="M308.76,376.3l-18.39,10.62,11.81,6.82,18.45-10.68Z"/><path id="Path_1812" data-name="Path 1812" class="cls-2" d="M255.65,407,154.53,465.34l12,6.93,101-58.46Z"/><path id="Path_1813" data-name="Path 1813" class="cls-2" d="M245.47,361l18.07-10.44-8.12-4.62-18,10.4Z"/><path id="Path_1814" data-name="Path 1814" class="cls-2" d="M158.45,477l-12-6.93-22.87,13.21,12,6.95Z"/><path id="Path_1815" data-name="Path 1815" class="cls-2" d="M115.47,487.9,98,498l12.08,7,17.41-10.08Z"/><path id="Path_1816" data-name="Path 1816" class="cls-2" d="M70.58,462l-8-4.64-17.49,10.1,8.05,4.63Z"/><path id="Path_1817" data-name="Path 1817" class="cls-2" d="M109.64,439.42l20.52-11.84-8-4.65-20.52,11.85Z"/><path id="Path_1818" data-name="Path 1818" class="cls-2" d="M166.36,406.67l20-11.57-8.06-4.66-20,11.54Z"/><path id="Path_1819" data-name="Path 1819" class="cls-2" d="M78.67,457.3l22.88-13.21-8-4.64L70.63,452.66Z"/><path id="Path_1820" data-name="Path 1820" class="cls-2" d="M138.24,422.91l20.06-11.58-8-4.69-20.12,11.62Z"/><path id="Path_1821" data-name="Path 1821" class="cls-2" d="M107.39,483.23,98,477.8,80.54,487.88l9.4,5.42Z"/><path id="Path_1822" data-name="Path 1822" class="cls-2" d="M138.36,465.34l-9.4-5.42-22.88,13.21,9.4,5.42Z"/><path id="Path_1823" data-name="Path 1823" class="cls-2" d="M72.44,483.21,89.9,473.13l-11.23-6.49L61.19,476.73Z"/></g></g><g id="_048-text-tool" data-name=" 048-text-tool"><path id="Path_1625" data-name="Path 1625" class="cls-4" d="M345.34,0l23.32,13.3V87.83L336.39,69.34,304.24,88l0,111.25,32.09,18.55-96.35,55.63-22.51-13.7,35.24-47.69v-94.2l-12.6,7.36-31.79,55.7-23.8-13.67V93Z"/><path id="Path_1626" data-name="Path 1626" class="cls-5" d="M239.94,273.47l31.87-55.77v-111l-31.75,18.55-31.79,55.69V106.41L368.65,13.3V87.82L336.39,69.34,304.25,88l-.05,111.25,32.09,18.55Z"/><path id="Path_1627" data-name="Path 1627" class="cls-6" d="M368.66,13.3,345.34,0,184.48,93l23.79,13.44Z"/></g></g></g></svg>