<svg xmlns="http://www.w3.org/2000/svg" viewBox="0 0 18 18"><defs><style>.cls-1{fill:#fff;}</style></defs><title>link</title><g id="Слой_2" data-name="Слой 2"><g id="Слой_1-2" data-name="Слой 1"><g id="foreign"><g id="Group_735" data-name="Group 735"><g id="Group_734" data-name="Group 734"><path id="Path_2295" data-name="Path 2295" class="cls-1" d="M17.18,0H10.64a.82.82,0,0,0,0,1.64h4.57L6.79,10.06a.81.81,0,1,0,1.15,1.15h0l8.42-8.42V7.36a.82.82,0,1,0,1.64,0V.82A.82.82,0,0,0,17.18,0Z"/></g></g><g id="Group_737" data-name="Group 737"><g id="Group_736" data-name="Group 736"><path id="Path_2296" data-name="Path 2296" class="cls-1" d="M13.91,8.18a.82.82,0,0,0-.82.82h0v7.36H1.64V4.91H9A.82.82,0,1,0,9,3.27H.82A.82.82,0,0,0,0,4.09H0V17.18A.82.82,0,0,0,.82,18H13.91a.82.82,0,0,0,.82-.82h0V9a.82.82,0,0,0-.82-.82Z"/></g></g></g></g></g></svg>