<svg xmlns="http://www.w3.org/2000/svg" viewBox="0 0 81.66 80.04"><defs><style>.cls-1{fill:#fff;}.cls-2{fill:#f8d300;}</style></defs><title>Logo</title><g id="Слой_2" data-name="Слой 2"><g id="Слой_1-2" data-name="Слой 1"><g id="Group_953" data-name="Group 953"><g id="Group_1" data-name="Group 1"><path id="Path_1" data-name="Path 1" class="cls-1" d="M75.2,75.2H4.77V59.34H0V80H80V34H75.2ZM0,0V46H4.77V4.77H75.2V20.7H80V0Z"/></g><path id="Path_2" data-name="Path 2" class="cls-2" d="M13.08,56.65H.38l2.39-4.31-2.39-4h12.7l2.93,4Z"/><path id="Path_3" data-name="Path 3" class="cls-2" d="M79,31H68.27l2.15-4.08L68.27,23.4H79l2.62,3.54Z"/><path id="Path_4" data-name="Path 4" class="cls-2" d="M64.27,31.17H53.49L63.73,48.34l-3.39,8.31h-18l3.47-8.31h9.46l-12-17.17,3.15-7.39H64.27l2.61,3.54Z"/><path id="Path_5" data-name="Path 5" class="cls-2" d="M27.63,31.17l-.46,4.24,8.7-.08,4.85,10.15L36.17,56.26H17.4l2.38-3.92-2.77-4H31l1.15-2.86-1.61-2.77H18.24l2.23-18.93H39.56L36.1,31.17Z"/></g></g></g></svg>