<svg xmlns="http://www.w3.org/2000/svg" viewBox="0 0 57.13 56"><defs><style>.cls-1{fill:#fff;}.cls-2{fill:#f8d300;}</style></defs><title>Logo_m</title><g id="Слой_2" data-name="Слой 2"><g id="Слой_1-2" data-name="Слой 1"><g id="Group_1" data-name="Group 1"><path id="Path_1" data-name="Path 1" class="cls-1" d="M52.61,52.61H3.34V41.51H0V56H56V23.8H52.61ZM0,0V32.15H3.34V3.34H52.61V14.48H56V0Z"/></g><path id="Path_2" data-name="Path 2" class="cls-2" d="M9.15,39.63H.27l1.67-3L.27,33.81H9.15l2,2.8Z"/><path id="Path_3" data-name="Path 3" class="cls-2" d="M55.3,21.7H47.76l1.51-2.85-1.51-2.48H55.3l1.83,2.48Z"/><path id="Path_4" data-name="Path 4" class="cls-2" d="M45,21.81H37.42l7.17,12-2.38,5.82H29.61L32,33.81h6.62l-8.4-12,2.21-5.17H45l1.83,2.47Z"/><path id="Path_5" data-name="Path 5" class="cls-2" d="M19.33,21.81l-.32,3,6.08-.06,3.39,7.11-3.17,7.54H12.17l1.67-2.74-1.94-2.8h9.8l.81-2-1.13-1.93H12.76l1.56-13.25H27.68l-2.43,5.17Z"/></g></g></svg>