<svg xmlns="http://www.w3.org/2000/svg" viewBox="0 0 24 20"><defs><style>.cls-1{fill:#fff;}</style></defs><title>menu_m</title><g id="Слой_2" data-name="Слой 2"><g id="Слой_1-2" data-name="Слой 1"><g id="menu"><path id="Path_2556" data-name="Path 2556" class="cls-1" d="M24,1a.94.94,0,0,0-.88-1H1A1,1,0,0,0,0,.89V3A1,1,0,0,0,.89,4H23a.94.94,0,0,0,1-.88V1Z"/><path id="Path_2557" data-name="Path 2557" class="cls-1" d="M24,9a.94.94,0,0,0-.88-1H1a1,1,0,0,0-1,.89V11a1,1,0,0,0,.89,1H23a.94.94,0,0,0,1-.88V9Z"/><path id="Path_2558" data-name="Path 2558" class="cls-1" d="M24,17a.94.94,0,0,0-.88-1H1a1,1,0,0,0-1,.89V19a1,1,0,0,0,.89,1H23a.94.94,0,0,0,1-.88V17Z"/></g></g></g></svg>