<svg xmlns="http://www.w3.org/2000/svg" viewBox="0 0 147 113.83"><defs><style>.cls-1{fill:#dca700;}.cls-2{fill:#cc8200;}.cls-3{fill:#f8d300;}.cls-4{fill:#ccc;}.cls-5{fill:#747373;}.cls-6{fill:#e5ac91;}.cls-7{fill:#515253;}.cls-8{fill:#3b3c3d;}.cls-9{fill:#fff;}.cls-10{fill:#dcdcdc;}</style></defs><title>Plus_2</title><g id="Слой_2" data-name="Слой 2"><g id="Слой_1-2" data-name="Слой 1"><g id="Group_958" data-name="Group 958"><g id="money"><path id="Path_2297" data-name="Path 2297" class="cls-1" d="M26.74,14.33c0-3.48,2.53-7.14,7.49-10C43.28-.9,57-1.47,64.83,3.06c3.51,2,5.25,4.74,5.28,7.58h0v8.82h0v.08h0v8.68h0v.09h0v4.5h0V33h0v4.5h0c.1,3.53-2.44,7.28-7.48,10.19C53.58,52.94,39.88,53.51,32,49c-3.64-2.1-5.35-4.93-5.27-7.88V36.7c0-.1,0-.21,0-.31V23l0-4.31h0v-4.4Z"/><g id="Group_738" data-name="Group 738"><path id="Path_2298" data-name="Path 2298" class="cls-2" d="M32,30.91c7.84,4.53,21.54,4,30.6-1.27,5-2.89,7.53-6.6,7.48-10.1h0v4.51h0c.1,3.53-2.43,7.27-7.48,10.19C53.58,39.47,39.88,40,32,35.51c-3.64-2.1-5.35-4.93-5.27-7.88v-4.4C26.76,26.11,28.47,28.86,32,30.91Z"/><path id="Path_2299" data-name="Path 2299" class="cls-2" d="M32,39.68c7.84,4.53,21.54,4,30.6-1.27,5-2.89,7.53-6.6,7.48-10.1h0v4.51h0c.1,3.52-2.43,7.27-7.48,10.18-9.05,5.23-22.75,5.8-30.6,1.27-3.64-2.1-5.35-4.93-5.27-7.87V32C26.76,34.87,28.47,37.63,32,39.68Z"/></g><path id="Path_2300" data-name="Path 2300" class="cls-1" d="M34.23,4.33C25.17,9.55,24.19,17.46,32,22s21.54,4,30.6-1.27,10-13.13,2.2-17.66S43.28-.9,34.23,4.33Z"/><path id="Path_2301" data-name="Path 2301" class="cls-2" d="M70.11,10.64c0,3.5-2.49,7.2-7.49,10.08C53.57,26,39.87,26.52,32,22c-3.55-2-5.28-4.79-5.28-7.66h0v4.4A10.19,10.19,0,0,0,32,26.6c7.8,4.61,21.54,4,30.6-1.27,5.05-2.91,7.58-6.66,7.48-10.19h0v-4.5Z"/><path id="Path_2302" data-name="Path 2302" class="cls-3" d="M36.75,5.78c-7.45,4.3-8.25,10.8-1.81,14.53s17.72,3.26,25.17-1,8.25-10.8,1.8-14.53S44.2,1.48,36.75,5.78Z"/><path id="Path_2304" data-name="Path 2304" class="cls-4" d="M147,38.42v19L49,113.83,0,85.58V66.72H0L98,10.14l49,28.29"/><path id="Path_2305" data-name="Path 2305" class="cls-4" d="M147,38.42v19L49,113.83V95Z"/><g id="Group_739" data-name="Group 739"><path id="Path_2306" data-name="Path 2306" class="cls-5" d="M49,98.8l98-56.6V46L49,102.6.07,74.35V70.57Z"/><path id="Path_2307" data-name="Path 2307" class="cls-5" d="M49,106.33l98-56.57v3.78L49,110.12,0,81.86V78.09Z"/></g><g id="Group_740" data-name="Group 740"><path id="Path_2308" data-name="Path 2308" class="cls-5" d="M147,42.2V46L49,102.6V98.8Z"/><path id="Path_2309" data-name="Path 2309" class="cls-5" d="M147,49.76v3.78L76.44,94.29,49,110.13v-3.8Z"/></g><path id="Path_2310" data-name="Path 2310" class="cls-5" d="M18,77.09,0,66.71H0L98,10.13l49,28.29L49,95Z"/><path id="Path_2311" data-name="Path 2311" class="cls-4" d="M9.37,66.73,49.05,89.59l88.62-51.17L98,15.54Z"/><path id="Path_2312" data-name="Path 2312" class="cls-5" d="M128.42,38.42,98,20.88,18.81,66.73l30.3,17.45Z"/><path id="Path_2313" data-name="Path 2313" class="cls-6" d="M65.33,29l49,28.3v18.9L81.73,95V76.13l-49-28.29Z"/><path id="Path_2314" data-name="Path 2314" class="cls-7" d="M65.33,29l49,28.3L81.73,76.13l-49-28.29Z"/><path id="Path_2315" data-name="Path 2315" class="cls-8" d="M81.74,76.13V95l32.6-18.77V57.3Z"/><path id="Path_2316" data-name="Path 2316" class="cls-9" d="M37.07,45.31,61,31.5l49,28.3L86.1,73.6Z"/><path id="Path_2317" data-name="Path 2317" class="cls-10" d="M110,59.8V78.71L86.1,92.46V73.6Z"/><g id="Group_741" data-name="Group 741"><path id="Path_2318" data-name="Path 2318" class="cls-4" d="M94.29,23.55c2.8,1.62,7,1.8,9.48.39s2.12-3.85-.68-5.47-7-1.79-9.48-.39S91.49,21.93,94.29,23.55Z"/><path id="Path_2319" data-name="Path 2319" class="cls-4" d="M97.06,37.68a6.12,6.12,0,0,0,5.48.23c1.41-.82,1.23-2.23-.39-3.17a6.11,6.11,0,0,0-5.49-.23C95.26,35.32,95.43,36.74,97.06,37.68Z"/><path id="Path_2320" data-name="Path 2320" class="cls-4" d="M42.67,69a6.14,6.14,0,0,0,5.49.23c1.4-.82,1.22-2.24-.4-3.17a6.11,6.11,0,0,0-5.49-.23C40.87,66.66,41,68.08,42.67,69Z"/><path id="Path_2321" data-name="Path 2321" class="cls-4" d="M14.74,69.54c2.8,1.62,7,1.8,9.48.4s2.12-3.85-.68-5.47-7-1.8-9.48-.4S11.94,67.93,14.74,69.54Z"/><path id="Path_2322" data-name="Path 2322" class="cls-4" d="M123.73,40.58c2.8,1.62,7,1.8,9.47.4s2.13-3.85-.68-5.47-7-1.8-9.47-.4S120.93,39,123.73,40.58Z"/><path id="Path_2323" data-name="Path 2323" class="cls-4" d="M44,86.59c2.8,1.62,7,1.79,9.47.39s2.13-3.85-.68-5.47-7-1.79-9.47-.39S41.22,85,44,86.59Z"/></g><g id="Group_742" data-name="Group 742"><path id="Path_2324" data-name="Path 2324" class="cls-7" d="M99.6,60.32,59.92,37.42l-4.24,2.45L95.36,62.81Z"/><path id="Path_2325" data-name="Path 2325" class="cls-7" d="M86.35,62.59,56,45.09l-4.21,2.45L82.14,65Z"/></g></g></g></g></g></svg>