<svg xmlns="http://www.w3.org/2000/svg" viewBox="0 0 69.38 137.93"><defs><style>.cls-1{fill:#9f9ead;}.cls-2{fill:#e3e3e3;}.cls-3,.cls-6,.cls-7{fill:#fff;}.cls-4{fill:#747373;}.cls-5{fill:#f8d300;}.cls-6{opacity:0.26;}.cls-6,.cls-7{isolation:isolate;}.cls-7{opacity:0.49;}</style></defs><title>Plus_3</title><g id="Слой_2" data-name="Слой 2"><g id="Слой_1-2" data-name="Слой 1"><g id="Group_960" data-name="Group 960"><path id="Path_1599" data-name="Path 1599" class="cls-1" d="M6.53,27.24,52.83.73a5.37,5.37,0,0,1,5.46,0h0l7.63,4.55h0a5.37,5.37,0,0,1,3.46,5V99.44a13.06,13.06,0,0,1-6.53,11.31l-46.3,26.44a5.36,5.36,0,0,1-5,.19l0,.05-8.75-5.16h0A5.35,5.35,0,0,1,0,127.57v-89A13.08,13.08,0,0,1,6.53,27.24Z"/><path id="Path_1600" data-name="Path 1600" class="cls-2" d="M69.38,99.44V10.35a5.4,5.4,0,0,0-8.11-4.68L15,32.18A13.06,13.06,0,0,0,8.44,43.49v89a5.4,5.4,0,0,0,8.11,4.68l46.3-26.44A13.09,13.09,0,0,0,69.38,99.44Z"/><path id="Path_1601" data-name="Path 1601" class="cls-3" d="M63.59,13.3,16.2,40.24v80.4L63.59,93Z"/><path id="Path_1614" data-name="Path 1614" class="cls-4" d="M37.52,117.12c0,2.95,1.8,4.31,4,3s4-4.71,4-7.67-1.8-4.31-4-3S37.52,114.16,37.52,117.12Z"/><path id="Path_2326" data-name="Path 2326" class="cls-5" d="M30,62c3.22-6.15,8.43-9.16,11.65-6.73,3.22-6.15,8.44-9.16,11.65-6.73s3.22,9.39,0,15.54L41.64,86.35,30,77.54C26.77,75.11,26.77,68.15,30,62Z"/><g id="Group_744" data-name="Group 744"><path id="Path_1623" data-name="Path 1623" class="cls-6" d="M63.59,83,16.2,47.18V40.12l34-19.31L63.59,31Z"/><path id="Path_1624" data-name="Path 1624" class="cls-7" d="M16.2,101V65L56.47,95.44,29.54,111.13Z"/></g></g></g></g></svg>