<svg xmlns="http://www.w3.org/2000/svg" viewBox="0 0 134.21 126.11"><defs><style>.cls-1{fill:#747373;}.cls-2{fill:#ccc;}.cls-3{fill:#fff;}.cls-4{fill:none;}.cls-5{fill:#a3a3a3;}.cls-6{fill:#a9a9a9;}.cls-7{fill:#ededed;}.cls-8{fill:#e2e2e2;}.cls-9{fill:#ddd;}.cls-10{fill:#eaeaea;}.cls-11{fill:#515253;}.cls-12{fill:#6c777a;}.cls-13{fill:#f8d300;}.cls-14{fill:#e7e7e7;}</style></defs><title>Plus_1</title><g id="Слой_2" data-name="Слой 2"><g id="Слой_1-2" data-name="Слой 1"><g id="Group_959" data-name="Group 959"><g id="Group_893" data-name="Group 893"><g id="Group_891" data-name="Group 891"><g id="Group_854" data-name="Group 854"><path id="Path_2495" data-name="Path 2495" class="cls-1" d="M3.83,59.49,76.91,17.31V83.92L3.83,126.11Z"/><path id="Path_2496" data-name="Path 2496" class="cls-1" d="M76.91,17.31,73,15.12,0,57.27l3.83,2.22Z"/><path id="Path_2497" data-name="Path 2497" class="cls-1" d="M0,57.27v66.61l3.83,2.23V59.49Z"/></g><g id="Group_855" data-name="Group 855"><path id="Path_2498" data-name="Path 2498" class="cls-2" d="M3.83,49,76.91,6.8V17.43L3.83,59.62Z"/><path id="Path_2499" data-name="Path 2499" class="cls-2" d="M3.83,59.49,76.91,17.31V83.92L3.83,126.11Z"/><path id="Path_2500" data-name="Path 2500" class="cls-1" d="M3.83,49,76.91,6.8V17.43L3.83,59.62Z"/><path id="Path_2501" data-name="Path 2501" class="cls-1" d="M76.91,6.8,73,4.58,0,46.76,3.83,49Z"/><path id="Path_2502" data-name="Path 2502" class="cls-1" d="M0,46.76V57.39l3.83,2.23V49Z"/></g><path id="Path_2503" data-name="Path 2503" class="cls-1" d="M73,25.63v8.9L65.38,39v-8.9Z"/><path id="Path_2504" data-name="Path 2504" class="cls-1" d="M63.44,31.19v8.9l-7.7,4.41V35.64Z"/><path id="Path_2505" data-name="Path 2505" class="cls-3" d="M53.84,36.75v8.86l-7.7,4.45V41.2Z"/><path id="Path_2506" data-name="Path 2506" class="cls-3" d="M44.2,42.31v8.86l-7.66,4.45v-8.9Z"/><path id="Path_2507" data-name="Path 2507" class="cls-3" d="M34.6,47.83v8.9l-7.7,4.41V52.28Z"/><path id="Path_2508" data-name="Path 2508" class="cls-3" d="M25,53.39v8.86L17.3,66.7V57.84Z"/><path id="Path_2509" data-name="Path 2509" class="cls-3" d="M15.37,59v8.85L7.7,72.26v-8.9Z"/><path id="Path_2510" data-name="Path 2510" class="cls-1" d="M73,37.41v8.9l-7.66,4.45v-8.9Z"/><path id="Path_2511" data-name="Path 2511" class="cls-1" d="M63.44,43v8.9l-7.7,4.41V47.42Z"/><path id="Path_2512" data-name="Path 2512" class="cls-3" d="M53.84,48.53v8.86l-7.7,4.45V53Z"/><path id="Path_2513" data-name="Path 2513" class="cls-3" d="M44.2,54.09V63L36.54,67.4V58.5Z"/><path id="Path_2514" data-name="Path 2514" class="cls-3" d="M34.6,59.62v8.9l-7.7,4.4V64.07Z"/><path id="Path_2515" data-name="Path 2515" class="cls-3" d="M25,65.18V74l-7.7,4.45V69.63Z"/><path id="Path_2516" data-name="Path 2516" class="cls-3" d="M15.37,70.74V79.6L7.7,84.05v-8.9Z"/><path id="Path_2517" data-name="Path 2517" class="cls-1" d="M73,49.19v8.9l-7.66,4.45v-8.9Z"/><path id="Path_2518" data-name="Path 2518" class="cls-1" d="M63.44,54.75v8.9l-7.7,4.41V59.2Z"/><path id="Path_2519" data-name="Path 2519" class="cls-3" d="M53.84,60.32v8.85l-7.7,4.45V64.76Z"/><path id="Path_2520" data-name="Path 2520" class="cls-3" d="M44.2,65.88v8.85l-7.66,4.45v-8.9Z"/><path id="Path_2521" data-name="Path 2521" class="cls-3" d="M34.6,71.4v8.9l-7.7,4.41V75.85Z"/><path id="Path_2522" data-name="Path 2522" class="cls-3" d="M25,77v8.86l-7.7,4.45V81.41Z"/><path id="Path_2523" data-name="Path 2523" class="cls-3" d="M15.37,82.52v8.86L7.7,95.83v-8.9Z"/><path id="Path_2524" data-name="Path 2524" class="cls-1" d="M73,61v8.9l-7.66,4.45v-8.9Z"/><path id="Path_2525" data-name="Path 2525" class="cls-1" d="M63.44,66.54v8.9l-7.7,4.4V71Z"/><path id="Path_2526" data-name="Path 2526" class="cls-3" d="M53.84,72.1V81l-7.7,4.45V76.55Z"/><path id="Path_2527" data-name="Path 2527" class="cls-3" d="M44.2,77.66v8.86L36.54,91v-8.9Z"/><path id="Path_2528" data-name="Path 2528" class="cls-3" d="M34.6,83.18v8.9l-7.7,4.41V87.63Z"/><path id="Path_2529" data-name="Path 2529" class="cls-3" d="M25,88.74V97.6l-7.7,4.45V93.19Z"/><path id="Path_2530" data-name="Path 2530" class="cls-3" d="M15.37,94.3v8.86L7.7,107.61v-8.9Z"/><path id="Path_2531" data-name="Path 2531" class="cls-1" d="M73,72.76v8.9l-7.66,4.45v-8.9Z"/><path id="Path_2532" data-name="Path 2532" class="cls-1" d="M63.44,78.32v8.9l-7.7,4.41V82.77Z"/><path id="Path_2533" data-name="Path 2533" class="cls-3" d="M53.84,83.88v8.86l-7.7,4.45V88.33Z"/><path id="Path_2534" data-name="Path 2534" class="cls-3" d="M44.2,89.44V98.3l-7.66,4.45v-8.9Z"/><path id="Path_2535" data-name="Path 2535" class="cls-3" d="M34.6,95v8.9l-7.7,4.41V99.41Z"/><path id="Path_2536" data-name="Path 2536" class="cls-3" d="M25,100.52v8.86l-7.7,4.45V105Z"/><path id="Path_2537" data-name="Path 2537" class="cls-3" d="M15.37,106.08v8.86L7.7,119.39v-8.9Z"/><g id="Group_871" data-name="Group 871"><g id="Group_858" data-name="Group 858"><path id="Path_2538" data-name="Path 2538" class="cls-2" d="M13.1,50.51c-1,1.65-2.64,2.47-3.67,1.86s-1.11-2.48-.12-4.12S12,45.77,13,46.39,14.09,48.86,13.1,50.51Z"/><g id="Group_856" data-name="Group 856"><path id="Path_2539" data-name="Path 2539" class="cls-3" d="M10.3,47c.16.12.37.21.54.33a2.78,2.78,0,0,0,2.55.21,2.78,2.78,0,0,0,1-2.35,9.15,9.15,0,0,0-1.32-4.58c-1.48-2.47-3.54-3.79-5-3.79a1.6,1.6,0,0,0-.91.25c-1.16.7-1.48,3.09-.29,5.77l-3,1.65c-2-4.25-1.4-8.61,1.53-10.34,3.21-1.9,7.87.16,10.59,4.73a12.2,12.2,0,0,1,1.81,6.39,6,6,0,0,1-2.68,5.15,5.29,5.29,0,0,1-2.64.7,7.32,7.32,0,0,1-3.17-.82l-.7-.38A5.44,5.44,0,0,1,10.3,47Z"/></g></g><g id="Group_861" data-name="Group 861"><path id="Path_2542" data-name="Path 2542" class="cls-2" d="M27.19,42.44c-1,1.64-2.64,2.47-3.67,1.85s-1.11-2.47-.12-4.12S26,37.7,27.06,38.32,28.18,40.79,27.19,42.44Z"/><g id="Group_859" data-name="Group 859"><path id="Path_2543" data-name="Path 2543" class="cls-3" d="M24.39,38.93c.16.13.37.21.53.33a2.74,2.74,0,0,0,2.56.21,2.79,2.79,0,0,0,1-2.35,9.22,9.22,0,0,0-1.32-4.57c-1.48-2.47-3.54-3.79-5-3.79a1.52,1.52,0,0,0-.9.25c-1.16.7-1.49,3.09-.29,5.76l-3,1.69c-2-4.24-1.4-8.61,1.53-10.34,3.21-1.9,7.87.17,10.59,4.74a12.2,12.2,0,0,1,1.81,6.39,6,6,0,0,1-2.68,5.15,5.29,5.29,0,0,1-2.64.7,7.19,7.19,0,0,1-3.17-.83c-.25-.12-.45-.24-.7-.37A5.35,5.35,0,0,1,24.39,38.93Z"/></g></g><g id="Group_864" data-name="Group 864"><path id="Path_2546" data-name="Path 2546" class="cls-2" d="M42,33.83c-1,1.64-2.64,2.47-3.67,1.85s-1.11-2.47-.12-4.12,2.64-2.47,3.66-1.85S43,32.18,42,33.83Z"/><g id="Group_863" data-name="Group 863"><path id="Path_2547" data-name="Path 2547" class="cls-3" d="M39.18,30.32c.16.13.37.21.53.33a2.21,2.21,0,0,0,3.59-2.14A9.22,9.22,0,0,0,42,23.94c-1.48-2.47-3.54-3.79-5-3.79a1.59,1.59,0,0,0-.9.25c-1.16.7-1.49,3.09-.29,5.77l-3,1.69c-2-4.25-1.4-8.61,1.53-10.34,3.21-1.9,7.87.16,10.59,4.73a12.2,12.2,0,0,1,1.81,6.39A6,6,0,0,1,44,33.79a5.29,5.29,0,0,1-2.64.7,7.19,7.19,0,0,1-3.17-.83c-.25-.12-.45-.24-.7-.37A5.35,5.35,0,0,1,39.18,30.32Z"/></g></g><g id="Group_867" data-name="Group 867"><path id="Path_2550" data-name="Path 2550" class="cls-2" d="M55.66,26c-1,1.65-2.64,2.47-3.67,1.85s-1.11-2.47-.13-4.12,2.64-2.47,3.67-1.85S56.64,24.31,55.66,26Z"/><g id="Group_865" data-name="Group 865"><path id="Path_2551" data-name="Path 2551" class="cls-3" d="M52.85,22.41c.17.13.38.21.54.33A2.74,2.74,0,0,0,56,23a2.79,2.79,0,0,0,1-2.35A9.22,9.22,0,0,0,55.66,16c-1.49-2.47-3.55-3.79-5-3.79a1.5,1.5,0,0,0-.9.25c-1.16.7-1.49,3.09-.29,5.76l-3,1.69c-2-4.24-1.4-8.61,1.52-10.34,3.22-1.9,7.87.17,10.59,4.74a12.12,12.12,0,0,1,1.82,6.39,6.07,6.07,0,0,1-2.68,5.15,5.29,5.29,0,0,1-2.64.7,7.16,7.16,0,0,1-3.17-.83c-.25-.12-.45-.24-.7-.37A5.4,5.4,0,0,1,52.85,22.41Z"/></g></g><g id="Group_870" data-name="Group 870"><path id="Path_2554" data-name="Path 2554" class="cls-2" d="M70.94,17.06c-1,1.65-2.64,2.47-3.67,1.85s-1.11-2.47-.12-4.12,2.64-2.47,3.67-1.85S71.93,15.41,70.94,17.06Z"/><g id="Group_868" data-name="Group 868"><path id="Path_2555" data-name="Path 2555" class="cls-3" d="M68.14,13.56c.16.12.37.2.54.33a2.75,2.75,0,0,0,2.55.2,2.75,2.75,0,0,0,1-2.34,9.12,9.12,0,0,0-1.32-4.58c-1.48-2.47-3.54-3.79-5-3.79a1.6,1.6,0,0,0-.91.25c-1.16.7-1.48,3.13-.29,5.77L61.8,11.09c-2-4.25-1.4-8.65,1.52-10.39,3.21-1.9,7.87.17,10.59,4.74a12.2,12.2,0,0,1,1.81,6.39A6,6,0,0,1,73,17a5.28,5.28,0,0,1-2.63.7,7.2,7.2,0,0,1-3.18-.83l-.7-.37A4.93,4.93,0,0,1,68.14,13.56Z"/></g></g></g></g></g><g id="Group_853" data-name="Group 853"><path id="Path_2396" data-name="Path 2396" class="cls-4" d="M61.19,107.44s0,0-.07-.07S61.16,107.42,61.19,107.44Z"/><path id="Path_2397" data-name="Path 2397" class="cls-4" d="M61,107.21l0,.09Z"/><path id="Path_2398" data-name="Path 2398" class="cls-4" d="M60.84,106.59a1.1,1.1,0,0,0,0,.16A1.1,1.1,0,0,1,60.84,106.59Z"/><path id="Path_2399" data-name="Path 2399" class="cls-4" d="M61.24,107.49l.06.07Z"/><path id="Path_2400" data-name="Path 2400" class="cls-4" d="M60.94,107l0,.1Z"/><path id="Path_2401" data-name="Path 2401" class="cls-4" d="M60.81,106.27a2.11,2.11,0,0,0,0,.25C60.83,106.44,60.81,106.36,60.81,106.27Z"/><path id="Path_2402" data-name="Path 2402" class="cls-4" d="M60.89,106.82a.5.5,0,0,1,0,.13A.28.28,0,0,1,60.89,106.82Z"/><path id="Path_2403" data-name="Path 2403" class="cls-1" d="M134.2,58.23,60.8,100.61v5.66a2.11,2.11,0,0,0,0,.25s0,0,0,.07a1.1,1.1,0,0,0,0,.16.19.19,0,0,0,0,.07.5.5,0,0,1,0,.13.24.24,0,0,1,0,.08.42.42,0,0,1,0,.1l0,.08,0,.09.06.06a.21.21,0,0,0,.06.08l.05,0,.06.06.07,0a1.46,1.46,0,0,0,1.6-.1l69.1-39.89a4.7,4.7,0,0,0,2.14-3.7Z"/><path id="Path_2404" data-name="Path 2404" class="cls-5" d="M60.87,106.75a.19.19,0,0,0,0,.07A.19.19,0,0,1,60.87,106.75Z"/><path id="Path_2405" data-name="Path 2405" class="cls-5" d="M60.83,106.52s0,0,0,.07S60.83,106.54,60.83,106.52Z"/><path id="Path_2406" data-name="Path 2406" class="cls-5" d="M61.24,107.49l-.05,0Z"/><path id="Path_2407" data-name="Path 2407" class="cls-5" d="M61.38,107.61l-.06,0Z"/><path id="Path_2408" data-name="Path 2408" class="cls-5" d="M61.09,107.3s0,0,0,.07A.18.18,0,0,1,61.09,107.3Z"/><path id="Path_2409" data-name="Path 2409" class="cls-5" d="M60.92,107a.24.24,0,0,1,0,.08A.24.24,0,0,0,60.92,107Z"/><path id="Path_2410" data-name="Path 2410" class="cls-5" d="M61,107.13l0,.08Z"/><path id="Path_2411" data-name="Path 2411" class="cls-1" d="M61.45,107.65,49,100.43a1.52,1.52,0,0,1-.63-1.38V93.39l12.33,7.17.09,0v5.67a2,2,0,0,0,0,.25s0,0,0,.08a.4.4,0,0,0,0,.15s0,0,0,.08a.93.93,0,0,0,0,.13.11.11,0,0,1,0,.07.3.3,0,0,0,0,.1l0,.08a.41.41,0,0,0,.05.09s0,0,0,.06l.06.08s0,0,0,0l.07.07.06,0Z"/><path id="Path_2412" data-name="Path 2412" class="cls-6" d="M134.2,58.23l-.09.06-73.3,42.32-.09,0,0-14.27,1.25-.72L121.77,51,132,57l2.11,1.22Z"/><path id="Path_2413" data-name="Path 2413" class="cls-4" d="M127.76,26.52l-.06,0h.06Z"/><path id="Path_2414" data-name="Path 2414" class="cls-4" d="M127.93,26.45l-.1,0s0,0-.07,0,0,0-.06,0l0,0Z"/><path id="Path_2415" data-name="Path 2415" class="cls-4" d="M128.29,26.34l-.09,0-.08,0h0A1.66,1.66,0,0,0,128.29,26.34Z"/><path id="Path_2416" data-name="Path 2416" class="cls-4" d="M130.3,26.12h-.07A.09.09,0,0,1,130.3,26.12Z"/><path id="Path_2417" data-name="Path 2417" class="cls-4" d="M130.17,26.11h0S130.15,26.11,130.17,26.11Z"/><path id="Path_2418" data-name="Path 2418" class="cls-4" d="M130.66,26.16h-.1l-.07,0,.12,0Z"/><path id="Path_2419" data-name="Path 2419" class="cls-4" d="M130.91,26.22h0Z"/><path id="Path_2420" data-name="Path 2420" class="cls-4" d="M131,26.24l-.06,0h0S131,26.24,131,26.24Z"/><path id="Path_2421" data-name="Path 2421" class="cls-4" d="M129.69,26.09h0Z"/><path id="Path_2422" data-name="Path 2422" class="cls-4" d="M128.49,26.29h0S128.48,26.28,128.49,26.29Z"/><path id="Path_2423" data-name="Path 2423" class="cls-4" d="M129.41,26.12h-.07a.1.1,0,0,0-.07,0h-.15A1,1,0,0,1,129.41,26.12Z"/><path id="Path_2424" data-name="Path 2424" class="cls-4" d="M131.15,26.29l-.15,0h.07Z"/><path id="Path_2425" data-name="Path 2425" class="cls-4" d="M127.63,26.57h0l-.15.07-.06,0a.72.72,0,0,1,.2-.09Z"/><path id="Path_2426" data-name="Path 2426" class="cls-4" d="M62.23,67.53s0,0,0,0a.2.2,0,0,1-.05.09s0,0,0,0A.41.41,0,0,1,62.23,67.53Z"/><path id="Path_2427" data-name="Path 2427" class="cls-4" d="M131.83,26.6h0S131.83,26.58,131.83,26.6Z"/><path id="Path_2428" data-name="Path 2428" class="cls-4" d="M63.27,65.66l-.06.1,0,0A.21.21,0,0,0,63.27,65.66Z"/><path id="Path_2429" data-name="Path 2429" class="cls-4" d="M131.21,26.31h-.05l-.06,0A.21.21,0,0,1,131.21,26.31Z"/><path id="Path_2430" data-name="Path 2430" class="cls-4" d="M61.23,70.05c0-.14.09-.28.14-.42h0A2,2,0,0,0,61.23,70.05Z"/><path id="Path_2431" data-name="Path 2431" class="cls-4" d="M61.64,68.85c0,.08-.07.15-.09.22s0,0,0-.06l0-.12S61.64,68.87,61.64,68.85Z"/><path id="Path_2432" data-name="Path 2432" class="cls-4" d="M61.86,68.33l0-.08s0,0,0,0h0A.64.64,0,0,1,61.86,68.33Z"/><path id="Path_2433" data-name="Path 2433" class="cls-4" d="M60.94,71.13c0,.08,0,.16,0,.23s0,0,0-.06v0s0,0,0,0h0S60.93,71.16,60.94,71.13Z"/><path id="Path_2434" data-name="Path 2434" class="cls-4" d="M60.74,72.26s0,.07,0,.1a.14.14,0,0,1,0-.06Z"/><path id="Path_2435" data-name="Path 2435" class="cls-4" d="M131.52,26.43l-.09,0s0,0,0,0h0Z"/><path id="Path_2436" data-name="Path 2436" class="cls-4" d="M131.82,26.58a.67.67,0,0,0-.12-.06l-.07,0,.16.07,0,0Z"/><path id="Path_2437" data-name="Path 2437" class="cls-4" d="M61.1,70.49a1.58,1.58,0,0,1,.09-.31,1.55,1.55,0,0,0-.07.23S61.11,70.46,61.1,70.49Z"/><path id="Path_2438" data-name="Path 2438" class="cls-4" d="M64.82,63.61c0,.07-.12.13-.17.2s.09-.1.13-.16Z"/><path id="Path_2439" data-name="Path 2439" class="cls-7" d="M126.86,26.93h0l-.17.09Z"/><path id="Path_2440" data-name="Path 2440" class="cls-7" d="M127,26.84l-.08,0h0A.09.09,0,0,0,127,26.84Z"/><path id="Path_2441" data-name="Path 2441" class="cls-7" d="M127,26.84l-.08,0h0A.09.09,0,0,0,127,26.84Z"/><path id="Path_2442" data-name="Path 2442" class="cls-8" d="M131,26.25H131s0,0,0,0Z"/><path id="Path_2443" data-name="Path 2443" class="cls-9" d="M60.63,73.77h0Z"/><path id="Path_2444" data-name="Path 2444" class="cls-2" d="M131.79,26.7l-.15-.08-.07,0,0,0h0l-.09,0h0s0,0,0,0l-.06,0h0l-.05,0-.11,0H131a.09.09,0,0,0-.07,0h0s0,0,0,0h-.05l-.09,0h-.12l-.11,0h-1.07l-.3,0h0l-.14,0h-.08l-.14,0-.09,0s0,0,0,0h-.14l0,0h-.09l0,0h0a1.66,1.66,0,0,0-.21.06l0,0h0l-.1,0-.18.07h-.08l0,0-.06,0-.21.09-.05,0h0a.05.05,0,0,1,0,0l-.21.1L127,27h0s0,0,0,0,0,0,0,0h0l-.17.09-.18.1L68.13,61l-.36.22-.12.08a.21.21,0,0,1-.1.06c-.12.08-.25.17-.36.26l-.13.09-.13.1c-.08,0-.14.12-.22.17l-.13.1-.24.2-.09.08-.34.3s0,0-.06.07l-.18.18h0l0,0-.39.39s0,0,0,0l-.35.38,0,0s-.09.1-.13.16l-.14.16-.16.21c-.06.05-.09.11-.15.17a.35.35,0,0,0-.06.09,4.08,4.08,0,0,0-.25.33h0a.39.39,0,0,1-.08.1.86.86,0,0,1-.07.1l-.07.09-.15.24,0,.06c-.05.09-.12.17-.17.26a0,0,0,0,1,0,0h0l0,0s0,0,0,0a.28.28,0,0,0-.05.08l-.13.2a2,2,0,0,0-.14.25s0,0,0,0l-.07.1-.13.23-.15.28a.13.13,0,0,1,0,0,.19.19,0,0,1-.05.09l-.23.46a.73.73,0,0,0-.05.09.13.13,0,0,1,0,0,.94.94,0,0,0-.06.15l-.23.5-.12.26c0,.1-.08.21-.13.31l0,.11c0,.07,0,.13-.07.21a15.77,15.77,0,0,0-.6,2h0s0,0,0,0v0c0,.08,0,.14,0,.21s0,.1,0,.14a1,1,0,0,0,0,.18s0,0,0,.07a2.34,2.34,0,0,1,0,.26h0s0,.07,0,.09v0a.15.15,0,0,1,0,.07.17.17,0,0,1,0,.07v.07A4.2,4.2,0,0,0,60.63,74h0l0,12.52,0,14.27L48.38,93.52v.61l-.09,0-.08-27.4a14.35,14.35,0,0,1,1-4.93,13.59,13.59,0,0,1,2-3.73,22,22,0,0,1,2.53-2.67l1-.81,1-.78L114.09,20l.35-.19.09-.05.31-.16h0l.27-.12.06,0,.06,0c.11-.05.22-.08.33-.12h0a1.71,1.71,0,0,1,.3-.09H116l0,0,.21-.05.1,0,.34-.07h0l.31,0a.17.17,0,0,0,.1,0,.32.32,0,0,0,.14,0h.49a1,1,0,0,1,.25,0H118a.41.41,0,0,1,.16,0h.15l.25.07h0l.25.07s0,0,.06,0l.1,0,.1,0,0,0,.25.13h0l8.57,5Z"/><path id="Path_2445" data-name="Path 2445" class="cls-9" d="M60.71,101.17,48.38,94v-.61l12.33,7.17Z"/><path id="Path_2446" data-name="Path 2446" class="cls-10" d="M126.86,26.93h0l-.17.09Z"/><path id="Path_2447" data-name="Path 2447" class="cls-10" d="M131.82,26.58l-.12-.06.13.08S131.83,26.58,131.82,26.58Z"/><path id="Path_2448" data-name="Path 2448" class="cls-10" d="M134.11,58.8l-73.3,42.32-.09,0v-.61l0-14.27,0-12.52a2.82,2.82,0,0,1,0-.41v-.13c0-.1,0-.19,0-.3s0-.1,0-.15a2.66,2.66,0,0,0,0-.28v-.07a.17.17,0,0,1,0-.07s0-.07,0-.1,0-.07,0-.09v0a2.17,2.17,0,0,1,0-.25s0-.06,0-.08,0-.12,0-.18a.42.42,0,0,1,0-.14s0-.1,0-.15,0-.15,0-.23a1.33,1.33,0,0,1,0-.19,2.5,2.5,0,0,1,.07-.26c0-.06,0-.13.05-.19s0-.09,0-.14v0a.88.88,0,0,1,0-.15l0-.12c0-.14.09-.28.14-.42s0,0,0-.06a2.09,2.09,0,0,1,.13-.35.5.5,0,0,1,0-.13.85.85,0,0,1,.09-.22c0-.09.06-.18.1-.26a2.72,2.72,0,0,1,.11-.25c.08-.17.14-.34.23-.5a1.11,1.11,0,0,0,.07-.16.41.41,0,0,1,0-.09s0,0,0,0,.15-.3.23-.45,0-.06,0-.09l0,0c.06-.09.1-.19.16-.28l.13-.24a.53.53,0,0,1,.06-.1s0,0,0,0a2.55,2.55,0,0,0,.14-.24l.13-.21a.35.35,0,0,1,0-.08.33.33,0,0,0,.06-.1h0l.16-.26,0-.06.16-.23.06-.09.16-.21h0c.08-.12.17-.23.24-.34a.22.22,0,0,0,.07-.09l.14-.16.17-.21s.09-.11.14-.17a1.62,1.62,0,0,0,.17-.19l.34-.38s0,0,0,0l.38-.39,0,0h0l.18-.18s0,0,.06-.07l.34-.3.09-.07a2.41,2.41,0,0,1,.24-.21l.13-.1.22-.17.13-.1.13-.09c.11-.09.24-.16.36-.25l.1-.07.11-.07.36-.22,58.43-33.75.18-.1.17-.09h0l0,0s0,0,0,0h0s0,0,.07,0l.22-.1h.06l0,0s0,0,.07,0l.15-.06s0,0,.05,0h.07s0,0,0,0h0l.06,0,.1,0,.1,0h.05l0,0,.08,0,.09,0h.09s0,0,0,0h.15l.08,0s0,0,0,0l.09,0,.15,0H129l.15,0h.15l.08,0h1.08l.08,0h.17l0,0,.09,0,.05,0h.15l.14,0h.05l0,0s0,0,0,0h0s.05,0,.06,0h.07a.19.19,0,0,0,.09,0h0s0,0,0,0l.06,0,.07,0,.11.07h0c1.35.77,2.19,2.45,2.2,4.82l.07,26.78v.1Z"/><path id="Path_2449" data-name="Path 2449" class="cls-10" d="M127.44,26.66l.2-.09h0A.72.72,0,0,0,127.44,26.66Z"/><path id="Path_2450" data-name="Path 2450" class="cls-10" d="M130.91,26.22h0Z"/><path id="Path_2451" data-name="Path 2451" class="cls-10" d="M131,26.25h0l-.05,0h0Z"/><path id="Path_2452" data-name="Path 2452" class="cls-10" d="M129.27,26.13l.16,0h0Z"/><path id="Path_2453" data-name="Path 2453" class="cls-10" d="M127.66,26.56h0Z"/><path id="Path_2454" data-name="Path 2454" class="cls-10" d="M129.45,26.11h0S129.43,26.11,129.45,26.11Z"/><path id="Path_2456" data-name="Path 2456" class="cls-10" d="M131,26.25H131A.07.07,0,0,1,131,26.25Z"/><path id="Path_2457" data-name="Path 2457" class="cls-7" d="M60.61,73.76h0Z"/><path id="Path_2458" data-name="Path 2458" class="cls-7" d="M60.74,72.26s0-.06,0-.09,0,.17,0,.25v0a.19.19,0,0,1,0-.08.19.19,0,0,1,0-.07Z"/><path id="Path_2459" data-name="Path 2459" class="cls-7" d="M60.92,71.26a.06.06,0,0,1,0,0s0,0,0,0S60.91,71.27,60.92,71.26Z"/><path id="Path_2460" data-name="Path 2460" class="cls-7" d="M62.18,67.62a.73.73,0,0,1,0-.09s0,0,0,0a.2.2,0,0,1-.05.09S62.17,67.63,62.18,67.62Z"/><path id="Path_2461" data-name="Path 2461" class="cls-7" d="M63.25,65.71s0,0,0,0a.86.86,0,0,1-.07.1S63.23,65.73,63.25,65.71Z"/><path id="Path_2462" data-name="Path 2462" class="cls-7" d="M63.71,65l.08-.1a4.5,4.5,0,0,1-.3.42l.15-.24A.27.27,0,0,0,63.71,65Z"/><path id="Path_2463" data-name="Path 2463" class="cls-7" d="M67.16,61.47a16.08,16.08,0,0,0-3.27,3.32c.08-.12.17-.24.25-.34l.06-.09s.09-.11.14-.17l.17-.2c0-.05.09-.12.14-.17l.13-.15,0,0,.35-.39v0l.39-.39,0,0h0a1.53,1.53,0,0,0,.18-.18l.07-.07a2.35,2.35,0,0,1,.33-.3.34.34,0,0,0,.09-.08l.25-.2.12-.1.22-.17.13-.1A.45.45,0,0,1,67.16,61.47Z"/><path id="Path_2464" data-name="Path 2464" class="cls-11" d="M131.93,33.69c0-2.27-.81-3.85-2.1-4.58L129.7,29l-.11-.06h0a.67.67,0,0,1-.12-.06l-.12-.05h0l-.13,0-.12,0h0l-.15,0-.14,0h0a.5.5,0,0,0-.13,0l-.15,0h0l-.15,0h-.61a.39.39,0,0,0-.15,0h-.32l-.18,0-.16,0-.09,0s-.06,0-.09,0l-.15,0h0l-.16,0-.16.05h0L126,29l-.15,0h0l-.19.08-.14.06s0,0,0,0a.76.76,0,0,0-.18.09l-.09.05-.06,0s0,0,0,0l-.34.18L69,61.8l-.35.21-.11.07-.23.16-.13.09-.21.15-.13.09-.2.17a.94.94,0,0,0-.12.09l-.23.19a.73.73,0,0,0-.09.08l-.31.28-.07.06-.23.24c-.12.11-.24.24-.36.37s0,0,0,0a4,4,0,0,0-.34.37,1.19,1.19,0,0,1-.15.18,1.15,1.15,0,0,0-.14.17l-.17.2-.13.17-.06.08-.4.54,0,.07q-.19.27-.36.54l-.08.13c-.09.16-.19.3-.28.45a.86.86,0,0,1-.07.1l-.3.53-.06.13c-.08.14-.14.28-.22.43a.35.35,0,0,0-.06.14c-.09.18-.17.36-.26.55l0,.08c-.07.17-.14.33-.2.5s0,.14-.08.2a.5.5,0,0,1-.05.13l-.12.34s0,0,0,.06-.09.27-.13.41l0,.12a1.71,1.71,0,0,1-.09.3c0,.06,0,.13,0,.18s0,.17-.07.25l0,.19-.06.22c0,.09,0,.18,0,.28l0,.19,0,.29a1.25,1.25,0,0,0,0,.19s0,.09,0,.13a1.24,1.24,0,0,0,0,.27s0,.09,0,.14a2.45,2.45,0,0,0,0,.27v.13c0,.13,0,.26,0,.39l.08,25,70-40.43Z"/><g id="Group_852" data-name="Group 852"><g id="Group_822" data-name="Group 822"><path id="Path_2465" data-name="Path 2465" class="cls-12" d="M88.84,59.57l4.66-2.65.83.48-.85,1.45-4.67,2.7-.81-.5Z"/></g><g id="Group_823" data-name="Group 823"><path id="Path_2466" data-name="Path 2466" class="cls-12" d="M87.91,61.17l.84.53v5.39l-.84,1.44L87.1,68l0-5.36Z"/></g><g id="Group_824" data-name="Group 824"><path id="Path_2467" data-name="Path 2467" class="cls-13" d="M94.38,57.45l.84.51,0,5.4-.84,1.45-.83-.49,0-5.36Z"/></g><g id="Group_825" data-name="Group 825"><path id="Path_2468" data-name="Path 2468" class="cls-12" d="M88.84,67.08l4.66-2.65.83.47-.82,1.43L88.82,69,88,68.58Z"/></g><g id="Group_826" data-name="Group 826"><path id="Path_2469" data-name="Path 2469" class="cls-12" d="M88.86,74.58l4.66-2.66.84.47-.84,1.43-4.67,2.7L88,76.07Z"/></g><g id="Group_827" data-name="Group 827"><path id="Path_2470" data-name="Path 2470" class="cls-12" d="M87.94,68.67l.83.52,0,5.39L88,76l-.83-.47,0-5.38Z"/></g><g id="Group_828" data-name="Group 828"><path id="Path_2471" data-name="Path 2471" class="cls-12" d="M79.43,65.06l4.65-2.67.83.49-.83,1.44L79.39,67l-.81-.49Z"/></g><g id="Group_829" data-name="Group 829"><path id="Path_2472" data-name="Path 2472" class="cls-12" d="M78.53,66.59l.83.51,0,5.4L78.54,74l-.82-.49,0-5.38Z"/></g><g id="Group_830" data-name="Group 830"><path id="Path_2473" data-name="Path 2473" class="cls-13" d="M85,70.37l.83.52,0,5.39L85,77.72l-.83-.49,0-5.36Z"/></g><g id="Group_831" data-name="Group 831"><path id="Path_2474" data-name="Path 2474" class="cls-13" d="M85,62.87l.84.51v5.4L85,70.22l-.82-.48,0-5.36Z"/></g><g id="Group_832" data-name="Group 832"><path id="Path_2475" data-name="Path 2475" class="cls-12" d="M79.45,72.5l4.66-2.66.84.48-.82,1.43-4.69,2.7L78.6,74Z"/></g><g id="Group_833" data-name="Group 833"><path id="Path_2476" data-name="Path 2476" class="cls-12" d="M78.55,74.09l.84.52V80l-.83,1.44L77.74,81l0-5.38Z"/></g><g id="Group_834" data-name="Group 834"><path id="Path_2477" data-name="Path 2477" class="cls-12" d="M79.48,80l4.66-2.66.84.47-.84,1.43-4.67,2.7-.85-.45Z"/></g><g id="Group_835" data-name="Group 835"><path id="Path_2478" data-name="Path 2478" class="cls-13" d="M100.39,60.41l4.66-2.65.84.47-.84,1.43-4.67,2.7-.85-.45Z"/></g><g id="Group_836" data-name="Group 836"><path id="Path_2479" data-name="Path 2479" class="cls-12" d="M99.49,62l.83.51,0,5.39-.83,1.45-.84-.48,0-5.38Z"/></g><g id="Group_837" data-name="Group 837"><path id="Path_2480" data-name="Path 2480" class="cls-12" d="M99.47,54.5l.84.52v5.39l-.84,1.44-.82-.47,0-5.38Z"/></g><g id="Group_838" data-name="Group 838"><path id="Path_2481" data-name="Path 2481" class="cls-13" d="M110.09,62.33l4.64-2.65.84.47-.82,1.42-4.68,2.7-.85-.45Z"/></g><g id="Group_839" data-name="Group 839"><path id="Path_2482" data-name="Path 2482" class="cls-13" d="M115.63,52.7l.84.51v5.4l-.83,1.44-.83-.48,0-5.38Z"/></g><g id="Group_840" data-name="Group 840"><path id="Path_2483" data-name="Path 2483" class="cls-12" d="M109.16,56.42l.84.51v5.4l-.84,1.44-.82-.48,0-5.38Z"/></g><g id="Group_841" data-name="Group 841"><path id="Path_2484" data-name="Path 2484" class="cls-13" d="M110.06,54.82l4.66-2.65.84.48-.84,1.43-4.67,2.7-.85-.45Z"/></g><g id="Group_842" data-name="Group 842"><path id="Path_2485" data-name="Path 2485" class="cls-13" d="M109.14,48.92l.83.51,0,5.41-.84,1.44-.83-.49,0-5.37Z"/></g><g id="Group_843" data-name="Group 843"><path id="Path_2486" data-name="Path 2486" class="cls-12" d="M115.61,45.2l.84.51V51.1l-.84,1.45-.82-.48,0-5.37Z"/></g><g id="Group_844" data-name="Group 844"><path id="Path_2487" data-name="Path 2487" class="cls-13" d="M94.41,65l.84.52v5.39l-.84,1.44-.82-.47,0-5.38Z"/></g><g id="Group_845" data-name="Group 845"><path id="Path_2488" data-name="Path 2488" class="cls-13" d="M105.94,50.78l.84.52v5.39L106,58.13l-.83-.47,0-5.38Z"/></g><g id="Group_846" data-name="Group 846"><path id="Path_2489" data-name="Path 2489" class="cls-13" d="M100.4,52.93l4.66-2.66.83.47L105,52.2l-4.68,2.7-.81-.49Z"/></g><g id="Group_847" data-name="Group 847"><path id="Path_2490" data-name="Path 2490" class="cls-13" d="M100.41,67.91l4.66-2.66.84.48-.83,1.42-4.68,2.7-.84-.45Z"/></g><g id="Group_848" data-name="Group 848"><path id="Path_2491" data-name="Path 2491" class="cls-13" d="M106,58.29l.82.51,0,5.39L106,65.64l-.83-.49,0-5.37Z"/></g><g id="Group_849" data-name="Group 849"><path id="Path_2492" data-name="Path 2492" class="cls-13" d="M110.05,47.37l4.66-2.65.84.48-.85,1.45L110,49.35l-.81-.49Z"/></g><g id="Group_850" data-name="Group 850"><path id="Path_2493" data-name="Path 2493" class="cls-14" d="M96.78,60.93c.28-.17.51,0,.53.3a1.17,1.17,0,0,1-.52.9c-.3.16-.53,0-.53-.3A1.1,1.1,0,0,1,96.78,60.93Z"/></g><g id="Group_851" data-name="Group 851"><path id="Path_2494" data-name="Path 2494" class="cls-14" d="M96.79,64.86a.33.33,0,0,1,.53.3,1.13,1.13,0,0,1-.52.9c-.3.17-.52,0-.52-.3A1.11,1.11,0,0,1,96.79,64.86Z"/></g></g></g></g></g></g></svg>