<svg xmlns="http://www.w3.org/2000/svg" viewBox="0 0 27.43 16"><defs><style>.cls-1{fill:#fff;}</style></defs><title>vk</title><g id="Слой_2" data-name="Слой 2"><g id="Слой_1-2" data-name="Слой 1"><g id="vk"><g id="Group_630" data-name="Group 630"><path id="Path_118" data-name="Path 118" class="cls-1" d="M26.22,12.28a23.91,23.91,0,0,0-1.93-2l-.7-.66h0A1.49,1.49,0,0,1,23.12,9a1.32,1.32,0,0,1,.33-.73c.37-.51.75-1,1.13-1.51l1-1.34.07-.1a10.36,10.36,0,0,0,1.66-2.93,1.41,1.41,0,0,0-.05-1.22,1.48,1.48,0,0,0-1.06-.6,3.44,3.44,0,0,0-.46,0H21.58a1.47,1.47,0,0,0-1.49,1c-.22.55-.48,1.19-.77,1.79A14.56,14.56,0,0,1,17,6.93l0,.05a1.31,1.31,0,0,1-.24.23,1.19,1.19,0,0,1-.25-.7V1.68a.22.22,0,0,0,0-.08A1.55,1.55,0,0,0,15.06,0H10.62A2,2,0,0,0,9,.78a.82.82,0,0,0-.23.81.84.84,0,0,0,.68.49.91.91,0,0,1,.79.87,13.34,13.34,0,0,1,.06,3.34,2.43,2.43,0,0,1-.18.83l-.06.11A.34.34,0,0,1,10,7.17a3.63,3.63,0,0,1-.83-.92A23,23,0,0,1,6.66,1.64,1.65,1.65,0,0,0,5.12.52C3.79.5,2.55.5,1.34.52a1.32,1.32,0,0,0-1.18.53,1.34,1.34,0,0,0,0,1.3A46.9,46.9,0,0,0,5.1,11.12,12.67,12.67,0,0,0,9,14.73,10,10,0,0,0,14.07,16l.68,0c1.2-.05,1.69-.53,1.74-1.7a3.44,3.44,0,0,1,.34-1.55.4.4,0,0,1,.2-.22.42.42,0,0,1,.3.1,3.18,3.18,0,0,1,.58.52l.49.54c.34.38.69.78,1.06,1.15A3.55,3.55,0,0,0,22.32,16h3.85a1.27,1.27,0,0,0,1-.67,1.69,1.69,0,0,0,0-1.62A7.91,7.91,0,0,0,26.22,12.28Zm.05,2.51a.18.18,0,0,1-.15.11H22.26a2.39,2.39,0,0,1-2-.83c-.35-.36-.7-.74-1-1.11-.16-.18-.32-.37-.5-.55a4.14,4.14,0,0,0-.8-.7,1.45,1.45,0,0,0-1.16-.24,1.43,1.43,0,0,0-.9.75,4.58,4.58,0,0,0-.47,2c0,.4-.08.51-.12.54a1.16,1.16,0,0,1-.58.12A9.36,9.36,0,0,1,9.51,13.8,11.5,11.5,0,0,1,6,10.49a45.62,45.62,0,0,1-4.8-8.57.79.79,0,0,1-.08-.26.57.57,0,0,1,.26,0c1.19,0,2.42,0,3.74,0,.19,0,.39.06.55.44A23.7,23.7,0,0,0,8.25,6.9a4.45,4.45,0,0,0,1.1,1.19,1.22,1.22,0,0,0,1,.23,1.2,1.2,0,0,0,.76-.76,3.56,3.56,0,0,0,.26-1.16,15,15,0,0,0-.06-3.6,2,2,0,0,0-1.14-1.61.84.84,0,0,1,.41-.08H14.9c.24,0,.29.12.31.14a1.32,1.32,0,0,1,.13.48V6.5a1.9,1.9,0,0,0,1,1.76h0a1.28,1.28,0,0,0,1.39-.52l0,0A15.4,15.4,0,0,0,20.3,3.8c.32-.63.59-1.3.81-1.86.12-.29.22-.33.46-.33h4.19a1.31,1.31,0,0,1,.28,0,.8.8,0,0,1,.3.09.78.78,0,0,1-.06.31,9.59,9.59,0,0,1-1.5,2.62l-.08.1c-.32.45-.66.9-1,1.33s-.77,1-1.14,1.54a1.83,1.83,0,0,0,0,2.57,1.68,1.68,0,0,0,.29.24c.23.23.47.46.71.67A23.2,23.2,0,0,1,25.38,13a7,7,0,0,1,.86,1.23.63.63,0,0,1,0,.58Z"/></g></g></g></g></svg>