<svg xmlns="http://www.w3.org/2000/svg" viewBox="0 0 368.66 236.79"><defs><style>.cls-1{fill:#9f9ead;}.cls-2{fill:#fff;}.cls-3{fill:#e5e5e5;}</style></defs><title>keyboard_1</title><g id="Слой_2" data-name="Слой 2"><g id="Слой_1-2" data-name="Слой 1"><g id="Group_936" data-name="Group 936"><path id="Path_2230" data-name="Path 2230" class="cls-1" d="M236.13.29a45.1,45.1,0,0,1,27.55,5.76l98.71,57a12.41,12.41,0,0,1,6.26,10.77h0v23.1l-.09,0a12.43,12.43,0,0,1-6.2,12.23L150.67,230.75a45.43,45.43,0,0,1-45.31,0L6.17,173.56a12.18,12.18,0,0,1-6.1-9.47l-.07,0V138.48H0a12.53,12.53,0,0,1,.64-3.89C-.28,134.41,240-4,236.13.29Z"/><path id="Path_2233" data-name="Path 2233" class="cls-2" d="M6.17,149.14l99.19,57.17a45.43,45.43,0,0,0,45.31,0L362.37,84.75a12.52,12.52,0,0,0,0-21.7l-98.72-57A45.22,45.22,0,0,0,218.6,6L6.2,127.77a12.33,12.33,0,0,0,0,21.37Z"/><path id="Path_2234" data-name="Path 2234" class="cls-3" d="M334.79,61.41,255.74,16.24,30.9,145.77l78.89,45.55Z"/><g id="Group_720" data-name="Group 720"><path id="Path_1795" data-name="Path 1795" class="cls-2" d="M247.56,80.64l-9.39-5.42L221.92,84.6,231.31,90Z"/><path id="Path_1796" data-name="Path 1796" class="cls-2" d="M223.22,94.69l-9.39-5.42L193.56,101l9.32,5.47Z"/><path id="Path_1797" data-name="Path 1797" class="cls-2" d="M274.19,65.27l-9.4-5.43-18.53,10.7L255.65,76Z"/><path id="Path_1798" data-name="Path 1798" class="cls-2" d="M300.61,50l-9.67-5.51.11.18L272.89,55.17l9.39,5.43Z"/><path id="Path_1799" data-name="Path 1799" class="cls-2" d="M226.93,59.39l11.24,6.49,18.53-10.7-11.23-6.49Z"/><path id="Path_1800" data-name="Path 1800" class="cls-2" d="M194.82,111.09l-9.32-5.47-19.84,11.46,9.39,5.42Z"/><path id="Path_1801" data-name="Path 1801" class="cls-2" d="M253.56,44l11.23,6.49L283,40l-11.32-6.44Z"/><path id="Path_1802" data-name="Path 1802" class="cls-2" d="M230.08,70.55l-11.24-6.49-16.25,9.39,11.24,6.48Z"/><path id="Path_1803" data-name="Path 1803" class="cls-2" d="M149.48,117.08l-11.24-6.49-20.51,11.85L129,128.92Z"/><path id="Path_1804" data-name="Path 1804" class="cls-2" d="M218.84,54.72,237.38,44l-8.07-4.66-18.53,10.7Z"/><path id="Path_1805" data-name="Path 1805" class="cls-2" d="M167,127.17l-9.39-5.42L137.05,133.6l9.39,5.42Z"/><path id="Path_1806" data-name="Path 1806" class="cls-2" d="M174.39,89.73l11.14,6.53,20.2-11.66L194.5,78.11Z"/><path id="Path_1807" data-name="Path 1807" class="cls-2" d="M146.34,105.92l11.23,6.49,19.91-11.49-11.15-6.54Z"/><path id="Path_1808" data-name="Path 1808" class="cls-2" d="M194.5,68.77l16.25-9.38-8.06-4.66-16.25,9.39Z"/><path id="Path_1809" data-name="Path 1809" class="cls-2" d="M86.76,140.32,98,146.81l22.88-13.21-11.23-6.49Z"/><path id="Path_1810" data-name="Path 1810" class="cls-2" d="M282.28,69.94l-18.54,10.7,11.85,6.84L294.1,76.76Z"/><path id="Path_1811" data-name="Path 1811" class="cls-2" d="M308.76,54.65,290.37,65.27l11.81,6.82,18.45-10.68Z"/><path id="Path_1812" data-name="Path 1812" class="cls-2" d="M255.65,85.31,154.53,143.69l12,6.92,101-58.45Z"/><path id="Path_1813" data-name="Path 1813" class="cls-2" d="M245.47,39.34l18.07-10.43-8.12-4.63-18,10.4Z"/><path id="Path_1814" data-name="Path 1814" class="cls-2" d="M158.45,155.29l-12-6.93-22.87,13.21,12,7Z"/><path id="Path_1815" data-name="Path 1815" class="cls-2" d="M115.47,166.24,98,176.31l12.08,7,17.41-10.07Z"/><path id="Path_1816" data-name="Path 1816" class="cls-2" d="M70.58,140.32l-8-4.64-17.49,10.1,8.05,4.64Z"/><path id="Path_1817" data-name="Path 1817" class="cls-2" d="M109.64,117.77l20.52-11.85-8-4.65-20.52,11.85Z"/><path id="Path_1818" data-name="Path 1818" class="cls-2" d="M166.36,85l20-11.58-8.06-4.65-20,11.54Z"/><path id="Path_1819" data-name="Path 1819" class="cls-2" d="M78.67,135.65l22.88-13.21-8-4.65L70.63,131Z"/><path id="Path_1820" data-name="Path 1820" class="cls-2" d="M138.24,101.25,158.3,89.67l-8-4.69L130.19,96.6Z"/><path id="Path_1821" data-name="Path 1821" class="cls-2" d="M107.39,161.57,98,156.15,80.54,166.23l9.4,5.41Z"/><path id="Path_1822" data-name="Path 1822" class="cls-2" d="M138.36,143.69l-9.4-5.42-22.88,13.21,9.4,5.42Z"/><path id="Path_1823" data-name="Path 1823" class="cls-2" d="M72.44,161.56,89.9,151.47,78.67,145,61.19,155.07Z"/></g></g></g></g></svg>