<svg xmlns="http://www.w3.org/2000/svg" viewBox="0 0 216.48 146.31"><defs><style>.cls-1{fill:#fff;}</style></defs><title>adidas</title><g id="Слой_2" data-name="Слой 2"><g id="Слой_1-2" data-name="Слой 1"><path id="Path_2235-4" data-name="Path 2235-4" class="cls-1" d="M199.89,146.23c-10.13,0-16.13-5.18-16.59-12.64H193c0,2.49,1.38,5.8,7.37,6,4.15,0,6.45-2.49,6.45-4.36-.46-2.9-4.15-3.1-7.83-3.74a38,38,0,0,1-9.68-2.46,9.91,9.91,0,0,1-5.07-8.92c0-6.64,5.54-11.82,15.21-11.82,9.22,0,15.21,4.77,15.65,12h-9.2c0-1.85-.46-5-6-5-3.69,0-6,.62-6.45,3.31,0,3.74,7.83,3.53,13.82,5,5.53,1.46,9.22,5,9.22,10,0,9.12-7.37,12.64-16.59,12.64"/><path id="Path_2236-4" data-name="Path 2236-4" class="cls-1" d="M23.5,85,55.28,66.55l17,29.25H29.49"/><g id="Path_2237-2" data-name="Path 2237-2"><path class="cls-1" d="M90.33,145.13V108.22"/><rect class="cls-1" x="85.83" y="108.22" width="9" height="36.91"/></g><path id="Path_2238-2" data-name="Path 2238-2" class="cls-1" d="M8.75,127.22a10.81,10.81,0,0,0,10.58,10.57,10.52,10.52,0,0,0,10.6-10.42v-.15a10.65,10.65,0,0,0-10.6-10.57A11,11,0,0,0,8.75,127.22M18.87,146.3a19,19,0,0,1,0-38,18.74,18.74,0,0,1,11.06,3.31v-2.9h9.22v36.7H29.93v-2.29c-2.76,2.08-6.91,3.13-11.06,3.13"/><path id="Path_2239-4" data-name="Path 2239-4" class="cls-1" d="M141.88,95.79,97.66,18.66,129.44,0l55.28,95.79"/><path id="Path_2240-2" data-name="Path 2240-2" class="cls-1" d="M51.13,127.22A10.52,10.52,0,0,0,61.6,137.79h.12a10.83,10.83,0,0,0,10.6-10.57,11,11,0,0,0-10.6-10.57,10.64,10.64,0,0,0-10.59,10.57M61.26,146.3a18.86,18.86,0,0,1-18.88-18.82v-.26a18.68,18.68,0,0,1,18.49-18.87h.39a18.77,18.77,0,0,1,11.06,3.31V96.12h9.2v49.34h-9.2v-2.29a20,20,0,0,1-11.06,3.13"/><path id="Path_2241-4" data-name="Path 2241-4" class="cls-1" d="M60.81,52,93.05,33.81l35.47,62H94.89v9.12h-9.2V95.79"/><path id="Path_2242-4" data-name="Path 2242-4" class="cls-1" d="M210.5,105.2a4.57,4.57,0,1,1,0-9.13,4.49,4.49,0,0,1,4.61,4.34v.23a4.48,4.48,0,0,1-4.39,4.56h-.22m0-8.49a3.7,3.7,0,0,0-3.7,3.7,1.85,1.85,0,0,0,0,.23,3.71,3.71,0,0,0,3.47,3.93h.22a3.71,3.71,0,0,0,3.69-3.73c0-.07,0-.14,0-.21a3.7,3.7,0,0,0-3.46-3.92h-.22"/><path id="Path_2243-4" data-name="Path 2243-4" class="cls-1" d="M211.45,103.14l-.92-2.08h-.92v2.08h-.7v-5H211a1.65,1.65,0,0,1,1.39,1.45,1.47,1.47,0,0,1-.92,1.44l.92,2.08m-1.84-4.34h-.92v1.65h.92c.92,0,.92-.21.92-.83,0-.42,0-.82-.92-.82"/><path id="Path_2244-4" data-name="Path 2244-4" class="cls-1" d="M149.66,127.22a10.54,10.54,0,0,0,10.48,10.57h.12a10.82,10.82,0,0,0,10.59-10.57,11,11,0,0,0-10.59-10.57,10.66,10.66,0,0,0-10.6,10.57m10.13,19.08a18.85,18.85,0,0,1-18.87-18.83v-.25a18.68,18.68,0,0,1,18.48-18.87h.39a18.74,18.74,0,0,1,11.06,3.31v-2.9h8.76v36.7h-8.76v-2.29a20,20,0,0,1-11.06,3.13"/><path id="Path_2245-4" data-name="Path 2245-4" class="cls-1" d="M107.31,127.22a10.83,10.83,0,0,0,10.6,10.57,10.52,10.52,0,0,0,10.6-10.44v-.13a10.65,10.65,0,0,0-10.6-10.57,11,11,0,0,0-10.6,10.57m21.2-31.1h9.2v49.34h-9.2v-2.29a17.49,17.49,0,0,1-10.6,3.13,19,19,0,1,1-.07-38h.07a16.55,16.55,0,0,1,10.6,3.31Z"/></g></g></svg>