<svg xmlns="http://www.w3.org/2000/svg" viewBox="0 0 642.28 558.45"><defs><style>.cls-1{fill:#f8d300;}.cls-2{fill:#fff;}</style></defs><title>all</title><g id="Слой_2" data-name="Слой 2"><g id="Слой_1-2" data-name="Слой 1"><path id="Path_6-2" data-name="Path 6-2" class="cls-1" d="M458.31,558.45a8,8,0,0,0,3.9-1,8.7,8.7,0,0,0,4.33-7.58V427.09c72-39.21,111.58-107.87,111.58-193.9C578.12,100.24,461.42,0,306.66,0S35.21,100.24,35.21,233.19,151.9,466.36,306.66,466.36c5.08,0,10.07-.29,15.07-.57l.33,0L453.79,557A7.87,7.87,0,0,0,458.31,558.45Z"/><path id="Path_2235-4" data-name="Path 2235-4" class="cls-2" d="M625.69,313.86c-10.12,0-16.13-5.18-16.59-12.64h9.68c0,2.49,1.38,5.8,7.37,6,4.15,0,6.45-2.49,6.45-4.36-.46-2.9-4.15-3.1-7.83-3.73a38.16,38.16,0,0,1-9.68-2.47,9.91,9.91,0,0,1-5.07-8.92c0-6.64,5.55-11.82,15.21-11.82,9.22,0,15.21,4.77,15.65,12h-9.2c0-1.86-.46-5-6-5-3.69,0-6,.62-6.44,3.31,0,3.74,7.82,3.54,13.81,5,5.53,1.46,9.22,5,9.22,10,0,9.13-7.37,12.65-16.59,12.65"/><path id="Path_2236-4" data-name="Path 2236-4" class="cls-2" d="M449.3,252.64l31.78-18.45,17.05,29.24H455.29"/><g id="Path_2237-2" data-name="Path 2237-2"><path class="cls-2" d="M516.13,312.76V275.85"/><rect class="cls-2" x="511.63" y="275.85" width="9" height="36.91"/></g><path id="Path_2238-2" data-name="Path 2238-2" class="cls-2" d="M434.55,294.85a10.81,10.81,0,0,0,10.58,10.57A10.52,10.52,0,0,0,455.73,295v-.15a10.64,10.64,0,0,0-10.6-10.56,11,11,0,0,0-10.58,10.56m10.12,19.08a19,19,0,0,1,0-37.94,18.58,18.58,0,0,1,11.06,3.31v-2.9H465v36.69h-9.22v-2.28c-2.76,2.07-6.91,3.12-11.06,3.12"/><path id="Path_2239-4" data-name="Path 2239-4" class="cls-2" d="M567.68,263.42,523.46,186.3l31.78-18.67,55.28,95.79"/><path id="Path_2240-2" data-name="Path 2240-2" class="cls-2" d="M476.93,294.85a10.51,10.51,0,0,0,10.47,10.57h.13a10.84,10.84,0,0,0,10.6-10.57,11,11,0,0,0-10.6-10.56,10.64,10.64,0,0,0-10.6,10.56m10.14,19.08a18.85,18.85,0,0,1-18.89-18.82v-.26A18.67,18.67,0,0,1,486.67,276h.4a18.69,18.69,0,0,1,11.05,3.31V263.75h9.2v49.34h-9.2v-2.28a20,20,0,0,1-11.05,3.12"/><path id="Path_2241-4" data-name="Path 2241-4" class="cls-2" d="M486.61,219.68l32.24-18.24,35.47,62H520.69v9.13h-9.2v-9.13"/><path id="Path_2242-4" data-name="Path 2242-4" class="cls-2" d="M636.3,272.83a4.56,4.56,0,1,1,0-9.12,4.47,4.47,0,0,1,4.61,4.34v.22a4.47,4.47,0,0,1-4.39,4.56h-.22m0-8.49a3.7,3.7,0,0,0-3.7,3.7c0,.08,0,.15,0,.23a3.72,3.72,0,0,0,3.48,3.94h.21a3.72,3.72,0,0,0,3.69-3.74,1.48,1.48,0,0,0,0-.21,3.69,3.69,0,0,0-3.46-3.92h-.21"/><path id="Path_2243-4" data-name="Path 2243-4" class="cls-2" d="M637.25,270.77l-.92-2.07h-.92v2.07h-.7v-5h2.08a1.63,1.63,0,0,1,1.38,1.46,1.48,1.48,0,0,1-.92,1.44l.92,2.07m-1.84-4.34h-.92v1.65h.92c.92,0,.92-.2.92-.82,0-.43,0-.83-.92-.83"/><path id="Path_2244-4" data-name="Path 2244-4" class="cls-2" d="M575.47,294.85a10.51,10.51,0,0,0,10.47,10.57h.13a10.81,10.81,0,0,0,10.58-10.57,11,11,0,0,0-10.58-10.56,10.64,10.64,0,0,0-10.6,10.56m10.12,19.08a18.84,18.84,0,0,1-18.87-18.82v-.26A18.67,18.67,0,0,1,585.2,276h.39a18.58,18.58,0,0,1,11.06,3.31v-2.9h8.76v36.69h-8.76v-2.28a20,20,0,0,1-11.06,3.12"/><path id="Path_2245-4" data-name="Path 2245-4" class="cls-2" d="M533.12,294.85a10.81,10.81,0,0,0,10.6,10.57A10.51,10.51,0,0,0,554.31,295a.28.28,0,0,0,0-.13,10.64,10.64,0,0,0-10.6-10.56,11,11,0,0,0-10.59,10.56m21.2-31.1h9.2v49.34h-9.2v-2.28a17.59,17.59,0,0,1-10.6,3.12,19,19,0,1,1-.08-37.94h.08a16.45,16.45,0,0,1,10.6,3.31Z"/><g id="Group_725-2" data-name="Group 725-2"><path id="path18-4" class="cls-2" d="M401.5,92.43h25.6v26.12H401.5Z"/><path id="path20-4" class="cls-2" d="M458.72,43.85h2.74c17.71,0,26,10.19,29.41,37.35l5.49-.26-.73-43.1H405.52l-.89,43.1,5.28.26c.91-10.18,2-15.67,4.38-21.15,4.21-10.19,13-16.2,23.77-16.2h3.84v93.76c0,9.93-.55,13.06-2.74,15.41-1.83,1.83-5.49,2.62-9.69,2.62h-4.21v6.27h50.1v-6.27h-4.23c-4.18,0-7.86-.79-9.66-2.62-2.2-2.35-2.74-5.48-2.74-15.41V43.85"/><path id="path22-4" class="cls-2" d="M473.87,92.43h25.6v26.12h-25.6Z"/></g><g id="Group_726-2" data-name="Group 726-2"><path id="path2235-4" class="cls-2" d="M174.41,299.52H167l-6.52,7.24,1-7.24-5.54,0-3.86,20.54H158l1.55-7.67,5.2,7.67h7.64l-7.45-10.77Zm-27.88.09L145,312.42l-7.88-12.87h-5.68l-2.53,20.6h5.51l1.4-12.81,7.88,12.75h5.9L152,299.61Zm-24.3.12H116.6L106,320.09h6l1.8-3.59h6.76l1,3.65H127Zm-6.54,12.48,2.53-5.39,1.18,5.39ZM103.76,309c4-3.75,2-9.37-2.37-9.44l-8.64.1-3.47,20.44h9.83C105.77,320.06,108.51,311.78,103.76,309Zm-5.87-4.48h.92c2.52,0,1.31,2.89-.79,2.77l-.7,0Zm.43,10.71H96l.7-3.38h2.37C100.6,311.81,100.9,315.31,98.32,315.19ZM214,278.44v-1h-5v13.78h5.2v-8.42c.15-2.1,4.29-2.47,4.32,0v8.42h5.26v-8.64C223.66,277.71,218.58,275.36,214,278.44Zm-26.74,4.1c-3.22-.46-2.89-1.09-3-1.46-.06-.57,2-.7,4-.06l1.64-3.34a15,15,0,0,0-5.56-.8c-5.08.06-6.84,6-3.74,7.91,1.73,1.32,4.59.76,4.38,2.32-.19,1.24-2.62.51-5.14-.73l-1.8,3.59a12.23,12.23,0,0,0,5.5,1.61C191.66,292.24,192.05,283.3,187.24,282.54Zm9.4,2.62h10.22c0-5.6-3-8.25-7.73-8.25a7.31,7.31,0,0,0-7.72,7.43,7.42,7.42,0,0,0,7.6,7.24h.12c4.81,0,6.57-2,7.61-4.9h-4.87C199.68,289.48,196.48,287.44,196.64,285.16Zm4.65-3.26h-4C197.39,280.23,201,280.23,201.29,281.9Zm-42.55,3.26H169c0-5.6-3-8.25-7.73-8.25a7.31,7.31,0,0,0-7.72,7.43,7.43,7.43,0,0,0,7.61,7.24h.11c4.78,0,6.54-2,7.58-4.9H164C161.78,289.48,158.59,287.44,158.74,285.16Zm4.65-3.26h-4C159.49,280.23,163.14,280.23,163.39,281.9Zm-13.72-4.43v-3.08c-.09-1.12,2.56-1.58,3.47-.67v-4.5c-5.11-1.61-9.25,1.28-9.22,5.75v2.43h-4.74v-3c-.07-1.12,2.25-1.58,3.58-.67v-4.5c-4.44-1.31-9.18.85-9.15,5.72v2.43l-1.7,0h0v4.38h1.92v9.4h5.39v-9.4h5v9.4h5.56v-9.46h3.47v-4.25Zm23.46-8a3,3,0,0,0-2.92,3v0a3,3,0,1,0,2.92-3Zm-2.77,7.88v13.78h5.57V277.4Zm-42.26-7.88a3,3,0,1,0,3,3A2.95,2.95,0,0,0,128.1,269.52Zm-2.8,7.88v13.78h5.57V277.4Zm-2.77,13.79,0-13.78h-5.23v.76a6.85,6.85,0,0,0-4-1.29h0a7.35,7.35,0,0,0,0,14.69,6.83,6.83,0,0,0,4-1.24l0,.85Zm-8.27-4a3.19,3.19,0,0,1-3-3,3.07,3.07,0,0,1,3.16-3,3.11,3.11,0,0,1,3.2,3A3.19,3.19,0,0,1,114.26,287.23Zm-14-4c6.51-3.16,4.07-11.8-2.77-11.9H89.68v19.84H95v-6.45l4.57,6.45h6.32Zm-3.38-3.16H95V275.7h1.89C98.8,275.88,99.5,279.59,96.92,280.08Z"/><path id="Subtraction_1-4" data-name="Subtraction 1-4" class="cls-2" d="M0,256.36v76H76v-76Zm73.82,73.82H2.2V258.56H73.82Z"/><path id="path2233-4" class="cls-2" d="M6,315.7l9.34,9.52L37.23,303l22.62,22.67,9.48-9.39L46.93,293.9l4.31-4.17v-8.88l2.7-2.29v7l3.49,2.84L67.82,278l3.34,2.57c2-7.28-9.43-23.81-18.86-14.65l-11,10.89,2.25,2.7L38,284.93l-5.4-5.32,2.84-2.56-12-11.63C14.29,258,5,269.31,4.67,280.39L8,277.64l10.12,10.9,3.62-3v-6.68L24,280.53v8.75l4.4,4.4Z"/></g><g id="Group_724-2" data-name="Group 724-2"><path id="Path_2246-4" data-name="Path 2246-4" class="cls-2" d="M294.94,199l-9-15.72a11.45,11.45,0,0,0-5-21.78H261.83V199h8.53V184.41h6.78l8.3,14.56Zm-24.72-21.8v-8.45h9.18l0,0c2.8.15,4.58,1.77,4.58,4.22s-1.91,4.11-4.76,4.21ZM227,199V161.46h28v7.16H235.78v7.5h16.89v7.32H235.78v8H256V199Zm-40,0-9-15.72a11.45,11.45,0,0,0-5-21.78H154V199h8.52V184.41h6.79l8.3,14.56Zm-24.72-21.8v-8.45h9.19l0,0c2.8.15,4.58,1.77,4.58,4.22s-1.91,4.11-4.75,4.21Zm-31.1,22.72c10.26,0,16.38-5.9,16.38-15.77V161.49h-8.75v22c0,5.34-2.78,8.4-7.63,8.4h0c-4.84,0-7.62-3.07-7.62-8.4v-22h-8.76v22.63c0,9.88,6.12,15.77,16.38,15.77Zm-27.83-21.7A10.62,10.62,0,0,1,100.35,199H79.64V161.46H98.71a9.05,9.05,0,0,1,4.7,16.74h0ZM88.24,192h9.57a4.38,4.38,0,1,0,.37-8.76,2.29,2.29,0,0,0-.37,0H88.24Zm7-15.76a3.87,3.87,0,0,0,3.94-3.79v-.08a4,4,0,0,0-3.94-3.88h-7v7.75Z"/><path id="Path_2247-4" data-name="Path 2247-4" class="cls-2" d="M214.81,178.2A10.62,10.62,0,0,1,211.75,199h-20.7V161.46h19.07a9,9,0,0,1,4.7,16.73ZM199.64,192h9.57a4.38,4.38,0,1,0,.37-8.76,2.29,2.29,0,0,0-.37,0h-9.57Zm7-15.76a3.86,3.86,0,0,0,3.93-3.79v-.09a4,4,0,0,0-3.93-3.87h-7v7.75Z"/><path id="Path_2248-4" data-name="Path 2248-4" class="cls-2" d="M332,199l-9-15.72a11.45,11.45,0,0,0-5-21.78H298.93V199h8.52V184.41h6.79l8.3,14.56H332Zm-24.72-21.8v-8.45h9.18l0,0c2.8.15,4.58,1.77,4.58,4.21s-1.91,4.12-4.76,4.22ZM344.48,199V183.69L329.6,161.46h10.93l8.57,12.9,8.6-12.9h10.93l-14.92,22.23V199Z"/></g><g id="Group_730-2" data-name="Group 730-2"><path id="path10-4" class="cls-2" d="M272.81.4a43.37,43.37,0,0,0-34.73,15.29,19.61,19.61,0,0,0-3.55-5.36C228.34,3.37,218.46.11,205.16.11c-13,0-23.77,4-31.27,10.42C170,4.2,160.64,0,149.44,0c-14.61,0-30.59,2.09-40.09,17.34-.19-5.5-.73-8.43-3.8-11.69-3.75-3.95-9.84-5-15.73-5A27.26,27.26,0,0,0,65.08,15c-8.48,13.49-29,58-28.55,79.59.3,13.93,9.65,24,26.35,24.35,13.06.34,23.34-3.17,29.86-9.74a33.83,33.83,0,0,0,25.43,10.08c11.93,0,23.86-3.6,30.93-11.4,6,7.31,15.34,11.59,27.37,11.55a49.41,49.41,0,0,0,38.62-19c5,13.49,17.54,18.85,31.27,18.85,30.1,0,43.35-20.7,54.36-53.44,2.44-7.35,5.8-19.67,6.33-30C307.93,18.61,300.67.39,272.81.39ZM72.58,82.71c15.58-2.73,19.48,2.92,19,8.09-1.46,15.58-15.78,19.09-28.25,18.8-9-.2-17.1-4.34-17.34-14.81C45.6,76.48,64.3,34.1,73.07,20.07c4.09-6.67,9-10,16.9-10,7.5,0,9.35,3.9,9.25,8.47-.29,12.23-20.11,49.54-26.64,64.1Zm50.7-14.42q-2.62,7.29-4.53,14.81a51.31,51.31,0,0,1,15.49-2c7.45.2,12.27,3.26,12.27,9.45,0,15-16.56,19.39-28.1,19.43-12.61,0-23.72-7.2-23.72-21,0-16.22,8.77-40.77,17-57.08C121.82,11.79,132.2,9.16,150,9.16c7.8,0,16.8,3.31,16.8,10.72,0,10.23-8.67,14.12-17.24,14.61a110,110,0,0,1-12.71.19,71.11,71.11,0,0,0-5.89,12.13c15.92-2.24,22.64,1.37,20,10.57-3.66,12.42-14.42,13.25-27.62,10.91ZM201.6,29.57c-4.33,0-7.11,2.73-9.25,5.65-4.58,6.53-14.61,32.49-16.17,43.16-1,7.3,2.09,8.76,5.55,8.76,5.55,0,11.74-5.84,13.88-15.49,0,0-10.57-.24-7.65-9.6,2.83-9,8.19-11,17-11.4,17.49-.73,15.73,12.18,14.37,19.1C214.8,92.1,198.92,110,176.42,110c-15.39,0-25-8.53-25-24.21,0-11.2,5.56-28.74,10-39.06C170.77,24.84,180.61,9.6,205.6,9.6c15.05,0,26.88,5.35,25.13,19.48-1.27,10.28-6.43,16.36-15.83,17.05-2.63.24-13.35,0-9.79-10.23,1.26-3.56,1.75-6.33-3.51-6.33Zm94.49,18.51a149.23,149.23,0,0,1-15,40.33c-10.52,19-23.33,21.63-34.53,21.48s-23.77-4.24-23.87-21.48c0-12.37,5.31-29.86,9.84-41.3,7.89-20.8,16-37.7,41.5-37.41C303.69,10,298.43,36.49,296.1,48Zm-21.23-13c-.3,7.94-11.94,39.75-16.08,46.76-1.8,3-3.8,5.55-7.45,5.55-3.16,0-4.63-2.29-4.72-4.87-.2-7.16,12.95-43.1,17.48-48.95,2-3.11,4.19-3.6,6.77-3.55,3.75,0,4.1,2.72,4,5.06Z"/></g><g id="Group_729-2" data-name="Group 729-2"><path id="Subtraction_2-4" data-name="Subtraction 2-4" class="cls-2" d="M297.6,360h0l-9.94-37.09v0a17.33,17.33,0,0,0-8-30v0l-9.95-37.09,104.19-27.92L383.8,265a17.33,17.33,0,0,0,8.05,30l9.93,37.08Zm41.08-116.6-61.55,16.5,7.62,28.45a23,23,0,0,1,8.76,5.93,22.5,22.5,0,0,1,3.17,4.39,23.15,23.15,0,0,1,2.87,10.73,22.66,22.66,0,0,1-.55,5.38,23.19,23.19,0,0,1-1.76,5,23.64,23.64,0,0,1-2.86,4.48l7.49,27.93L332.64,344l-6.18-23.08,30.77-8.25-6.18-23.08-30.78,8.25-6.18-23.09,30.78-8.24Z"/></g><g id="Group_728-2" data-name="Group 728-2"><path id="лого-4" class="cls-2" d="M318.86,451.21a5.55,5.55,0,0,1-3.47,1.33c-1.9,0-5-1.74-5-6.37,0-2.81,1.32-4.3,3.89-5.61,1.65-.91,3.05-1.82,4.54-2.57Zm15.7.17a8.24,8.24,0,0,1-2.81.66c-1.32,0-2.64-1.07-2.64-4.88V433.53c0-4.62-.75-8.18-4.3-10.9a12.71,12.71,0,0,0-8.1-2.4A40.65,40.65,0,0,0,303,426.09c-1.9,1.4-2.89,2.48-2.89,4,0,2.15,3,4.13,5.12,4.13,1.74,0,2.89-.66,3.47-2.81a14.9,14.9,0,0,1,2.4-5.7,3.3,3.3,0,0,1,2.73-1.48c3.06,0,5,2.89,5,8.1v2.47c-1.9,1.66-8.26,3.64-13.14,5.46-4.3,1.57-6.28,3.63-6.28,7.93a10.78,10.78,0,0,0,11,10.58h.19c1.57,0,5.45-2.73,8.59-4.8a7.86,7.86,0,0,0,2.15,3.06,7.37,7.37,0,0,0,5,1.74l9-4.71-.83-2.65Zm-54.7-.25a7.44,7.44,0,0,1-4.54,1.32c-3.8,0-9.67-3.88-9.75-14,0-12.56,6.36-14.71,8.34-14.71,2.4,0,4.63,1.4,5.95,4.3v23.13Zm10.58-3.8V399.66a117.53,117.53,0,0,1-16.12,3v2.56c5,.58,5.54,1,5.54,5.46v10c-1.82-.25-2.73-.42-3.39-.42-12.89,0-22.64,9.18-22.64,20.41,0,12.32,9.83,18.1,16.86,18.1a7.89,7.89,0,0,0,4.21-1.49l5-3.22v4.79a132.36,132.36,0,0,1,16.28-3.22V453l-1.82-.16c-3.47-.41-3.89-.75-3.89-5.46Zm-60.57,8.18c-5.2,0-8.42-8-8.42-18.18,0-9.5,3.3-13.88,6.77-13.88,5.21,0,8.1,6.37,8.1,17.85,0,12.15-3.3,14.21-6.44,14.21Zm-.57-35.28c-9.17,0-19.67,6.78-19.67,20.08,0,9,6.36,18.43,19.34,18.43,9.66,0,19.17-6.62,19.17-19.92,0-9.91-7.28-18.59-18.84-18.59Zm-27.6,29.25v-16c0-8.42-3.88-13.3-11.07-13.3a11.76,11.76,0,0,0-6.53,2.32c-2,1.4-4,2.64-5.95,4.21a9.92,9.92,0,0,0-9.42-6.53c-2.4,0-4.63,1-7.19,2.65-1.81,1.07-3.38,2.23-5.2,3.55v-6.36a136.37,136.37,0,0,1-14.54,3.14v2.4c3.8.58,4.21,1.4,4.21,6.11v17.35c0,5.21-.5,5.46-5.21,6v2.64h19.42v-2.64c-3.14-.5-3.72-.91-3.72-5.62V429.33c2.32-1.74,4.38-2.65,6.37-2.65,3,0,5.7,1.82,5.7,7.77v15c0,4.87-.33,5-4.22,5.62v2.64h19.09v-2.64c-3.72-.5-4.3-.91-4.3-5.62V432.8c0-1.24-.17-2.4-.25-3.3,2.73-2.23,4.79-2.73,6.45-2.73,2.64,0,5.86,1.32,5.86,8.1v14.21c0,5.21-.66,5.54-4.3,6v2.64h19.5v-2.64c-4.38-.67-4.71-.91-4.71-5.62Zm-76.18-12.23c-2.81,5.7-12.14,16.2-15.37,16.2-1.15,0-2.23-1.73-2.23-5.45,0-8.18,3.3-17.93,8.93-22.06a10.18,10.18,0,0,1,5.86-1.74,13.9,13.9,0,0,1,5.54,1.16c-.58,2.64-1.82,8.59-2.73,11.9Zm3.8,15.2c-.5,0-.74-.66-.16-3.55,1.9-10.49,4.38-21.73,5.7-26.85l-.25-.34a15.93,15.93,0,0,1-3.14-.5,27.6,27.6,0,0,0-5.13-.57c-5.2,0-11.23,2.89-15.36,6.36-6,5-9.92,14-9.92,22.39,0,6.61,2.65,9.34,4.79,9.34s5-1.49,7.69-3.72a59.42,59.42,0,0,0,10.66-11.4h.17l-1.66,7.85c-1.15,6-.08,7.28,1.49,7.28,2.07,0,7.6-3.06,12.07-8.6l-1-2c-2.4,2.4-5.28,4.3-5.94,4.3ZM98.17,398.91c-1.07,0-5.78,2.15-12.23,2.9l-.33,2,2.24.08c3.8,0,4.3.58,3.47,4.13-2.81,13.64-5.7,27.19-8.6,40.74-1.73,8.1-.41,10,1.16,10,2.56,0,8.43-3.72,12.72-8.84l-1.24-1.82c-2.31,2.4-5.7,4.54-6.61,4.54-.5,0-.82-.5-.33-2.89,3.47-16.36,6.86-32.39,10.25-48.34.33-1.73.25-2.48-.5-2.48Z"/></g></g></g></svg>