<svg xmlns="http://www.w3.org/2000/svg" viewBox="0 0 288.99 38.43"><defs><style>.cls-1{fill:#fff;}</style></defs><title>burberry</title><g id="Слой_2" data-name="Слой 2"><g id="Слой_1-2" data-name="Слой 1"><g id="Group_724-2" data-name="Group 724-2"><path id="Path_2246-4" data-name="Path 2246-4" class="cls-1" d="M215.29,37.51l-9-15.72a11.45,11.45,0,0,0-5-21.78H182.19v37.5h8.53V23h6.78l8.3,14.56Zm-24.71-21.8V7.26h9.18l0,0c2.8.15,4.57,1.77,4.57,4.22s-1.9,4.11-4.75,4.21Zm-43.2,21.8V0h28V7.16H156.14v7.5H173V22H156.14v8h20.22v7.53Zm-40,0-9-15.72A11.45,11.45,0,0,0,93.48,0H74.31v37.5h8.53V23h6.78l8.3,14.56ZM82.7,15.71V7.26h9.19l0,0c2.8.15,4.58,1.77,4.58,4.22s-1.91,4.11-4.76,4.21ZM51.6,38.43C61.85,38.43,68,32.53,68,22.66V0H59.22v22c0,5.34-2.78,8.4-7.62,8.4h0c-4.85,0-7.62-3.07-7.62-8.4V0H35.22V22.66c0,9.88,6.12,15.77,16.38,15.77ZM23.77,16.73a10.62,10.62,0,0,1-3.06,20.78H0V0H19.07a9,9,0,0,1,4.69,16.74h0ZM8.6,30.51h9.57a4.38,4.38,0,0,0,.37-8.76,2.28,2.28,0,0,0-.37,0H8.6Zm7-15.76A3.85,3.85,0,0,0,19.53,11s0-.06,0-.08A4,4,0,0,0,15.6,7h-7v7.75Z"/><path id="Path_2247-4" data-name="Path 2247-4" class="cls-1" d="M135.17,16.74a10.62,10.62,0,0,1-3.06,20.77h-20.7V0h19.06a9,9,0,0,1,4.7,16.74ZM120,30.51h9.57a4.38,4.38,0,1,0,.37-8.76,2.29,2.29,0,0,0-.37,0H120Zm7-15.76A3.87,3.87,0,0,0,130.94,11v-.09A4,4,0,0,0,127,7h-7v7.75Z"/><path id="Path_2248-4" data-name="Path 2248-4" class="cls-1" d="M252.39,37.51l-9-15.72a11.45,11.45,0,0,0-5-21.78H219.29v37.5h8.52V23h6.78l8.3,14.56Zm-24.72-21.8V7.26h9.18l0,0c2.8.15,4.58,1.77,4.58,4.21s-1.91,4.12-4.76,4.22Zm37.17,21.8V22.23L250,0h10.93l8.57,12.9L278.06,0H289L274.07,22.23V37.51Z"/></g></g></g></svg>