<svg xmlns="http://www.w3.org/2000/svg" viewBox="0 0 132.1 132.1"><defs><style>.cls-1{fill:#fff;}</style></defs><title>F</title><g id="Слой_2" data-name="Слой 2"><g id="Слой_1-2" data-name="Слой 1"><g id="Group_729-2" data-name="Group 729-2"><path id="Subtraction_2-4" data-name="Subtraction 2-4" class="cls-1" d="M27.92,132.1h0L18,95v0a17.44,17.44,0,0,0,5.07-7.85A17.32,17.32,0,0,0,10,65v0L0,27.92,104.18,0l9.94,37.08a17.34,17.34,0,0,0,8,30l9.94,37.07ZM69,15.5,7.44,32l7.63,28.46a23,23,0,0,1,8.76,5.93A22.5,22.5,0,0,1,27,70.77a23.15,23.15,0,0,1,2.87,10.72,22.74,22.74,0,0,1-.55,5.39,22.92,22.92,0,0,1-1.76,5,23.33,23.33,0,0,1-2.86,4.48l7.49,27.93L63,116.08,56.78,93l30.77-8.25L81.37,61.67,50.59,69.91,44.41,46.83l30.77-8.25Z"/></g></g></g></svg>