<svg xmlns="http://www.w3.org/2000/svg" viewBox="0 0 253.49 59.91"><defs><style>.cls-1{fill:#fff;}</style></defs><title>Lamoda</title><g id="Слой_2" data-name="Слой 2"><g id="Слой_1-2" data-name="Слой 1"><g id="Group_728-2" data-name="Group 728-2"><path id="лого-4" class="cls-1" d="M237,52.3a5.54,5.54,0,0,1-3.47,1.32c-1.9,0-5-1.73-5-6.36,0-2.81,1.32-4.3,3.88-5.62,1.66-.91,3.06-1.82,4.55-2.56Zm15.7.16a8.26,8.26,0,0,1-2.81.67c-1.32,0-2.65-1.08-2.65-4.88V34.62c0-4.63-.74-8.18-4.3-10.91a12.72,12.72,0,0,0-8.1-2.39,40.68,40.68,0,0,0-13.71,5.86c-1.9,1.4-2.89,2.48-2.89,4,0,2.15,3,4.13,5.12,4.13,1.74,0,2.89-.66,3.47-2.81a14.83,14.83,0,0,1,2.4-5.7,3.31,3.31,0,0,1,2.73-1.49c3.05,0,5,2.89,5,8.1v2.48c-1.9,1.65-8.26,3.64-13.14,5.45-4.3,1.57-6.28,3.64-6.28,7.94a10.78,10.78,0,0,0,11,10.58h.19c1.57,0,5.45-2.72,8.59-4.79a7.75,7.75,0,0,0,2.15,3.06,7.41,7.41,0,0,0,5,1.73l9-4.71-.83-2.64ZM198,52.22a7.45,7.45,0,0,1-4.55,1.32c-3.8,0-9.66-3.88-9.75-14,0-12.56,6.37-14.7,8.35-14.7,2.4,0,4.63,1.4,6,4.3V52.22Zm10.57-3.8V.74a117.41,117.41,0,0,1-16.11,3V6.28c5,.58,5.54,1,5.54,5.45v10c-1.82-.24-2.73-.41-3.39-.41-12.89,0-22.64,9.17-22.64,20.41,0,12.31,9.83,18.1,16.86,18.1A7.92,7.92,0,0,0,193,58.34l5-3.23v4.8a132.39,132.39,0,0,1,16.28-3.23V54l-1.82-.16c-3.47-.42-3.89-.75-3.89-5.46ZM148,56.6c-5.2,0-8.43-8-8.43-18.18,0-9.5,3.3-13.88,6.78-13.88,5.2,0,8.1,6.36,8.1,17.85,0,12.14-3.3,14.21-6.45,14.21Zm-.58-35.28c-9.17,0-19.66,6.77-19.66,20.08,0,9,6.36,18.42,19.33,18.42,9.67,0,19.17-6.61,19.17-19.91,0-9.92-7.27-18.59-18.84-18.59ZM119.8,50.57v-16c0-8.43-3.88-13.3-11.07-13.3a11.83,11.83,0,0,0-6.53,2.31c-2,1.4-4,2.65-6,4.22a9.91,9.91,0,0,0-9.42-6.53c-2.4,0-4.63,1-7.19,2.64-1.82,1.08-3.39,2.24-5.2,3.56V21.16A136,136,0,0,1,59.89,24.3v2.4c3.8.57,4.22,1.4,4.22,6.11V50.16c0,5.21-.5,5.46-5.21,6v2.65H78.32V56.19c-3.14-.5-3.72-.9-3.72-5.62V30.41C76.92,28.68,79,27.77,81,27.77c3,0,5.7,1.82,5.7,7.77v15c0,4.87-.33,5-4.22,5.62v2.64h19.09V56.2c-3.72-.5-4.3-.91-4.3-5.62V33.89c0-1.24-.17-2.4-.25-3.3,2.73-2.24,4.79-2.73,6.44-2.73,2.65,0,5.87,1.32,5.87,8.1V50.17c0,5.21-.66,5.54-4.3,6v2.65h19.5V56.2c-4.38-.66-4.71-.91-4.71-5.62ZM43.62,38.34c-2.81,5.7-12.15,16.2-15.37,16.2-1.16,0-2.23-1.74-2.23-5.46,0-8.18,3.3-17.93,8.92-22.06a10.3,10.3,0,0,1,5.87-1.73,13.76,13.76,0,0,1,5.54,1.16c-.58,2.64-1.82,8.59-2.73,11.9Zm3.8,15.2c-.5,0-.74-.66-.17-3.55,1.9-10.5,4.38-21.73,5.7-26.86l-.24-.33a15.81,15.81,0,0,1-3.14-.5,27.71,27.71,0,0,0-5.13-.58c-5.2,0-11.23,2.9-15.37,6.37-6,5-9.91,14-9.91,22.39,0,6.61,2.64,9.33,4.79,9.33s5-1.48,7.69-3.71A59.72,59.72,0,0,0,42.3,44.7h.17l-1.66,7.85c-1.15,6-.08,7.27,1.49,7.27,2.07,0,7.6-3,12.06-8.59l-1-2c-2.4,2.4-5.29,4.3-5.95,4.3ZM16.27,0C15.2,0,10.49,2.15,4,2.89l-.33,2L5.94,5c3.8,0,4.3.58,3.47,4.13Q5.19,29.54.82,49.82c-1.73,8.1-.41,10,1.16,10,2.56,0,8.43-3.71,12.72-8.84l-1.24-1.82c-2.31,2.4-5.7,4.55-6.61,4.55-.5,0-.82-.5-.33-2.89C10,34.46,13.38,18.43,16.77,2.48,17.1.74,17,0,16.27,0Z"/></g></g></g></svg>