<svg xmlns="http://www.w3.org/2000/svg" viewBox="0 0 270.6 119.38"><defs><style>.cls-1{fill:#fff;}</style></defs><title>LEGO</title><g id="Слой_2" data-name="Слой 2"><g id="Слой_1-2" data-name="Слой 1"><g id="Group_730-2" data-name="Group 730-2"><path id="path10-4" class="cls-1" d="M236.29.39a43.35,43.35,0,0,0-34.73,15.29A19.45,19.45,0,0,0,198,10.33C191.82,3.36,181.93.1,168.63.1c-12.95,0-23.77,4-31.27,10.42C133.46,4.19,124.11,0,112.91,0,98.3,0,82.32,2.09,72.83,17.34c-.2-5.5-.74-8.43-3.8-11.69-3.75-3.95-9.84-5-15.74-5A27.29,27.29,0,0,0,28.55,15C20.08,28.44-.48,73,0,94.54c.29,13.93,9.64,24,26.35,24.35,13,.34,23.33-3.16,29.86-9.74a33.8,33.8,0,0,0,25.42,10.08c11.93,0,23.87-3.6,30.93-11.4,6,7.31,15.34,11.6,27.37,11.55a49.43,49.43,0,0,0,38.63-19c5,13.49,17.53,18.85,31.27,18.85,30.1,0,43.35-20.7,54.35-53.43,2.44-7.36,5.8-19.68,6.34-30C271.4,18.6,264.15.39,236.29.39ZM36.05,82.7c15.59-2.72,19.49,2.93,19,8.09-1.46,15.58-15.78,19.09-28.25,18.8-9-.2-17.1-4.34-17.34-14.81C9.07,76.47,27.78,34.09,36.54,20.07c4.09-6.68,9-10,16.9-10,7.5,0,9.36,3.9,9.26,8.48-.29,12.22-20.12,49.53-26.65,64.1Zm50.7-14.41q-2.61,7.29-4.53,14.8a51.36,51.36,0,0,1,15.49-2c7.45.2,12.28,3.27,12.28,9.45,0,15-16.56,19.39-28.1,19.44-12.62,0-23.72-7.21-23.72-21,0-16.22,8.76-40.76,17-57.08C85.29,11.78,95.67,9.15,113.45,9.15c7.79,0,16.8,3.32,16.8,10.72,0,10.23-8.67,14.12-17.24,14.61a112.45,112.45,0,0,1-12.72.2A72.14,72.14,0,0,0,94.4,46.8c15.93-2.24,22.65,1.37,20,10.57C110.72,69.79,100,70.62,86.75,68.28Zm78.33-38.73c-4.34,0-7.12,2.73-9.26,5.65-4.58,6.53-14.61,32.49-16.17,43.16-1,7.3,2.09,8.77,5.55,8.77,5.56,0,11.74-5.85,13.88-15.49,0,0-10.56-.25-7.64-9.6,2.82-9.06,8.18-11,17-11.4,17.49-.73,15.74,12.17,14.37,19.09C178.28,92.1,162.4,110,139.89,110c-15.39,0-25-8.52-25-24.21,0-11.2,5.55-28.73,10-39.06,9.35-21.92,19.19-37.16,44.18-37.16C184.12,9.59,196,15,194.2,29.07c-1.26,10.28-6.43,16.37-15.83,17-2.63.24-13.34,0-9.79-10.23,1.27-3.56,1.76-6.33-3.5-6.33Zm94.49,18.51a149.77,149.77,0,0,1-15,40.33C234,107.4,221.19,110,210,109.88s-23.77-4.23-23.86-21.48C186.07,76,191.43,58.55,196,47.1c7.89-20.8,16-37.7,41.5-37.4C267.17,10,261.91,36.48,259.57,48Zm-21.24-13C238,43,226.4,74.82,222.26,81.83c-1.8,3-3.8,5.56-7.45,5.56-3.17,0-4.63-2.29-4.73-4.88-.19-7.16,13-43.1,17.49-48.95,1.94-3.11,4.19-3.6,6.77-3.55,3.75,0,4.09,2.72,4,5.06Z"/></g></g></g></svg>