<svg xmlns="http://www.w3.org/2000/svg" viewBox="0 0 223.78 76.02"><defs><style>.cls-1{fill:#fff;}</style></defs><title>RaifBank</title><g id="Слой_2" data-name="Слой 2"><g id="Слой_1-2" data-name="Слой 1"><g id="Group_726-2" data-name="Group 726-2"><path id="path2235-4" class="cls-1" d="M174.41,43.16H167L160.5,50.4l1-7.24-5.54,0-3.86,20.54H158l1.55-7.67,5.2,7.67h7.64L164.89,53Zm-27.88.09L145,56.06,137.1,43.19h-5.68l-2.53,20.6h5.51L135.8,51l7.88,12.75h5.9L152,43.25Zm-24.3.12H116.6L106,63.73h6l1.8-3.59h6.76l1,3.65H127Zm-6.54,12.48,2.53-5.39,1.18,5.39ZM103.76,52.6c4-3.75,2-9.37-2.37-9.44l-8.64.1L89.28,63.7h9.83C105.77,63.7,108.51,55.42,103.76,52.6Zm-5.87-4.48h.92c2.52,0,1.31,2.89-.79,2.77l-.7,0Zm.43,10.71H96l.7-3.38h2.37C100.6,55.45,100.9,59,98.32,58.83ZM214,22.08V21h-5V34.82h5.2V26.4c.15-2.1,4.29-2.47,4.32,0v8.42h5.26V26.18C223.66,21.35,218.58,19,214,22.08Zm-26.74,4.1c-3.22-.46-2.89-1.09-3-1.46-.06-.57,2-.7,4-.06L190,21.32a15,15,0,0,0-5.56-.8c-5.08.06-6.84,6-3.74,7.91,1.73,1.32,4.59.76,4.38,2.32-.19,1.24-2.62.51-5.14-.73l-1.8,3.59a12.23,12.23,0,0,0,5.5,1.61C191.66,35.88,192.05,26.94,187.24,26.18Zm9.4,2.62h10.22c0-5.6-3-8.25-7.73-8.25A7.31,7.31,0,0,0,191.41,28a7.42,7.42,0,0,0,7.6,7.24h.12c4.81,0,6.57-2,7.61-4.9h-4.87C199.68,33.12,196.48,31.08,196.64,28.8Zm4.65-3.26h-4C197.39,23.87,201,23.87,201.29,25.54ZM158.74,28.8H169c0-5.6-3-8.25-7.73-8.25A7.31,7.31,0,0,0,153.51,28a7.43,7.43,0,0,0,7.61,7.24h.11c4.78,0,6.54-2,7.58-4.9H164C161.78,33.12,158.59,31.08,158.74,28.8Zm4.65-3.26h-4C159.49,23.87,163.14,23.87,163.39,25.54Zm-13.72-4.43V18c-.09-1.12,2.56-1.58,3.47-.67v-4.5c-5.11-1.61-9.25,1.28-9.22,5.75V21h-4.74V18c-.07-1.12,2.25-1.58,3.58-.67v-4.5c-4.44-1.31-9.18.85-9.15,5.72V21l-1.7,0h0v4.38h1.92v9.4h5.39v-9.4h5v9.4h5.56V25.36h3.47V21.11Zm23.46-7.95a3,3,0,0,0-2.92,2.95v0a3,3,0,1,0,2.92-3ZM170.36,21V34.82h5.57V21ZM128.1,13.16a2.95,2.95,0,1,0,3,2.95A2.95,2.95,0,0,0,128.1,13.16ZM125.3,21V34.82h5.57V21Zm-2.77,13.79,0-13.78h-5.23v.76a6.85,6.85,0,0,0-4-1.29h0a7.35,7.35,0,0,0,0,14.69,6.83,6.83,0,0,0,4-1.24l0,.85Zm-8.27-4a3.19,3.19,0,0,1-3-3,3.07,3.07,0,0,1,3.16-3,3.11,3.11,0,0,1,3.2,3A3.19,3.19,0,0,1,114.26,30.87Zm-14-4c6.51-3.16,4.07-11.8-2.77-11.9H89.68V34.82H95V28.37l4.57,6.45h6.32Zm-3.38-3.16H95V19.34h1.89C98.8,19.52,99.5,23.23,96.92,23.72Z"/><path id="Subtraction_1-4" data-name="Subtraction 1-4" class="cls-1" d="M0,0V76H76V0ZM73.82,73.82H2.2V2.2H73.82Z"/><path id="path2233-4" class="cls-1" d="M6,59.34l9.34,9.53L37.23,46.66,59.85,69.32l9.48-9.38-22.4-22.4,4.31-4.16V24.49l2.7-2.29v7L57.43,32l10.39-10.4,3.34,2.56c2-7.28-9.43-23.81-18.86-14.65l-11,10.9,2.25,2.7L38,28.57l-5.4-5.31,2.84-2.57-12-11.63C14.29,1.59,5,13,4.67,24L8,21.29l10.12,10.9,3.62-3V22.48L24,24.17v8.75l4.4,4.4Z"/></g></g></g></svg>