<svg xmlns="http://www.w3.org/2000/svg" viewBox="0 0 97.97 124.06"><defs><style>.cls-1{fill:#fff;}</style></defs><title>tele</title><g id="Слой_2" data-name="Слой 2"><g id="Слой_1-2" data-name="Слой 1"><g id="Group_725-2" data-name="Group 725-2"><path id="path18-4" class="cls-1" d="M0,54.59H25.6V80.71H0Z"/><path id="path20-4" class="cls-1" d="M57.22,6H60c17.7,0,26,10.19,29.4,37.35l5.49-.26L94.13,0H4L3.13,43.1l5.28.26c.91-10.19,2-15.67,4.39-21.15C17,12,25.78,6,36.56,6H40.4V99.77c0,9.93-.55,13.06-2.74,15.41-1.83,1.83-5.48,2.61-9.69,2.61h-4.2v6.27h50.1v-6.27H69.63c-4.17,0-7.86-.78-9.66-2.61-2.19-2.35-2.74-5.48-2.74-15.41V6"/><path id="path22-4" class="cls-1" d="M72.37,54.59H98V80.71H72.37Z"/></g></g></g></svg>