<svg xmlns="http://www.w3.org/2000/svg" viewBox="0 0 66.03 93.92"><defs><style>.cls-1{fill:#155c92;}.cls-2{fill:#1a6fb0;}.cls-3{fill:#1d81cd;}.cls-4{fill:#3d99e2;}.cls-5{fill:#5aaae7;}.cls-6{fill:#3d5a98;}.cls-7{fill:#fff;}</style></defs><title>facebooke</title><g id="Слой_2" data-name="Слой 2"><g id="Слой_1-2" data-name="Слой 1"><path id="Path_2198" data-name="Path 2198" class="cls-1" d="M57.43,23.09,19.49,1.18C17.09-.2,14.92-.33,13.35.58L2.64,6.81h0C1.1,7.7.13,9.61.12,12.34L0,55.94c0,5.47,3.83,12.14,8.6,14.89L46.55,92.74c2.46,1.42,4.69,1.51,6.27.51l-.14.09,10.71-6.23c1.55-.9,2.51-2.81,2.52-5.53L66,38C66.05,32.51,62.2,25.84,57.43,23.09Z"/><g id="Group_698" data-name="Group 698"><path id="Path_2199" data-name="Path 2199" class="cls-2" d="M63.39,87.12,52.68,93.34c1.55-.9,2.51-2.81,2.52-5.53l10.71-6.22C65.9,84.3,64.94,86.22,63.39,87.12Z"/><g id="Group_697" data-name="Group 697"><path id="Path_2200" data-name="Path 2200" class="cls-3" d="M2.64,6.81,13.35.58c1.57-.91,3.74-.78,6.14.6L8.78,7.41C6.38,6,4.21,5.9,2.64,6.81Z"/><path id="Path_2201" data-name="Path 2201" class="cls-3" d="M55.32,44.21,66,38l-.12,43.6L55.2,87.81Z"/></g><path id="Path_2202" data-name="Path 2202" class="cls-4" d="M8.78,7.41,19.49,1.18,57.43,23.09,46.72,29.32Z"/><path id="Path_2203" data-name="Path 2203" class="cls-5" d="M46.72,29.32l10.71-6.23C62.2,25.84,66.05,32.51,66,38L55.32,44.21C55.34,38.73,51.49,32.07,46.72,29.32Z"/></g><g id="Group_699" data-name="Group 699"><path id="Path_2204" data-name="Path 2204" class="cls-6" d="M22.3,54.27l0-9.53,7.15,4.14,0-7c0-8.15,4.37-10.09,10.7-6.43,3,1.75,5.64,3.51,6.4,4.06l0,8.52-4.39-2.53c-3.44-2-4.11-.49-4.12,2.27l0,6.08,8.21,4.74-1.1,8.91L38,63.35,38,87.79l-8.56-4.94.07-24.45L22.3,54.27"/><path id="Path_2205" data-name="Path 2205" class="cls-7" d="M29.5,42l0,7-7.15-4.13,0,9.52,7.16,4.13-.07,24.25L38,87.78,38,63.54l7.14,4.12,1.1-8.91L38.05,54l0-6.08c0-2.76.68-4.25,4.12-2.27l4.39,2.53,0-8.52c-.76-.55-3.36-2.31-6.4-4.06C33.87,32,29.53,33.89,29.5,42Z"/></g></g></g></svg>