<svg xmlns="http://www.w3.org/2000/svg" viewBox="0 0 213.04 423.48"><defs><style>.cls-1{fill:#9f9ead;}.cls-2{fill:#e3e3e3;}.cls-3,.cls-7,.cls-8{fill:#fff;}.cls-4{fill:#d1d1d1;}.cls-5{fill:#3e3e3e;}.cls-6{fill:#f8d300;}.cls-7{opacity:0.26;}.cls-7,.cls-8{isolation:isolate;}.cls-8{opacity:0.49;}</style></defs><title>Phone</title><g id="Слой_2" data-name="Слой 2"><g id="Слой_1-2" data-name="Слой 1"><g id="Group_931" data-name="Group 931"><g id="Group_647" data-name="Group 647"><path id="Path_1599" data-name="Path 1599" class="cls-1" d="M20.05,83.65,162.22,2.24a16.45,16.45,0,0,1,16.75.1h0l23.45,14h0A16.48,16.48,0,0,1,213,31.77V305.32A40.11,40.11,0,0,1,193,340.06L50.81,421.25a16.33,16.33,0,0,1-15.46.56l-.07.16L8.4,406.15h0A16.45,16.45,0,0,1,0,391.73V118.39A40.12,40.12,0,0,1,20.05,83.65Z"/><path id="Path_1600" data-name="Path 1600" class="cls-2" d="M213,305.32V31.77a16.59,16.59,0,0,0-24.9-14.37L46,98.81a40.09,40.09,0,0,0-20,34.73V406.88a16.6,16.6,0,0,0,24.89,14.37L193,340.06A40.13,40.13,0,0,0,213,305.32Z"/><path id="Path_1601" data-name="Path 1601" class="cls-3" d="M195.24,40.84,49.73,123.54V370.4l145.51-84.77Z"/><path id="Path_1614" data-name="Path 1614" class="cls-4" d="M115.22,359.6c0,9.08,5.51,13.25,12.32,9.32s12.33-14.47,12.33-23.55-5.52-13.25-12.33-9.32S115.22,350.53,115.22,359.6Z"/><path id="Path_1617" data-name="Path 1617" class="cls-5" d="M69.07,152,174.51,93.43V78.89L69.07,137.44Z"/><path id="Path_1621" data-name="Path 1621" class="cls-5" d="M69.07,302.52,174.51,244V229.43L69.07,288Z"/><path id="Path_1619" data-name="Path 1619" class="cls-6" d="M69.07,226.42l105.44-58.54V153.33L69.07,211.88Z"/><path id="Path_1618" data-name="Path 1618" class="cls-5" d="M69.07,183.79l81.34-46.71V122.54l-81.34,46.7Z"/><path id="Path_1622" data-name="Path 1622" class="cls-5" d="M69.07,334.33l81.34-46.71V273.08l-81.34,46.7Z"/><path id="Path_1620" data-name="Path 1620" class="cls-6" d="M93.06,244.17l81.34-46.7V182.93l-81.34,46.7Z"/></g><path id="Path_1623" data-name="Path 1623" class="cls-7" d="M195.24,256.88l-145.51-110V125.2L154.07,65.89,195.24,97Z"/><path id="Path_1624" data-name="Path 1624" class="cls-8" d="M49.73,312.24V201.57l123.65,93.48L90.71,343.22Z"/></g></g></g></svg>