<svg xmlns="http://www.w3.org/2000/svg" viewBox="0 0 66.03 93.92"><defs><style>.cls-1{fill:#3d99e2;}.cls-2{fill:#5aaae7;}.cls-3{fill:#78baec;}.cls-4{fill:#97c7ef;}.cls-5{fill:#b3d8f5;}.cls-6{fill:#fff;}</style></defs><title>telegram</title><g id="Слой_2" data-name="Слой 2"><g id="Слой_1-2" data-name="Слой 1"><path id="Path_2223" data-name="Path 2223" class="cls-1" d="M57.43,23.09,19.49,1.18C17.09-.2,14.92-.33,13.35.58L2.64,6.81h0C1.1,7.7.13,9.61.12,12.34L0,55.94c0,5.47,3.83,12.14,8.6,14.89L46.55,92.74c2.46,1.42,4.69,1.51,6.27.51l-.14.09,10.71-6.23c1.55-.9,2.51-2.81,2.52-5.53L66,38C66.05,32.51,62.2,25.84,57.43,23.09Z"/><g id="Group_707" data-name="Group 707"><path id="Path_2224" data-name="Path 2224" class="cls-2" d="M63.39,87.12,52.68,93.34c1.55-.9,2.51-2.81,2.52-5.53l10.71-6.22C65.9,84.3,64.94,86.22,63.39,87.12Z"/><g id="Group_706" data-name="Group 706"><path id="Path_2225" data-name="Path 2225" class="cls-3" d="M2.64,6.81,13.35.58c1.57-.91,3.74-.78,6.14.6L8.78,7.41C6.38,6,4.21,5.9,2.64,6.81Z"/><path id="Path_2226" data-name="Path 2226" class="cls-3" d="M55.32,44.21,66,38l-.12,43.6L55.2,87.81Z"/></g><path id="Path_2227" data-name="Path 2227" class="cls-4" d="M8.78,7.41,19.49,1.18,57.43,23.09,46.72,29.32Z"/><path id="Path_2228" data-name="Path 2228" class="cls-5" d="M46.72,29.32l10.71-6.23C62.2,25.84,66.05,32.51,66,38L55.32,44.21C55.34,38.73,51.49,32.07,46.72,29.32Z"/></g><g id="Group_708" data-name="Group 708"><path id="Path_2229" data-name="Path 2229" class="cls-6" d="M22,58.06a.9.9,0,0,1-.41-.59l-1.76-8.24c-.2-.94.1-1.64.73-1.73L37.1,45.35a.3.3,0,0,1,.16,0c.23.14.4.59.19.69L23.77,52.76a1.76,1.76,0,0,0-.88,1.44l-.47,3.69c0,.26-.23.29-.43.18M44.45,42a1.2,1.2,0,0,0-.36-.13L9.36,37.2c-.86-.12-.86,1.28,0,2.14l8.44,8.5,3.24,14A2.2,2.2,0,0,0,22,63.18a.75.75,0,0,0,.62.1l4.73-1.7a1.08,1.08,0,0,1,.89.15,2.69,2.69,0,0,1,.82.79l8.48,12a1.9,1.9,0,0,0,.58.55c.45.26.88.16,1-.34l6.32-30.82a2.12,2.12,0,0,0-1-1.94"/></g></g></g></svg>