<svg xmlns="http://www.w3.org/2000/svg" viewBox="0 0 66.03 93.92"><defs><style>.cls-1{fill:#7f33ad;}.cls-2{fill:#943ec7;}.cls-3{fill:#a258cb;}.cls-4{fill:#b77fda;}.cls-5{fill:#d5b4e9;}.cls-6{fill:#fff;}</style></defs><title>viber</title><g id="Слой_2" data-name="Слой 2"><g id="Слой_1-2" data-name="Слой 1"><path id="Path_2206" data-name="Path 2206" class="cls-1" d="M57.43,23.09,19.49,1.18C17.09-.2,14.92-.33,13.35.58L2.64,6.81h0C1.1,7.7.13,9.61.12,12.34L0,55.94c0,5.47,3.83,12.14,8.6,14.89L46.55,92.74c2.46,1.42,4.69,1.51,6.27.51l-.14.09,10.71-6.23c1.55-.9,2.51-2.81,2.52-5.53L66,38C66.05,32.51,62.2,25.84,57.43,23.09Z"/><g id="Group_701" data-name="Group 701"><path id="Path_2207" data-name="Path 2207" class="cls-2" d="M63.39,87.12,52.68,93.34c1.55-.9,2.51-2.81,2.52-5.53l10.71-6.22C65.9,84.3,64.94,86.22,63.39,87.12Z"/><g id="Group_700" data-name="Group 700"><path id="Path_2208" data-name="Path 2208" class="cls-3" d="M2.64,6.81,13.35.58c1.57-.91,3.74-.78,6.14.6L8.78,7.41C6.38,6,4.21,5.9,2.64,6.81Z"/><path id="Path_2209" data-name="Path 2209" class="cls-3" d="M55.32,44.21,66,38l-.12,43.6L55.2,87.81Z"/></g><path id="Path_2210" data-name="Path 2210" class="cls-4" d="M8.78,7.41,19.49,1.18,57.43,23.09,46.72,29.32Z"/><path id="Path_2211" data-name="Path 2211" class="cls-5" d="M46.72,29.32l10.71-6.23C62.2,25.84,66.05,32.51,66,38L55.32,44.21C55.34,38.73,51.49,32.07,46.72,29.32Z"/></g><g id="Group_702" data-name="Group 702"><path id="Path_2212" data-name="Path 2212" class="cls-6" d="M17.05,27.25a3.5,3.5,0,0,0-1-.38c-3.77-.72-5.34,1.94-3.86,7A91,91,0,0,0,34.42,72.43a12.68,12.68,0,0,0,2.66,2.18c2.46,1.42,4.43.73,5.38-2a3.76,3.76,0,0,0,0-2.3c-.58-2.19-6.16-10.09-7.84-11.16l-.14-.09a1.71,1.71,0,0,0-2.37.43l-.06.09a1.69,1.69,0,0,1-2.33.26A8.09,8.09,0,0,1,28,58.36a30.19,30.19,0,0,1-6.83-11.83c-.7-2.21-.68-3.83,1-4.16.87-.17,1.75-.47,1.68-2-.09-2-4.13-10.76-5.74-12.36a4.56,4.56,0,0,0-1-.77"/><path id="Path_2213" data-name="Path 2213" class="cls-6" d="M29.82,34.37a13.88,13.88,0,0,0-1.94-.94c-.59-.23-1,.17-.9.9A2.4,2.4,0,0,0,28,36l.17.09a11.83,11.83,0,0,1,1.6.78c.3.17.6.36.91.56a23.91,23.91,0,0,1,6.93,7.77,22.84,22.84,0,0,1,3.15,9.49,12.1,12.1,0,0,1-.12,2.82,2.31,2.31,0,0,0,.88,1.94,1.18,1.18,0,0,0,.18.13c.52.3,1,.13,1.06-.42a14.15,14.15,0,0,0,.14-3.44,27.41,27.41,0,0,0-3.76-11.39,28.43,28.43,0,0,0-8.27-9.25c-.36-.25-.73-.48-1.09-.69"/><path id="Path_2214" data-name="Path 2214" class="cls-6" d="M29.81,38.5a9,9,0,0,0-1.12-.56c-.59-.26-1,.12-.93.84a2.38,2.38,0,0,0,1.06,1.7l.14.07a6.65,6.65,0,0,1,.84.43,5.27,5.27,0,0,1,.59.37,16.15,16.15,0,0,1,4.71,5.29A15.19,15.19,0,0,1,37.22,53a7.44,7.44,0,0,1,0,1.49,2.31,2.31,0,0,0,.93,1.92l.14.09c.53.31,1,.12,1.07-.47a11.23,11.23,0,0,0,0-2,19.67,19.67,0,0,0-2.73-8.22,20.89,20.89,0,0,0-6-6.78c-.26-.18-.52-.34-.78-.49"/><path id="Path_2215" data-name="Path 2215" class="cls-6" d="M29.78,42.61l-.21-.12c-.59-.31-1.06,0-1,.69A2.38,2.38,0,0,0,29.61,45l0,0,.14.07.28.18a9.18,9.18,0,0,1,3.58,6,4,4,0,0,1,0,.49,2.35,2.35,0,0,0,1,1.9l.07,0c.56.33,1,.1,1.08-.53a6.31,6.31,0,0,0,0-.87,13.85,13.85,0,0,0-5.53-9.36c-.16-.11-.33-.22-.49-.31"/></g></g></g></svg>