<svg xmlns="http://www.w3.org/2000/svg" viewBox="0 0 66.03 93.92"><defs><style>.cls-1{fill:#6f75e3;}.cls-2{fill:#fff;}.cls-3{fill:#7c84e7;}.cls-4{fill:#989fed;}.cls-5{fill:#a8adef;}.cls-6{fill:#c5c8f5;}</style></defs><title>vk_1</title><g id="Слой_2" data-name="Слой 2"><g id="Слой_1-2" data-name="Слой 1"><path id="Path_2216" data-name="Path 2216" class="cls-1" d="M57.43,23.09,19.49,1.18C17.09-.2,14.92-.33,13.35.58L2.64,6.81h0C1.1,7.7.13,9.61.12,12.34L0,55.94c0,5.47,3.83,12.14,8.6,14.89L46.55,92.74c2.46,1.42,4.69,1.51,6.27.51l-.14.09,10.71-6.23c1.55-.9,2.51-2.81,2.52-5.53L66,38C66.05,32.51,62.2,25.84,57.43,23.09Z"/><g id="Group_703" data-name="Group 703"><path id="Path_2217" data-name="Path 2217" class="cls-2" d="M29.33,38.67,23,35c-.85-.49-1.27-.35-1.73,0-.26.2-.34.39.2.82a4.84,4.84,0,0,1,1.8,3.27A29.93,29.93,0,0,1,23.3,45,4.42,4.42,0,0,1,23,46.46c-.19.41-.46.52-.79.33a2.41,2.41,0,0,1-.67-.68,13.88,13.88,0,0,1-1.41-2.6,75.64,75.64,0,0,1-3.71-10.12,3.64,3.64,0,0,0-1.53-2.2q-1.38-.82-2.76-1.62T9.34,28c-1.1-.62-1.44-.19-1,1.22A154.66,154.66,0,0,0,15.45,48a43.07,43.07,0,0,0,5.41,9A25.2,25.2,0,0,0,28,63.07c.32.18.64.36,1,.53,1.33.7,1.73.53,1.8-1a5.43,5.43,0,0,1,.6-2.68.7.7,0,0,1,.94-.32l.11.07a3.19,3.19,0,0,1,.83.81,15.09,15.09,0,0,1,1,1.62c.75,1.38,1.47,2.77,2.24,4.13a9.22,9.22,0,0,0,3.21,3.55L40,70l5.63,3.26c.91.45,1.38-.55.87-2a26.46,26.46,0,0,0-1.36-3C44,66,42.68,63.85,41.41,61.67c-1.15-2-1.23-2.76-.29-3.72s2.12-2,3.14-3a8.7,8.7,0,0,0,2.45-3.45c.33-1,0-1.65-1-2.45a3.84,3.84,0,0,0-.54-.35l-6.13-3.54,0,0c-.72-.42-1.13-.28-1.39.33-.35.82-.74,1.62-1.17,2.41a11.85,11.85,0,0,1-3.6,4.26c-.29.18-.6.42-1,.17a1.21,1.21,0,0,1-.26-.2,4.26,4.26,0,0,1-.89-2.6l0-8.13a3.33,3.33,0,0,0-1.36-2.69"/></g><g id="Group_705" data-name="Group 705"><path id="Path_2218" data-name="Path 2218" class="cls-3" d="M63.39,87.12,52.68,93.34c1.55-.9,2.51-2.81,2.52-5.53l10.71-6.22C65.9,84.3,64.94,86.22,63.39,87.12Z"/><g id="Group_704" data-name="Group 704"><path id="Path_2219" data-name="Path 2219" class="cls-4" d="M2.64,6.81,13.35.58c1.57-.91,3.74-.78,6.14.6L8.78,7.41C6.38,6,4.21,5.9,2.64,6.81Z"/><path id="Path_2220" data-name="Path 2220" class="cls-4" d="M55.32,44.21,66,38l-.12,43.6L55.2,87.81Z"/></g><path id="Path_2221" data-name="Path 2221" class="cls-5" d="M8.78,7.41,19.49,1.18,57.43,23.09,46.72,29.32Z"/><path id="Path_2222" data-name="Path 2222" class="cls-6" d="M46.72,29.32l10.71-6.23C62.2,25.84,66.05,32.51,66,38L55.32,44.21C55.34,38.73,51.49,32.07,46.72,29.32Z"/></g></g></g></svg>